SplineFontDB: 3.2
FontName: Untitled1
FullName: Untitled1
FamilyName: Untitled1
Weight: Book
Copyright: Copyright (c) 2025, Pedro Otavio Mantovani
Version: 001.000
ItalicAngle: 0
UnderlinePosition: -100
UnderlineWidth: 50
Ascent: 800
Descent: 200
InvalidEm: 0
sfntRevision: 0x00010000
LayerCount: 2
Layer: 0 1 "Back" 1
Layer: 1 1 "Fore" 0
XUID: [1021 199 -1769297286 12573253]
StyleMap: 0x0000
FSType: 0
OS2Version: 4
OS2_WeightWidthSlopeOnly: 0
OS2_UseTypoMetrics: 1
CreationTime: 1755826147
ModificationTime: 1755830737
PfmFamily: 17
TTFWeight: 400
TTFWidth: 5
LineGap: 90
VLineGap: 0
Panose: 2 0 5 9 0 0 0 0 0 0
OS2TypoAscent: 800
OS2TypoAOffset: 0
OS2TypoDescent: -200
OS2TypoDOffset: 0
OS2TypoLinegap: 90
OS2WinAscent: 740
OS2WinAOffset: 0
OS2WinDescent: 0
OS2WinDOffset: 0
HheadAscent: 740
HheadAOffset: 0
HheadDescent: 0
HheadDOffset: 0
OS2SubXSize: 650
OS2SubYSize: 700
OS2SubXOff: 0
OS2SubYOff: 140
OS2SupXSize: 650
OS2SupYSize: 700
OS2SupXOff: 0
OS2SupYOff: 480
OS2StrikeYSize: 49
OS2StrikeYPos: 258
OS2CapHeight: 628
OS2Vendor: 'PfEd'
OS2CodePages: 00000001.00000000
OS2UnicodeRanges: 00000001.00000000.00000000.00000000
DEI: 91125
ShortTable: cvt  2
  33
  633
EndShort
ShortTable: maxp 16
  1
  0
  24
  506
  7
  0
  0
  2
  0
  1
  1
  0
  64
  46
  0
  0
EndShort
LangName: 1033 "" "" "Regular" "FontForge 2.0 : Untitled1 : 22-8-2025" "" "Version 001.000"
GaspTable: 1 65535 2 0
Encoding: UnicodeBmp
UnicodeInterp: none
NameList: AGL For New Fonts
DisplaySize: -48
AntiAlias: 1
FitToEm: 0
WinInfo: 0 27 9
BeginChars: 65539 25

StartChar: .notdef
Encoding: 65536 -1 0
Width: 1000
GlyphClass: 1
Flags: W
LayerCount: 2
Fore
SplineSet
33 0 m 1,0,-1
 33 666 l 1,1,-1
 298 666 l 1,2,-1
 298 0 l 1,3,-1
 33 0 l 1,0,-1
66 33 m 1,4,-1
 265 33 l 1,5,-1
 265 633 l 1,6,-1
 66 633 l 1,7,-1
 66 33 l 1,4,-1
EndSplineSet
EndChar

StartChar: A
Encoding: 65 65 3
Width: 1000
GlyphClass: 1
Flags: W
LayerCount: 2
Fore
SplineSet
654.5 6 m 128,-1,1
 652 6 652 6 651.5 7.5 c 128,-1,2
 651 9 651 9 646.5 10.5 c 128,-1,3
 642 12 642 12 639.5 14.5 c 128,-1,4
 637 17 637 17 636 17 c 128,-1,5
 635 17 635 17 634 23 c 128,-1,6
 633 29 633 29 631.5 32.5 c 128,-1,7
 630 36 630 36 631.5 39 c 128,-1,8
 633 42 633 42 633.5 47.5 c 128,-1,9
 634 53 634 53 636.5 56.5 c 128,-1,10
 639 60 639 60 640 62.5 c 128,-1,11
 641 65 641 65 644 66 c 128,-1,12
 647 67 647 67 648.5 69 c 128,-1,13
 650 71 650 71 655.5 72 c 128,-1,14
 661 73 661 73 662 74.5 c 128,-1,15
 663 76 663 76 667.5 76 c 128,-1,16
 672 76 672 76 676 74 c 0,17,18
 679 73 679 73 684 72 c 128,-1,19
 689 71 689 71 690 69.5 c 128,-1,20
 691 68 691 68 695.5 66.5 c 128,-1,21
 700 65 700 65 700.5 63 c 128,-1,22
 701 61 701 61 704 58 c 0,23,24
 711 49 711 49 707 30 c 0,25,26
 705 23 705 23 700 18 c 0,27,28
 698 17 698 17 696 14 c 0,29,30
 693 11 693 11 690 10.5 c 128,-1,31
 687 10 687 10 685 8 c 128,-1,32
 683 6 683 6 670 6 c 128,-1,0
 657 6 657 6 654.5 6 c 128,-1,1
296 13 m 0,33,34
 292 14 292 14 292 31 c 0,35,36
 292 43 292 43 294.5 46.5 c 128,-1,37
 297 50 297 50 298 57.5 c 128,-1,38
 299 65 299 65 300.5 67 c 128,-1,39
 302 69 302 69 303 74 c 128,-1,40
 304 79 304 79 306.5 82.5 c 128,-1,41
 309 86 309 86 309.5 90 c 128,-1,42
 310 94 310 94 312.5 97.5 c 128,-1,43
 315 101 315 101 315.5 105 c 128,-1,44
 316 109 316 109 318 111.5 c 128,-1,45
 320 114 320 114 321 120 c 128,-1,46
 322 126 322 126 327 135 c 128,-1,47
 332 144 332 144 332.5 148 c 128,-1,48
 333 152 333 152 335.5 155.5 c 128,-1,49
 338 159 338 159 338.5 162.5 c 128,-1,50
 339 166 339 166 341 168 c 128,-1,51
 343 170 343 170 344 174 c 128,-1,52
 345 178 345 178 347.5 181.5 c 128,-1,53
 350 185 350 185 350.5 189 c 128,-1,54
 351 193 351 193 353 195 c 128,-1,55
 355 197 355 197 355.5 200.5 c 128,-1,56
 356 204 356 204 358.5 207 c 128,-1,57
 361 210 361 210 362 214.5 c 128,-1,58
 363 219 363 219 365.5 223 c 128,-1,59
 368 227 368 227 368 228 c 128,-1,60
 368 229 368 229 370.5 233 c 128,-1,61
 373 237 373 237 373.5 240.5 c 128,-1,62
 374 244 374 244 376.5 246.5 c 128,-1,63
 379 249 379 249 379.5 253 c 128,-1,64
 380 257 380 257 381 257 c 128,-1,65
 382 257 382 257 383.5 260.5 c 128,-1,66
 385 264 385 264 385 266 c 256,67,68
 385 268 385 268 387.5 271 c 128,-1,69
 390 274 390 274 390.5 279 c 128,-1,70
 391 284 391 284 393.5 287.5 c 128,-1,71
 396 291 396 291 396.5 294.5 c 128,-1,72
 397 298 397 298 399 300 c 128,-1,73
 401 302 401 302 402 305.5 c 128,-1,74
 403 309 403 309 405.5 313 c 128,-1,75
 408 317 408 317 408 318 c 256,76,77
 408 319 408 319 412 323 c 128,-1,78
 416 327 416 327 417 327 c 0,79,80
 419 327 419 327 420.5 329.5 c 128,-1,81
 422 332 422 332 427.5 332 c 128,-1,82
 433 332 433 332 433.5 329.5 c 128,-1,83
 434 327 434 327 436.5 326.5 c 128,-1,84
 439 326 439 326 439 317.5 c 128,-1,85
 439 309 439 309 437 308 c 128,-1,86
 435 307 435 307 434 303 c 128,-1,87
 433 299 433 299 431 297 c 128,-1,88
 429 295 429 295 428 290 c 128,-1,89
 427 285 427 285 425 283.5 c 128,-1,90
 423 282 423 282 422 276.5 c 128,-1,91
 421 271 421 271 419 268.5 c 128,-1,92
 417 266 417 266 416 261.5 c 128,-1,93
 415 257 415 257 413 255 c 128,-1,94
 411 253 411 253 410.5 249 c 128,-1,95
 410 245 410 245 407.5 242 c 128,-1,96
 405 239 405 239 404.5 235 c 128,-1,97
 404 231 404 231 402 229.5 c 128,-1,98
 400 228 400 228 399.5 224 c 128,-1,99
 399 220 399 220 396.5 217 c 128,-1,100
 394 214 394 214 393 209 c 128,-1,101
 392 204 392 204 390 202.5 c 128,-1,102
 388 201 388 201 387 196 c 0,103,104
 386 189 386 189 391 188 c 128,-1,105
 396 187 396 187 426 187 c 0,106,107
 461 187 461 187 464.5 185.5 c 128,-1,108
 468 184 468 184 485 183 c 0,109,110
 503 182 503 182 509 178 c 0,111,112
 512 175 512 175 513 175 c 128,-1,113
 514 175 514 175 514 169 c 128,-1,114
 514 163 514 163 511.5 161.5 c 128,-1,115
 509 160 509 160 508 159 c 0,116,117
 505 155 505 155 471 156 c 0,118,119
 449 156 449 156 411 156 c 0,120,121
 376 156 376 156 371 155 c 128,-1,122
 366 154 366 154 364 146 c 0,123,124
 364 141 364 141 361 135 c 128,-1,125
 358 129 358 129 358 128 c 128,-1,126
 358 127 358 127 355.5 123.5 c 128,-1,127
 353 120 353 120 352.5 115.5 c 128,-1,128
 352 111 352 111 350 109 c 128,-1,129
 348 107 348 107 347 102 c 128,-1,130
 346 97 346 97 344 94.5 c 128,-1,131
 342 92 342 92 341 86.5 c 128,-1,132
 340 81 340 81 338 78.5 c 128,-1,133
 336 76 336 76 336 73.5 c 128,-1,134
 336 71 336 71 333 65.5 c 128,-1,135
 330 60 330 60 329.5 55 c 128,-1,136
 329 50 329 50 327 47 c 128,-1,137
 325 44 325 44 324 39 c 128,-1,138
 323 34 323 34 321 31.5 c 128,-1,139
 319 29 319 29 318 25 c 128,-1,140
 317 21 317 21 312 16 c 128,-1,141
 307 11 307 11 302.5 11 c 128,-1,142
 298 11 298 11 296 13 c 0,33,34
528.5 518.5 m 128,-1,144
 527 521 527 521 523 522 c 0,145,146
 518 523 518 523 510 534 c 0,147,148
 507 538 507 538 507 547.5 c 128,-1,149
 507 557 507 557 509 560 c 128,-1,150
 511 563 511 563 512 567 c 128,-1,151
 513 571 513 571 514 571 c 128,-1,152
 515 571 515 571 524 579 c 0,153,154
 530 585 530 585 552 583 c 0,155,156
 559 582 559 582 563 578 c 128,-1,157
 567 574 567 574 567 573.5 c 128,-1,158
 567 573 567 573 570 569 c 2,159,-1
 573 565 l 1,160,-1
 573 550 l 1,161,-1
 573 534 l 1,162,-1
 568 528 l 2,163,164
 562 521 562 521 554 517 c 0,165,166
 552 516 552 516 541 516 c 128,-1,143
 530 516 530 516 528.5 518.5 c 128,-1,144
EndSplineSet
EndChar

StartChar: B
Encoding: 66 66 4
Width: 1000
GlyphClass: 1
Flags: W
LayerCount: 2
Fore
SplineSet
522 7.5 m 128,-1,1
 520 8 520 8 518 9 c 0,2,3
 513 12 513 12 499 12 c 0,4,5
 493 12 493 12 489 14 c 128,-1,6
 485 16 485 16 480 17.5 c 128,-1,7
 475 19 475 19 473 20.5 c 128,-1,8
 471 22 471 22 466 23 c 128,-1,9
 461 24 461 24 458.5 26 c 128,-1,10
 456 28 456 28 453.5 29 c 128,-1,11
 451 30 451 30 448.5 32 c 128,-1,12
 446 34 446 34 444.5 34 c 128,-1,13
 443 34 443 34 439.5 37 c 128,-1,14
 436 40 436 40 432.5 41.5 c 128,-1,15
 429 43 429 43 429 43.5 c 128,-1,16
 429 44 429 44 427 45 c 128,-1,17
 425 46 425 46 421 49 c 128,-1,18
 417 52 417 52 415 52 c 0,19,20
 412 52 412 52 396 68 c 0,21,22
 387 76 387 76 383.5 79.5 c 128,-1,23
 380 83 380 83 375 89 c 128,-1,24
 370 95 370 95 367 98 c 0,25,26
 355 112 355 112 353 121 c 0,27,28
 353 125 353 125 350.5 127.5 c 128,-1,29
 348 130 348 130 347.5 133.5 c 128,-1,30
 347 137 347 137 344.5 139.5 c 128,-1,31
 342 142 342 142 341.5 151 c 128,-1,32
 341 160 341 160 338.5 163.5 c 128,-1,33
 336 167 336 167 336 184 c 2,34,-1
 336 202 l 1,35,-1
 340 208 l 2,36,37
 343 214 343 214 343 215 c 128,-1,38
 343 216 343 216 346 217.5 c 128,-1,39
 349 219 349 219 351.5 219.5 c 128,-1,40
 354 220 354 220 357.5 218.5 c 128,-1,41
 361 217 361 217 361.5 213 c 128,-1,42
 362 209 362 209 364.5 204.5 c 128,-1,43
 367 200 367 200 367 183 c 0,44,45
 368 164 368 164 371 160 c 0,46,47
 373 159 373 159 373.5 153 c 128,-1,48
 374 147 374 147 376.5 144.5 c 128,-1,49
 379 142 379 142 380 137.5 c 128,-1,50
 381 133 381 133 382 132.5 c 128,-1,51
 383 132 383 132 385.5 126.5 c 128,-1,52
 388 121 388 121 389 121 c 128,-1,53
 390 121 390 121 390.5 119 c 128,-1,54
 391 117 391 117 397 111 c 0,55,56
 405 103 405 103 410 98 c 256,57,58
 415 93 415 93 415 92.5 c 128,-1,59
 415 92 415 92 416.5 91 c 128,-1,60
 418 90 418 90 424 85 c 128,-1,61
 430 80 430 80 432 79 c 128,-1,62
 434 78 434 78 437 75.5 c 128,-1,63
 440 73 440 73 441.5 73 c 128,-1,64
 443 73 443 73 444 71.5 c 128,-1,65
 445 70 445 70 449.5 67.5 c 128,-1,66
 454 65 454 65 454.5 64.5 c 128,-1,67
 455 64 455 64 462.5 60 c 128,-1,68
 470 56 470 56 475.5 53.5 c 128,-1,69
 481 51 481 51 484.5 50 c 128,-1,70
 488 49 488 49 491.5 47 c 128,-1,71
 495 45 495 45 503.5 44 c 128,-1,72
 512 43 512 43 516 41 c 128,-1,73
 520 39 520 39 566 39 c 128,-1,74
 612 39 612 39 616 41 c 128,-1,75
 620 43 620 43 634 45 c 0,76,77
 665 47 665 47 672 40 c 0,78,79
 680 33 680 33 668 22 c 0,80,81
 665 19 665 19 659.5 18 c 128,-1,82
 654 17 654 17 649.5 15 c 128,-1,83
 645 13 645 13 631.5 12.5 c 128,-1,84
 618 12 618 12 613 9 c 2,85,-1
 608 6 l 1,86,-1
 566 7 l 2,87,0
 524 7 524 7 522 7.5 c 128,-1,1
547 119 m 128,-1,89
 543 122 543 122 541.5 122 c 128,-1,90
 540 122 540 122 537 125.5 c 128,-1,91
 534 129 534 129 531 132 c 128,-1,92
 528 135 528 135 527.5 138.5 c 128,-1,93
 527 142 527 142 524.5 144.5 c 128,-1,94
 522 147 522 147 521.5 150 c 128,-1,95
 521 153 521 153 518.5 155.5 c 128,-1,96
 516 158 516 158 515.5 160.5 c 128,-1,97
 515 163 515 163 513 165 c 128,-1,98
 511 167 511 167 510 170.5 c 128,-1,99
 509 174 509 174 507 176 c 128,-1,100
 505 178 505 178 504 181.5 c 128,-1,101
 503 185 503 185 501 186 c 128,-1,102
 499 187 499 187 498.5 191.5 c 128,-1,103
 498 196 498 196 495.5 200.5 c 128,-1,104
 493 205 493 205 493.5 210 c 128,-1,105
 494 215 494 215 496.5 217 c 128,-1,106
 499 219 499 219 502 221.5 c 128,-1,107
 505 224 505 224 506 224 c 128,-1,108
 507 224 507 224 509 226.5 c 128,-1,109
 511 229 511 229 537 230 c 0,110,111
 582 231 582 231 598 230 c 0,112,113
 611 229 611 229 619 229 c 128,-1,114
 627 229 627 229 628 227.5 c 128,-1,115
 629 226 629 226 631.5 224.5 c 128,-1,116
 634 223 634 223 634 214 c 2,117,-1
 634 204 l 1,118,-1
 630 200 l 2,119,120
 626 196 626 196 624 192.5 c 128,-1,121
 622 189 622 189 619.5 186.5 c 128,-1,122
 617 184 617 184 617 182.5 c 128,-1,123
 617 181 617 181 614 178 c 0,124,125
 601 165 601 165 599 160 c 0,126,127
 599 157 599 157 597 156 c 128,-1,128
 595 155 595 155 595 154 c 128,-1,129
 595 153 595 153 592 149 c 0,130,131
 583 139 583 139 583 137 c 0,132,133
 583 136 583 136 580.5 133.5 c 128,-1,134
 578 131 578 131 576 130 c 0,135,136
 570 118 570 118 566 117 c 0,137,138
 563 116 563 116 557 116 c 128,-1,88
 551 116 551 116 547 119 c 128,-1,89
562 161.5 m 128,-1,140
 562 162 562 162 564.5 165 c 128,-1,141
 567 168 567 168 567 168.5 c 128,-1,142
 567 169 567 169 570.5 173.5 c 128,-1,143
 574 178 574 178 574 179 c 128,-1,144
 574 180 574 180 579.5 186 c 128,-1,145
 585 192 585 192 585 195 c 0,146,147
 584 200 584 200 581.5 201 c 128,-1,148
 579 202 579 202 569 201 c 0,149,150
 558 200 558 200 555.5 199 c 128,-1,151
 553 198 553 198 545 198 c 0,152,153
 534 198 534 198 533 195 c 0,154,155
 532 194 532 194 534.5 189 c 128,-1,156
 537 184 537 184 539 182 c 128,-1,157
 541 180 541 180 542 176.5 c 128,-1,158
 543 173 543 173 545 171 c 128,-1,159
 547 169 547 169 548 165 c 128,-1,160
 549 161 549 161 553 159.5 c 128,-1,161
 557 158 557 158 559.5 159.5 c 128,-1,139
 562 161 562 161 562 161.5 c 128,-1,140
351 282 m 0,162,163
 349 284 349 284 346 284 c 128,-1,164
 343 284 343 284 337 290 c 128,-1,165
 331 296 331 296 328 300 c 128,-1,166
 325 304 325 304 325 312.5 c 128,-1,167
 325 321 325 321 327.5 325 c 128,-1,168
 330 329 330 329 331 332 c 0,169,170
 334 342 334 342 342 346 c 0,171,172
 345 347 345 347 347 349 c 0,173,174
 350 352 350 352 364 352 c 128,-1,175
 378 352 378 352 383 348 c 0,176,177
 386 347 386 347 388.5 346 c 128,-1,178
 391 345 391 345 391 344 c 128,-1,179
 391 343 391 343 394 340 c 128,-1,180
 397 337 397 337 397 333.5 c 128,-1,181
 397 330 397 330 399 326 c 0,182,183
 403 321 403 321 400 317 c 0,184,185
 397 315 397 315 396.5 309.5 c 128,-1,186
 396 304 396 304 394 302 c 0,187,188
 384 292 384 292 382 291 c 256,189,190
 380 290 380 290 379 288 c 128,-1,191
 378 286 378 286 373.5 285 c 128,-1,192
 369 284 369 284 365 282 c 0,193,194
 356 278 356 278 351 282 c 0,162,163
361 384 m 0,195,196
 356 384 356 384 355.5 384.5 c 128,-1,197
 355 385 355 385 354 391.5 c 128,-1,198
 353 398 353 398 351 401 c 256,199,200
 349 404 349 404 351 425 c 0,201,202
 354 453 354 453 354 482 c 0,203,204
 354 507 354 507 356 510 c 128,-1,205
 358 513 358 513 359 526 c 128,-1,206
 360 539 360 539 362 541 c 128,-1,207
 364 543 364 543 364 544.5 c 128,-1,208
 364 546 364 546 365 549.5 c 128,-1,209
 366 553 366 553 370.5 555 c 128,-1,210
 375 557 375 557 375 558 c 0,211,212
 376 560 376 560 379.5 559.5 c 128,-1,213
 383 559 383 559 385 557 c 0,214,215
 387 554 387 554 389 554 c 256,216,217
 391 554 391 554 391 536 c 0,218,219
 390 522 390 522 389 520 c 0,220,221
 385 515 385 515 384 476 c 0,222,223
 384 448 384 448 382.5 443.5 c 128,-1,224
 381 439 381 439 380 418 c 0,225,226
 378 390 378 390 376 389 c 0,227,228
 373 389 373 389 373 387 c 0,229,230
 372 382 372 382 361 384 c 0,195,196
564 419 m 0,231,232
 562 420 562 420 562 421 c 128,-1,233
 562 422 562 422 560 423.5 c 128,-1,234
 558 425 558 425 556 430 c 128,-1,235
 554 435 554 435 552.5 438 c 128,-1,236
 551 441 551 441 551 442.5 c 128,-1,237
 551 444 551 444 549 445.5 c 128,-1,238
 547 447 547 447 545 446.5 c 128,-1,239
 543 446 543 446 541.5 443.5 c 128,-1,240
 540 441 540 441 538.5 441 c 128,-1,241
 537 441 537 441 535 439 c 0,242,243
 532 435 532 435 524.5 435.5 c 128,-1,244
 517 436 517 436 513 439 c 0,245,246
 510 442 510 442 510.5 445.5 c 128,-1,247
 511 449 511 449 513 450.5 c 128,-1,248
 515 452 515 452 516 455.5 c 128,-1,249
 517 459 517 459 519 462 c 0,250,251
 522 466 522 466 519 470 c 0,252,253
 517 475 517 475 509 476 c 0,254,255
 505 477 505 477 502 480 c 128,-1,256
 499 483 499 483 499 488.5 c 128,-1,257
 499 494 499 494 503.5 497.5 c 128,-1,258
 508 501 508 501 513 502 c 0,259,260
 522 503 522 503 522 505 c 0,261,262
 523 506 523 506 522.5 507.5 c 128,-1,263
 522 509 522 509 521 510.5 c 128,-1,264
 520 512 520 512 519 512 c 0,265,266
 517 512 517 512 515 519.5 c 128,-1,267
 513 527 513 527 513 532 c 0,268,269
 513 538 513 538 521 542 c 256,270,271
 529 546 529 546 535 540 c 0,272,273
 538 538 538 538 542 537 c 2,274,-1
 547 536 l 1,275,-1
 548 538 l 2,276,277
 550 541 550 541 550 544.5 c 128,-1,278
 550 548 550 548 553.5 551 c 128,-1,279
 557 554 557 554 563 554 c 128,-1,280
 569 554 569 554 572.5 551 c 128,-1,281
 576 548 576 548 576.5 543.5 c 128,-1,282
 577 539 577 539 579 536 c 2,283,-1
 581 534 l 1,284,-1
 584 536 l 2,285,286
 587 538 587 538 593 543.5 c 128,-1,287
 599 549 599 549 600.5 549 c 128,-1,288
 602 549 602 549 604 551 c 0,289,290
 606 554 606 554 611.5 554 c 128,-1,291
 617 554 617 554 618 551 c 0,292,293
 619 549 619 549 620.5 549 c 128,-1,294
 622 549 622 549 622 544 c 0,295,296
 624 535 624 535 620 532 c 0,297,298
 619 531 619 531 618 527.5 c 128,-1,299
 617 524 617 524 612 519 c 128,-1,300
 607 514 607 514 607 512 c 0,301,302
 607 511 607 511 609.5 509 c 128,-1,303
 612 507 612 507 614 507 c 256,304,305
 616 507 616 507 622.5 503.5 c 128,-1,306
 629 500 629 500 629 499 c 256,307,308
 629 498 629 498 630 497 c 0,309,310
 634 493 634 493 630 485 c 0,311,312
 628 481 628 481 626 480 c 128,-1,313
 624 479 624 479 621.5 477.5 c 128,-1,314
 619 476 619 476 612.5 476 c 128,-1,315
 606 476 606 476 603 474 c 2,316,-1
 601 472 l 1,317,-1
 608 465 l 2,318,319
 616 458 616 458 618 453.5 c 128,-1,320
 620 449 620 449 621 449 c 128,-1,321
 622 449 622 449 622 445 c 256,322,323
 622 441 622 441 614 433 c 0,324,325
 612 430 612 430 606 431 c 0,326,327
 598 431 598 431 590 440 c 0,328,329
 587 443 587 443 584 441 c 0,330,331
 583 440 583 440 582.5 434.5 c 128,-1,332
 582 429 582 429 579 427 c 128,-1,333
 576 425 576 425 575 423 c 0,334,335
 573 417 573 417 564 419 c 0,231,232
359 593 m 0,336,337
 357 594 357 594 354.5 595.5 c 128,-1,338
 352 597 352 597 350.5 597 c 128,-1,339
 349 597 349 597 345 601.5 c 128,-1,340
 341 606 341 606 338.5 609 c 128,-1,341
 336 612 336 612 336 628.5 c 128,-1,342
 336 645 336 645 338.5 647 c 128,-1,343
 341 649 341 649 341 650 c 0,344,345
 341 652 341 652 344 655.5 c 128,-1,346
 347 659 347 659 350 659 c 0,347,348
 353 661 353 661 354 662.5 c 128,-1,349
 355 664 355 664 369 664.5 c 128,-1,350
 383 665 383 665 385.5 662.5 c 128,-1,351
 388 660 388 660 391.5 658.5 c 128,-1,352
 395 657 395 657 399 651.5 c 128,-1,353
 403 646 403 646 403 643.5 c 128,-1,354
 403 641 403 641 405 638 c 0,355,356
 408 633 408 633 405 627 c 0,357,358
 403 623 403 623 403 620 c 128,-1,359
 403 617 403 617 401.5 615.5 c 128,-1,360
 400 614 400 614 397.5 608.5 c 128,-1,361
 395 603 395 603 393.5 603 c 128,-1,362
 392 603 392 603 389 601 c 128,-1,363
 386 599 386 599 381 598 c 128,-1,364
 376 597 376 597 373 595 c 0,365,366
 368 591 368 591 359 593 c 0,336,337
EndSplineSet
EndChar

StartChar: C
Encoding: 67 67 5
Width: 1000
GlyphClass: 1
Flags: W
LayerCount: 2
Fore
SplineSet
487 11 m 2,0,1
 481 14 481 14 469.5 14.5 c 128,-1,2
 458 15 458 15 452.5 17.5 c 128,-1,3
 447 20 447 20 441 21 c 128,-1,4
 435 22 435 22 432 24.5 c 128,-1,5
 429 27 429 27 424 28 c 128,-1,6
 419 29 419 29 413.5 32 c 128,-1,7
 408 35 408 35 404 35 c 128,-1,8
 400 35 400 35 396 38 c 128,-1,9
 392 41 392 41 390 41 c 128,-1,10
 388 41 388 41 382.5 44.5 c 128,-1,11
 377 48 377 48 376 48 c 128,-1,12
 375 48 375 48 370.5 52.5 c 128,-1,13
 366 57 366 57 364.5 57 c 128,-1,14
 363 57 363 57 358.5 60.5 c 128,-1,15
 354 64 354 64 351 67 c 0,16,17
 346 71 346 71 338 79 c 128,-1,18
 330 87 330 87 330 87 c 2,19,20
 330 89 330 89 327.5 90 c 128,-1,21
 325 91 325 91 324 94.5 c 128,-1,22
 323 98 323 98 320 101 c 0,23,24
 309 113 309 113 309 115 c 256,25,26
 309 117 309 117 306 121 c 128,-1,27
 303 125 303 125 303 127 c 128,-1,28
 303 129 303 129 300 133.5 c 128,-1,29
 297 138 297 138 295.5 143.5 c 128,-1,30
 294 149 294 149 292 150.5 c 128,-1,31
 290 152 290 152 289 158.5 c 128,-1,32
 288 165 288 165 286 167 c 128,-1,33
 284 169 284 169 282 178 c 128,-1,34
 280 187 280 187 278 188 c 0,35,36
 275 193 275 193 275 208 c 0,37,38
 275 209 275 209 272 212 c 128,-1,39
 269 215 269 215 268.5 228.5 c 128,-1,40
 268 242 268 242 265 245.5 c 128,-1,41
 262 249 262 249 261.5 267 c 128,-1,42
 261 285 261 285 258.5 288.5 c 128,-1,43
 256 292 256 292 255 312 c 128,-1,44
 254 332 254 332 251 347 c 128,-1,45
 248 362 248 362 248 389 c 2,46,-1
 248 415 l 1,47,-1
 252 419 l 2,48,49
 262 431 262 431 267 432 c 0,50,51
 270 432 270 432 270.5 429.5 c 128,-1,52
 271 427 271 427 274 425 c 0,53,54
 278 420 278 420 278 398 c 0,55,56
 278 381 278 381 283 374 c 0,57,58
 285 371 285 371 286 356 c 128,-1,59
 287 341 287 341 289 338 c 128,-1,60
 291 335 291 335 292 314.5 c 128,-1,61
 293 294 293 294 295.5 287.5 c 128,-1,62
 298 281 298 281 299.5 264.5 c 128,-1,63
 301 248 301 248 303 244.5 c 128,-1,64
 305 241 305 241 306.5 228.5 c 128,-1,65
 308 216 308 216 310.5 213 c 128,-1,66
 313 210 313 210 313.5 202 c 128,-1,67
 314 194 314 194 317 189 c 128,-1,68
 320 184 320 184 321 178 c 128,-1,69
 322 172 322 172 324 170 c 128,-1,70
 326 168 326 168 327.5 163 c 128,-1,71
 329 158 329 158 331 155.5 c 128,-1,72
 333 153 333 153 334.5 148 c 128,-1,73
 336 143 336 143 338 140.5 c 128,-1,74
 340 138 340 138 342 134.5 c 128,-1,75
 344 131 344 131 345.5 131 c 128,-1,76
 347 131 347 131 348.5 127 c 128,-1,77
 350 123 350 123 352 121 c 128,-1,78
 354 119 354 119 356.5 115.5 c 128,-1,79
 359 112 359 112 362 108 c 256,80,81
 365 104 365 104 375 95 c 128,-1,82
 385 86 385 86 386.5 86 c 128,-1,83
 388 86 388 86 391.5 83 c 128,-1,84
 395 80 395 80 396.5 80 c 128,-1,85
 398 80 398 80 401.5 77.5 c 128,-1,86
 405 75 405 75 410.5 73.5 c 128,-1,87
 416 72 416 72 417.5 70.5 c 128,-1,88
 419 69 419 69 425 67.5 c 128,-1,89
 431 66 431 66 434 63 c 128,-1,90
 437 60 437 60 443.5 59.5 c 128,-1,91
 450 59 450 59 455 56 c 128,-1,92
 460 53 460 53 469.5 52.5 c 128,-1,93
 479 52 479 52 486 49 c 128,-1,94
 493 46 493 46 523.5 46 c 128,-1,95
 554 46 554 46 558 48.5 c 128,-1,96
 562 51 562 51 571 52.5 c 128,-1,97
 580 54 580 54 582 56 c 128,-1,98
 584 58 584 58 589 59.5 c 128,-1,99
 594 61 594 61 596 63 c 128,-1,100
 598 65 598 65 602.5 66.5 c 128,-1,101
 607 68 607 68 609 71 c 128,-1,102
 611 74 611 74 612.5 74 c 128,-1,103
 614 74 614 74 615.5 76 c 128,-1,104
 617 78 617 78 621 80 c 0,105,106
 627 82 627 82 637 91 c 0,107,108
 639 93 639 93 643.5 95 c 128,-1,109
 648 97 648 97 650 100 c 128,-1,110
 652 103 652 103 656 107 c 0,111,112
 664 114 664 114 664 119 c 0,113,114
 664 120 664 120 657 127 c 128,-1,115
 650 134 650 134 650 135.5 c 128,-1,116
 650 137 650 137 647.5 140 c 128,-1,117
 645 143 645 143 645 159 c 128,-1,118
 645 175 645 175 648 178.5 c 128,-1,119
 651 182 651 182 656.5 189 c 128,-1,120
 662 196 662 196 667.5 197.5 c 128,-1,121
 673 199 673 199 677 201.5 c 128,-1,122
 681 204 681 204 699 204.5 c 128,-1,123
 717 205 717 205 720 203 c 128,-1,124
 723 201 723 201 728 199 c 256,125,126
 733 197 733 197 739 190.5 c 128,-1,127
 745 184 745 184 745 182 c 128,-1,128
 745 180 745 180 748.5 176 c 128,-1,129
 752 172 752 172 752 157 c 128,-1,130
 752 142 752 142 749.5 139.5 c 128,-1,131
 747 137 747 137 745.5 132 c 128,-1,132
 744 127 744 127 741.5 126 c 128,-1,133
 739 125 739 125 734 120 c 0,134,135
 725 112 725 112 714 111 c 0,136,137
 707 110 707 110 703.5 107 c 128,-1,138
 700 104 700 104 699.5 104 c 128,-1,139
 699 104 699 104 697 100 c 0,140,141
 694 92 694 92 684.5 81 c 128,-1,142
 675 70 675 70 671 69 c 0,143,144
 668 68 668 68 660 62 c 0,145,146
 645 49 645 49 643 49 c 0,147,148
 642 49 642 49 637.5 45 c 128,-1,149
 633 41 633 41 631.5 41 c 128,-1,150
 630 41 630 41 627 38 c 128,-1,151
 624 35 624 35 622.5 35 c 128,-1,152
 621 35 621 35 616.5 31.5 c 128,-1,153
 612 28 612 28 610.5 28 c 128,-1,154
 609 28 609 28 605 25 c 128,-1,155
 601 22 601 22 595 20.5 c 128,-1,156
 589 19 589 19 584.5 17 c 128,-1,157
 580 15 580 15 571 14 c 128,-1,158
 562 13 562 13 556.5 10.5 c 128,-1,159
 551 8 551 8 523 8 c 2,160,-1
 494 8 l 1,161,-1
 487 11 l 2,0,1
489 165 m 0,162,163
 485 169 485 169 484 172.5 c 128,-1,164
 483 176 483 176 480.5 178.5 c 128,-1,165
 478 181 478 181 479 185 c 0,166,167
 479 194 479 194 472 194 c 0,168,169
 470 194 470 194 467 191 c 0,170,171
 457 181 457 181 446 181 c 0,172,173
 437 181 437 181 433 184 c 0,174,175
 424 192 424 192 432 200 c 0,176,177
 435 202 435 202 436 206 c 128,-1,178
 437 210 437 210 439 212 c 0,179,180
 444 216 444 216 441 221 c 128,-1,181
 438 226 438 226 430 228 c 0,182,183
 423 230 423 230 419 233 c 128,-1,184
 415 236 415 236 415 243 c 128,-1,185
 415 250 415 250 420 254.5 c 128,-1,186
 425 259 425 259 433 260 c 0,187,188
 445 261 445 261 445 265 c 0,189,190
 445 266 445 266 442 270.5 c 128,-1,191
 439 275 439 275 438 275 c 256,192,193
 437 275 437 275 435 281.5 c 128,-1,194
 433 288 433 288 431 290 c 0,195,196
 428 292 428 292 432 297 c 0,197,198
 435 300 435 300 438 304 c 0,199,200
 442 309 442 309 449.5 309 c 128,-1,201
 457 309 457 309 461 305 c 0,202,203
 462 303 462 303 464 303 c 128,-1,204
 466 303 466 303 469.5 301 c 128,-1,205
 473 299 473 299 475 303 c 128,-1,206
 477 307 477 307 477 311 c 128,-1,207
 477 315 477 315 481 318.5 c 128,-1,208
 485 322 485 322 492 322 c 128,-1,209
 499 322 499 322 502 319 c 128,-1,210
 505 316 505 316 506 316 c 128,-1,211
 507 316 507 316 508 310 c 0,212,213
 510 298 510 298 513 298 c 0,214,215
 515 298 515 298 519.5 301.5 c 128,-1,216
 524 305 524 305 525 306 c 0,217,218
 525 309 525 309 528 310 c 128,-1,219
 531 311 531 311 533 313.5 c 128,-1,220
 535 316 535 316 536.5 316 c 128,-1,221
 538 316 538 316 541 319 c 0,222,223
 548 326 548 326 556 319 c 0,224,225
 559 317 559 317 561 317 c 0,226,227
 564 317 564 317 564 306 c 0,228,229
 564 299 564 299 561 296.5 c 128,-1,230
 558 294 558 294 558 290.5 c 128,-1,231
 558 287 558 287 551.5 280.5 c 128,-1,232
 545 274 545 274 545 271.5 c 128,-1,233
 545 269 545 269 553 267 c 0,234,235
 569 263 569 263 572 255 c 0,236,237
 573 252 573 252 575 252 c 128,-1,238
 577 252 577 252 577 248 c 0,239,240
 577 243 577 243 568 234 c 0,241,242
 564 230 564 230 555 230 c 0,243,244
 541 230 541 230 540 224 c 0,245,246
 540 221 540 221 548 213 c 0,247,248
 564 199 564 199 564 191 c 0,249,250
 564 188 564 188 558.5 182 c 128,-1,251
 553 176 553 176 550 175 c 0,252,253
 544 171 544 171 531 181 c 0,254,255
 523 188 523 188 519.5 187.5 c 128,-1,256
 516 187 516 187 515 178 c 0,257,258
 514 171 514 171 507 166 c 0,259,260
 496 157 496 157 489 165 c 0,162,163
323.5 329 m 128,-1,262
 321 332 321 332 316 336 c 128,-1,263
 311 340 311 340 310 347 c 128,-1,264
 309 354 309 354 306.5 357 c 128,-1,265
 304 360 304 360 303.5 381 c 128,-1,266
 303 402 303 402 302 413 c 0,267,268
 299 435 299 435 302 445 c 0,269,270
 303 455 303 455 303 474 c 128,-1,271
 303 493 303 493 306 499.5 c 128,-1,272
 309 506 309 506 310 511 c 128,-1,273
 311 516 311 516 313.5 518 c 128,-1,274
 316 520 316 520 317 526 c 0,275,276
 318 530 318 530 322.5 537.5 c 128,-1,277
 327 545 327 545 329 545 c 0,278,279
 330 545 330 545 330.5 547.5 c 128,-1,280
 331 550 331 550 338 557 c 0,281,282
 361 581 361 581 369 587 c 0,283,284
 376 594 376 594 379 597 c 128,-1,285
 382 600 382 600 384.5 600.5 c 128,-1,286
 387 601 387 601 392 605 c 0,287,288
 402 613 402 613 404 613 c 0,289,290
 411 613 411 613 414 618 c 0,291,292
 414 619 414 619 420.5 621.5 c 128,-1,293
 427 624 427 624 427 625 c 128,-1,294
 427 626 427 626 434.5 628 c 128,-1,295
 442 630 442 630 444 632 c 128,-1,296
 446 634 446 634 453.5 634.5 c 128,-1,297
 461 635 461 635 465 637.5 c 128,-1,298
 469 640 469 640 483.5 641 c 128,-1,299
 498 642 498 642 506 644 c 0,300,301
 521 648 521 648 539 648 c 0,302,303
 562 648 562 648 572 644 c 0,304,305
 577 642 577 642 588 641 c 128,-1,306
 599 640 599 640 601.5 638 c 128,-1,307
 604 636 604 636 608.5 635 c 128,-1,308
 613 634 613 634 618.5 631 c 128,-1,309
 624 628 624 628 625 628 c 128,-1,310
 626 628 626 628 630.5 624 c 128,-1,311
 635 620 635 620 637 620 c 128,-1,312
 639 620 639 620 642 617 c 0,313,314
 647 613 647 613 661 599 c 0,315,316
 677 584 677 584 677 582.5 c 128,-1,317
 677 581 677 581 679 579 c 128,-1,318
 681 577 681 577 682.5 571 c 128,-1,319
 684 565 684 565 686.5 562 c 128,-1,320
 689 559 689 559 690 553 c 0,321,322
 691 544 691 544 698 544 c 0,323,324
 701 544 701 544 705 540.5 c 128,-1,325
 709 537 709 537 713 534 c 0,326,327
 723 527 723 527 725 520 c 0,328,329
 726 516 726 516 728.5 513.5 c 128,-1,330
 731 511 731 511 730.5 499.5 c 128,-1,331
 730 488 730 488 727.5 485.5 c 128,-1,332
 725 483 725 483 725 481.5 c 128,-1,333
 725 480 725 480 717.5 472.5 c 128,-1,334
 710 465 710 465 706 464.5 c 128,-1,335
 702 464 702 464 699.5 461.5 c 128,-1,336
 697 459 697 459 682.5 459 c 128,-1,337
 668 459 668 459 661 462 c 0,338,339
 644 470 644 470 644 476 c 0,340,341
 644 478 644 478 641 480.5 c 128,-1,342
 638 483 638 483 638 500.5 c 128,-1,343
 638 518 638 518 641 521.5 c 128,-1,344
 644 525 644 525 644 527.5 c 128,-1,345
 644 530 644 530 647 531 c 0,346,347
 654 534 654 534 652 548 c 0,348,349
 650 558 650 558 648 558 c 0,350,351
 647 558 647 558 645 563 c 128,-1,352
 643 568 643 568 642 568 c 128,-1,353
 641 568 641 568 633 575 c 0,354,355
 619 588 619 588 615 590 c 256,356,357
 611 592 611 592 611 593 c 128,-1,358
 611 594 611 594 606 596 c 128,-1,359
 601 598 601 598 601 599 c 0,360,361
 601 602 601 602 587 604 c 0,362,363
 577 605 577 605 575 607 c 0,364,365
 571 611 571 611 534 611 c 0,366,367
 506 610 506 610 500 607.5 c 128,-1,368
 494 605 494 605 483.5 604 c 128,-1,369
 473 603 473 603 467 600.5 c 128,-1,370
 461 598 461 598 454 596.5 c 128,-1,371
 447 595 447 595 444 593 c 128,-1,372
 441 591 441 591 438 590 c 128,-1,373
 435 589 435 589 432 586.5 c 128,-1,374
 429 584 429 584 424.5 583 c 128,-1,375
 420 582 420 582 418.5 580 c 128,-1,376
 417 578 417 578 411.5 575.5 c 128,-1,377
 406 573 406 573 404.5 570.5 c 128,-1,378
 403 568 403 568 401.5 568 c 128,-1,379
 400 568 400 568 397.5 565 c 128,-1,380
 395 562 395 562 389 557 c 128,-1,381
 383 552 383 552 383 550.5 c 128,-1,382
 383 549 383 549 380 548 c 0,383,384
 375 547 375 547 375 540 c 0,385,386
 375 538 375 538 372.5 535.5 c 128,-1,387
 370 533 370 533 369 530 c 128,-1,388
 368 527 368 527 366 526 c 128,-1,389
 364 525 364 525 362.5 520.5 c 128,-1,390
 361 516 361 516 358 513.5 c 128,-1,391
 355 511 355 511 354.5 506.5 c 128,-1,392
 354 502 354 502 351.5 499 c 128,-1,393
 349 496 349 496 348 490 c 128,-1,394
 347 484 347 484 345 480 c 0,395,396
 340 470 340 470 341 397 c 0,397,398
 341 338 341 338 341 335 c 0,399,400
 339 328 339 328 330 327 c 0,401,261
 326 326 326 326 323.5 329 c 128,-1,262
490 372.5 m 128,-1,403
 486 377 486 377 484.5 382.5 c 128,-1,404
 483 388 483 388 480 393 c 0,405,406
 475 405 475 405 466 398.5 c 128,-1,407
 457 392 457 392 454.5 390.5 c 128,-1,408
 452 389 452 389 446 389 c 0,409,410
 437 389 437 389 433 393 c 0,411,412
 425 400 425 400 432 407 c 0,413,414
 435 409 435 409 436 413 c 128,-1,415
 437 417 437 417 440 420 c 0,416,417
 445 425 445 425 439 432 c 0,418,419
 436 435 436 435 429 437 c 0,420,421
 415 439 415 439 415 452 c 0,422,423
 415 462 415 462 419 462 c 0,424,425
 421 462 421 462 424 464.5 c 128,-1,426
 427 467 427 467 433 467 c 0,427,428
 450 467 450 467 442 479 c 0,429,430
 439 484 439 484 437 485.5 c 128,-1,431
 435 487 435 487 435 488.5 c 128,-1,432
 435 490 435 490 433 495.5 c 128,-1,433
 431 501 431 501 433 504 c 0,434,435
 439 515 439 515 446 517 c 0,436,437
 458 519 458 519 460 514 c 0,438,439
 461 512 461 512 467 510 c 128,-1,440
 473 508 473 508 474.5 510 c 128,-1,441
 476 512 476 512 476 517.5 c 128,-1,442
 476 523 476 523 480 526 c 0,443,444
 486 531 486 531 495 530 c 0,445,446
 501 529 501 529 502.5 526.5 c 128,-1,447
 504 524 504 524 505.5 524 c 128,-1,448
 507 524 507 524 508 518 c 128,-1,449
 509 512 509 512 511 509.5 c 128,-1,450
 513 507 513 507 517 509 c 128,-1,451
 521 511 521 511 526 515 c 0,452,453
 535 524 535 524 537 524 c 128,-1,454
 539 524 539 524 541.5 527 c 128,-1,455
 544 530 544 530 550 530 c 128,-1,456
 556 530 556 530 556.5 528 c 128,-1,457
 557 526 557 526 560 526 c 0,458,459
 564 524 564 524 564 513 c 0,460,461
 564 507 564 507 561 504.5 c 128,-1,462
 558 502 558 502 558 498 c 128,-1,463
 558 494 558 494 556 492 c 0,464,465
 545 483 545 483 545 480 c 0,466,467
 545 478 545 478 551 475.5 c 128,-1,468
 557 473 557 473 561.5 470 c 128,-1,469
 566 467 566 467 568 467 c 128,-1,470
 570 467 570 467 570.5 464.5 c 128,-1,471
 571 462 571 462 574 459 c 0,472,473
 576 458 576 458 576.5 456 c 128,-1,474
 577 454 577 454 577 452.5 c 128,-1,475
 577 451 577 451 576 451 c 0,476,477
 574 451 574 451 569 444 c 2,478,-1
 563 438 l 1,479,-1
 554 438 l 2,480,481
 538 438 538 438 538 433 c 0,482,483
 538 431 538 431 541 429 c 0,484,485
 544 426 544 426 547.5 422 c 128,-1,486
 551 418 551 418 554.5 415 c 128,-1,487
 558 412 558 412 558.5 408 c 128,-1,488
 559 404 559 404 561 403 c 0,489,490
 566 399 566 399 557 389 c 0,491,492
 552 383 552 383 545.5 383 c 128,-1,493
 539 383 539 383 539 384 c 128,-1,494
 539 385 539 385 534.5 387.5 c 128,-1,495
 530 390 530 390 526 394 c 256,496,497
 522 398 522 398 518 395 c 0,498,499
 516 394 516 394 515 387 c 128,-1,500
 514 380 514 380 512 380 c 0,501,502
 505 377 505 377 505 372 c 0,503,504
 505 368 505 368 498 368 c 0,505,402
 494 368 494 368 490 372.5 c 128,-1,403
EndSplineSet
EndChar

StartChar: D
Encoding: 68 68 6
Width: 1000
GlyphClass: 1
Flags: W
LayerCount: 2
Fore
SplineSet
396 11 m 2,0,1
 393 13 393 13 390 14 c 0,2,3
 387 14 387 14 378 24 c 0,4,5
 376 26 376 26 375 31 c 128,-1,6
 374 36 374 36 372 38 c 128,-1,7
 370 40 370 40 370 48.5 c 128,-1,8
 370 57 370 57 372 58.5 c 128,-1,9
 374 60 374 60 375 66 c 0,10,11
 377 72 377 72 382.5 80 c 128,-1,12
 388 88 388 88 392 88 c 0,13,14
 403 88 403 88 406 97 c 0,15,16
 406 99 406 99 408.5 101.5 c 128,-1,17
 411 104 411 104 411.5 117.5 c 128,-1,18
 412 131 412 131 414.5 133.5 c 128,-1,19
 417 136 417 136 418 146 c 128,-1,20
 419 156 419 156 421 159.5 c 128,-1,21
 423 163 423 163 423 167 c 0,22,23
 424 188 424 188 427 194 c 0,24,25
 429 200 429 200 430 210 c 0,26,27
 431 238 431 238 426 252 c 0,28,29
 424 258 424 258 424 268 c 0,30,31
 424 294 424 294 420 299 c 256,32,33
 416 304 416 304 421 310 c 0,34,35
 423 314 423 314 423.5 318 c 128,-1,36
 424 322 424 322 428 323.5 c 128,-1,37
 432 325 432 325 434 325 c 0,38,39
 442 325 442 325 444 320 c 0,40,41
 444 318 444 318 447 314.5 c 128,-1,42
 450 311 450 311 450.5 302.5 c 128,-1,43
 451 294 451 294 453.5 291 c 128,-1,44
 456 288 456 288 456 267 c 0,45,46
 457 237 457 237 460 232 c 0,47,48
 461 230 461 230 461 216 c 128,-1,49
 461 202 461 202 459 199.5 c 128,-1,50
 457 197 457 197 456 180.5 c 128,-1,51
 455 164 455 164 454 162 c 0,52,53
 450 158 450 158 450 145 c 0,54,55
 450 141 450 141 447.5 136.5 c 128,-1,56
 445 132 445 132 444.5 118 c 128,-1,57
 444 104 444 104 441.5 101.5 c 128,-1,58
 439 99 439 99 439 95 c 0,59,60
 440 86 440 86 447 83 c 0,61,62
 450 82 450 82 456 76 c 128,-1,63
 462 70 462 70 463 68 c 0,64,65
 463 65 463 65 465.5 61 c 128,-1,66
 468 57 468 57 468 46.5 c 128,-1,67
 468 36 468 36 465 32.5 c 128,-1,68
 462 29 462 29 462 27.5 c 128,-1,69
 462 26 462 26 456 20 c 128,-1,70
 450 14 450 14 448.5 14 c 128,-1,71
 447 14 447 14 444 11 c 2,72,-1
 441 9 l 1,73,-1
 420 8 l 1,74,-1
 400 8 l 1,75,-1
 396 11 l 2,0,1
567.5 209 m 128,-1,77
 567 211 567 211 564.5 212.5 c 128,-1,78
 562 214 562 214 562 216 c 128,-1,79
 562 218 562 218 559.5 223 c 128,-1,80
 557 228 557 228 555.5 231.5 c 128,-1,81
 554 235 554 235 551.5 235 c 128,-1,82
 549 235 549 235 541 228 c 0,83,84
 538 225 538 225 529 225 c 128,-1,85
 520 225 520 225 517 228 c 0,86,87
 511 234 511 234 516 239 c 0,88,89
 518 241 518 241 519.5 245 c 128,-1,90
 521 249 521 249 523 251 c 128,-1,91
 525 253 525 253 525 256 c 0,92,93
 523 264 523 264 515 266 c 0,94,95
 508 267 508 267 505 270 c 128,-1,96
 502 273 502 273 502.5 280 c 128,-1,97
 503 287 503 287 506 287.5 c 128,-1,98
 509 288 509 288 510.5 290.5 c 128,-1,99
 512 293 512 293 518 293 c 128,-1,100
 524 293 524 293 526 296 c 256,101,102
 528 299 528 299 522 306 c 0,103,104
 519 309 519 309 519 311.5 c 128,-1,105
 519 314 519 314 517 318 c 128,-1,106
 515 322 515 322 516.5 323.5 c 128,-1,107
 518 325 518 325 518 326 c 0,108,109
 518 328 518 328 522 331.5 c 128,-1,110
 526 335 526 335 529 335 c 0,111,112
 539 338 539 338 541 332 c 0,113,114
 541 330 541 330 548 328 c 256,115,116
 555 326 555 326 555 335 c 0,117,118
 555 341 555 341 560 345 c 0,119,120
 564 347 564 347 569.5 347 c 128,-1,121
 575 347 575 347 576.5 344.5 c 128,-1,122
 578 342 578 342 580 341.5 c 128,-1,123
 582 341 582 341 582.5 335.5 c 128,-1,124
 583 330 583 330 585 328 c 2,125,-1
 587 326 l 1,126,-1
 590 328 l 2,127,128
 592 330 592 330 593 330 c 128,-1,129
 594 330 594 330 600 335.5 c 128,-1,130
 606 341 606 341 608 341.5 c 128,-1,131
 610 342 610 342 612.5 344.5 c 128,-1,132
 615 347 615 347 619 347 c 128,-1,133
 623 347 623 347 624.5 344 c 128,-1,134
 626 341 626 341 628 340.5 c 128,-1,135
 630 340 630 340 630 333 c 128,-1,136
 630 326 630 326 627.5 324.5 c 128,-1,137
 625 323 625 323 625 319 c 128,-1,138
 625 315 625 315 623 313.5 c 128,-1,139
 621 312 621 312 617.5 308 c 128,-1,140
 614 304 614 304 616 302 c 128,-1,141
 618 300 618 300 621 299 c 0,142,143
 634 296 634 296 637 290 c 0,144,145
 639 287 639 287 640 285 c 0,146,147
 644 281 644 281 634 270 c 0,148,149
 631 267 631 267 624 267 c 0,150,151
 611 267 611 267 609 263 c 0,152,153
 608 261 608 261 612 257 c 0,154,155
 624 247 624 247 625 243 c 0,156,157
 626 240 626 240 628 239 c 128,-1,158
 630 238 630 238 630 234.5 c 128,-1,159
 630 231 630 231 624.5 225 c 128,-1,160
 619 219 619 219 614 219 c 128,-1,161
 609 219 609 219 605.5 222 c 128,-1,162
 602 225 602 225 600.5 225 c 128,-1,163
 599 225 599 225 599 227 c 0,164,165
 597 232 597 232 592 231 c 0,166,167
 588 229 588 229 588 222 c 0,168,169
 588 218 588 218 585.5 216.5 c 128,-1,170
 583 215 583 215 581 211 c 128,-1,171
 579 207 579 207 573.5 207 c 128,-1,76
 568 207 568 207 567.5 209 c 128,-1,77
371.5 248 m 128,-1,173
 367 253 367 253 365.5 254.5 c 128,-1,174
 364 256 364 256 363 266 c 128,-1,175
 362 276 362 276 360 278.5 c 128,-1,176
 358 281 358 281 358 301 c 128,-1,177
 358 321 358 321 359 323 c 0,178,179
 362 328 362 328 363 364 c 0,180,181
 364 388 364 388 366 390 c 0,182,183
 369 393 369 393 370 410 c 0,184,185
 370 420 370 420 372 420 c 0,186,187
 375 422 375 422 376 437 c 0,188,189
 376 446 376 446 378 448.5 c 128,-1,190
 380 451 380 451 381 457 c 128,-1,191
 382 463 382 463 384.5 467.5 c 128,-1,192
 387 472 387 472 387.5 477.5 c 128,-1,193
 388 483 388 483 390 485 c 128,-1,194
 392 487 392 487 393.5 490.5 c 128,-1,195
 395 494 395 494 396 495 c 128,-1,196
 397 496 397 496 398.5 499.5 c 128,-1,197
 400 503 400 503 403 504 c 0,198,199
 408 509 408 509 405 517 c 0,200,201
 404 520 404 520 402 522 c 128,-1,202
 400 524 400 524 400 538.5 c 128,-1,203
 400 553 400 553 402.5 556 c 128,-1,204
 405 559 405 559 405 561 c 128,-1,205
 405 563 405 563 408 566.5 c 128,-1,206
 411 570 411 570 412 571 c 0,207,208
 412 573 412 573 418 577.5 c 128,-1,209
 424 582 424 582 428 583 c 0,210,211
 433 584 433 584 435 585.5 c 128,-1,212
 437 587 437 587 450 588 c 2,213,-1
 462 588 l 1,214,-1
 465 584 l 2,215,216
 469 580 469 580 469 579 c 0,217,218
 469 577 469 577 478 565 c 0,219,220
 480 563 480 563 480.5 560.5 c 128,-1,221
 481 558 481 558 483 557 c 128,-1,222
 485 556 485 556 486.5 551 c 128,-1,223
 488 546 488 546 490 545 c 128,-1,224
 492 544 492 544 492 535 c 128,-1,225
 492 526 492 526 491 523 c 0,226,227
 488 518 488 518 487 514 c 0,228,229
 486 511 486 511 483 508 c 128,-1,230
 480 505 480 505 480 504 c 256,231,232
 480 503 480 503 474.5 499 c 128,-1,233
 469 495 469 495 465 494 c 0,234,235
 460 493 460 493 458 492 c 0,236,237
 456 490 456 490 449 490 c 128,-1,238
 442 490 442 490 440 492 c 0,239,240
 434 496 434 496 430 494.5 c 128,-1,241
 426 493 426 493 426 488 c 0,242,243
 426 484 426 484 423.5 481.5 c 128,-1,244
 421 479 421 479 420.5 475.5 c 128,-1,245
 420 472 420 472 419.5 469 c 128,-1,246
 419 466 419 466 417 464 c 128,-1,247
 415 462 415 462 414 455.5 c 128,-1,248
 413 449 413 449 411 446.5 c 128,-1,249
 409 444 409 444 408 434 c 128,-1,250
 407 424 407 424 405 421.5 c 128,-1,251
 403 419 403 419 401.5 408 c 128,-1,252
 400 397 400 397 398.5 393 c 128,-1,253
 397 389 397 389 396 371 c 128,-1,254
 395 353 395 353 394 351 c 0,255,256
 391 346 391 346 390 291 c 0,257,258
 390 249 390 249 389.5 248.5 c 128,-1,259
 389 248 389 248 387 248 c 128,-1,260
 385 248 385 248 384 245.5 c 128,-1,261
 383 243 383 243 379.5 243 c 128,-1,172
 376 243 376 243 371.5 248 c 128,-1,173
EndSplineSet
EndChar

StartChar: E
Encoding: 69 69 7
Width: 1000
GlyphClass: 1
Flags: W
LayerCount: 2
Fore
SplineSet
380.5 9 m 128,-1,1
 377 10 377 10 373 12 c 128,-1,2
 369 14 369 14 340 15 c 128,-1,3
 311 16 311 16 307 18 c 0,4,5
 300 22 300 22 272 22 c 0,6,7
 258 22 258 22 254 25 c 128,-1,8
 250 28 250 28 247.5 28 c 128,-1,9
 245 28 245 28 240.5 33.5 c 128,-1,10
 236 39 236 39 236 43 c 0,11,12
 236 53 236 53 241 55 c 0,13,14
 244 56 244 56 246.5 59 c 128,-1,15
 249 62 249 62 269.5 61.5 c 128,-1,16
 290 61 290 61 297.5 58.5 c 128,-1,17
 305 56 305 56 334.5 55 c 128,-1,18
 364 54 364 54 370 51 c 0,19,20
 379 47 379 47 457 47 c 0,21,22
 535 46 535 46 544 51 c 0,23,24
 548 54 548 54 575 54.5 c 128,-1,25
 602 55 602 55 608.5 57.5 c 128,-1,26
 615 60 615 60 641.5 61.5 c 128,-1,27
 668 63 668 63 673 65.5 c 128,-1,28
 678 68 678 68 692.5 69 c 128,-1,29
 707 70 707 70 716.5 71 c 128,-1,30
 726 72 726 72 738 70 c 128,-1,31
 750 68 750 68 754 64 c 2,32,-1
 758 59 l 1,33,-1
 756 56 l 2,34,35
 754 52 754 52 752.5 49 c 128,-1,36
 751 46 751 46 746.5 44 c 128,-1,37
 742 42 742 42 739.5 39.5 c 128,-1,38
 737 37 737 37 730 37 c 0,39,40
 716 37 716 37 709 32 c 0,41,42
 706 30 706 30 691 29.5 c 128,-1,43
 676 29 676 29 670.5 26 c 128,-1,44
 665 23 665 23 641 22 c 0,45,46
 608 21 608 21 602 17 c 0,47,48
 599 16 599 16 571 15 c 128,-1,49
 543 14 543 14 538 12 c 2,50,-1
 533 9 l 1,51,-1
 458 8 l 2,52,0
 384 8 384 8 380.5 9 c 128,-1,1
619.5 228.5 m 128,-1,54
 618 231 618 231 614.5 232 c 128,-1,55
 611 233 611 233 609 235.5 c 128,-1,56
 607 238 607 238 604 239 c 128,-1,57
 601 240 601 240 599 247 c 128,-1,58
 597 254 597 254 595.5 255 c 128,-1,59
 594 256 594 256 594 265.5 c 128,-1,60
 594 275 594 275 596.5 277.5 c 128,-1,61
 599 280 599 280 599 285 c 0,62,63
 600 292 600 292 610 303 c 0,64,65
 618 312 618 312 623.5 314.5 c 128,-1,66
 629 317 629 317 641 316 c 256,67,68
 653 315 653 315 659.5 310.5 c 128,-1,69
 666 306 666 306 667.5 302 c 128,-1,70
 669 298 669 298 671.5 295 c 128,-1,71
 674 292 674 292 674 279 c 128,-1,72
 674 266 674 266 671.5 263 c 128,-1,73
 669 260 669 260 667.5 256 c 128,-1,74
 666 252 666 252 663 247 c 0,75,76
 659 243 659 243 653 237.5 c 128,-1,77
 647 232 647 232 646 232 c 0,78,79
 644 232 644 232 641 229 c 128,-1,80
 638 226 638 226 629.5 226 c 128,-1,53
 621 226 621 226 619.5 228.5 c 128,-1,54
333 232.5 m 128,-1,82
 331 233 331 233 328.5 236 c 128,-1,83
 326 239 326 239 323 239.5 c 128,-1,84
 320 240 320 240 315.5 244.5 c 128,-1,85
 311 249 311 249 309.5 252 c 128,-1,86
 308 255 308 255 307.5 259.5 c 128,-1,87
 307 264 307 264 304.5 266.5 c 128,-1,88
 302 269 302 269 302.5 273 c 128,-1,89
 303 277 303 277 305 279.5 c 128,-1,90
 307 282 307 282 308 290.5 c 128,-1,91
 309 299 309 299 313.5 303 c 128,-1,92
 318 307 318 307 321 310.5 c 128,-1,93
 324 314 324 314 333 315 c 0,94,95
 355 317 355 317 360 312 c 0,96,97
 362 309 362 309 366 309 c 0,98,99
 370 307 370 307 379 296 c 0,100,101
 382 292 382 292 383 285.5 c 128,-1,102
 384 279 384 279 386 276 c 0,103,104
 390 270 390 270 386 264 c 0,105,106
 383 260 383 260 382 254 c 0,107,108
 381 250 381 250 377 244.5 c 128,-1,109
 373 239 373 239 372 239 c 256,110,111
 371 239 371 239 367.5 236 c 128,-1,112
 364 233 364 233 349.5 232.5 c 128,-1,81
 335 232 335 232 333 232.5 c 128,-1,82
734 480 m 0,113,114
 732 481 732 481 729 483 c 128,-1,115
 726 485 726 485 718 485.5 c 128,-1,116
 710 486 710 486 706 489 c 128,-1,117
 702 492 702 492 691.5 493 c 128,-1,118
 681 494 681 494 675.5 497 c 128,-1,119
 670 500 670 500 656.5 500.5 c 128,-1,120
 643 501 643 501 639 504 c 128,-1,121
 635 507 635 507 621.5 508 c 128,-1,122
 608 509 608 509 604 511.5 c 128,-1,123
 600 514 600 514 584 515 c 128,-1,124
 568 516 568 516 565.5 518.5 c 128,-1,125
 563 521 563 521 544 522 c 128,-1,126
 525 523 525 523 522 525 c 0,127,128
 514 530 514 530 461.5 529.5 c 128,-1,129
 409 529 409 529 400 525 c 0,130,131
 398 523 398 523 382 522 c 128,-1,132
 366 521 366 521 360.5 518 c 128,-1,133
 355 515 355 515 345 515 c 0,134,135
 329 515 329 515 325 511 c 0,136,137
 323 509 323 509 307.5 507.5 c 128,-1,138
 292 506 292 506 289.5 503.5 c 128,-1,139
 287 501 287 501 271 501 c 2,140,-1
 256 500 l 1,141,-1
 251 504 l 2,142,143
 247 508 247 508 246 508 c 256,144,145
 245 508 245 508 244.5 510 c 128,-1,146
 244 512 244 512 244.5 514.5 c 128,-1,147
 245 517 245 517 247 518 c 0,148,149
 249 521 249 521 251 523 c 256,150,151
 253 525 253 525 256 528 c 0,152,153
 259 532 259 532 265 533 c 128,-1,154
 271 534 271 534 275 536.5 c 128,-1,155
 279 539 279 539 286.5 540 c 128,-1,156
 294 541 294 541 296 543 c 128,-1,157
 298 545 298 545 311.5 546.5 c 128,-1,158
 325 548 325 548 329 550.5 c 128,-1,159
 333 553 333 553 346 554 c 128,-1,160
 359 555 359 555 364.5 557.5 c 128,-1,161
 370 560 370 560 389.5 561 c 128,-1,162
 409 562 409 562 411 563 c 0,163,164
 416 568 416 568 460 568 c 0,165,166
 500 568 500 568 514 564 c 0,167,168
 520 562 520 562 538 561 c 128,-1,169
 556 560 556 560 562 557.5 c 128,-1,170
 568 555 568 555 581 554 c 128,-1,171
 594 553 594 553 599 550.5 c 128,-1,172
 604 548 604 548 618.5 546.5 c 128,-1,173
 633 545 633 545 637.5 542.5 c 128,-1,174
 642 540 642 540 655 539.5 c 128,-1,175
 668 539 668 539 672 537 c 0,176,177
 679 532 679 532 695 532 c 0,178,179
 700 532 700 532 705 529 c 128,-1,180
 710 526 710 526 717 525 c 128,-1,181
 724 524 724 524 729 521.5 c 128,-1,182
 734 519 734 519 740 518 c 0,183,184
 751 516 751 516 758 507 c 0,185,186
 759 505 759 505 761.5 503.5 c 128,-1,187
 764 502 764 502 764 495 c 0,188,189
 764 486 764 486 759 486 c 0,190,191
 756 486 756 486 748 483 c 0,192,193
 738 478 738 478 734 480 c 0,113,114
EndSplineSet
EndChar

StartChar: F
Encoding: 70 70 8
Width: 1000
GlyphClass: 1
Flags: W
LayerCount: 2
Fore
SplineSet
204 9 m 0,0,1
 200 10 200 10 197.5 12.5 c 128,-1,2
 195 15 195 15 194 15 c 0,3,4
 190 15 190 15 190 28 c 0,5,6
 190 36 190 36 194.5 42.5 c 128,-1,7
 199 49 199 49 199 50.5 c 128,-1,8
 199 52 199 52 203 56 c 128,-1,9
 207 60 207 60 208 64 c 128,-1,10
 209 68 209 68 211 68.5 c 128,-1,11
 213 69 213 69 215.5 76 c 128,-1,12
 218 83 218 83 220.5 86.5 c 128,-1,13
 223 90 223 90 224 95 c 128,-1,14
 225 100 225 100 228.5 104 c 128,-1,15
 232 108 232 108 233.5 117.5 c 128,-1,16
 235 127 235 127 236 127 c 0,17,18
 239 127 239 127 241 142 c 0,19,20
 243 151 243 151 246 157 c 128,-1,21
 249 163 249 163 250.5 177 c 128,-1,22
 252 191 252 191 254.5 193.5 c 128,-1,23
 257 196 257 196 259 215 c 0,24,25
 260 238 260 238 258.5 247 c 128,-1,26
 257 256 257 256 251 258 c 0,27,28
 246 259 246 259 239.5 266.5 c 128,-1,29
 233 274 233 274 229 278 c 2,30,-1
 225 282 l 1,31,-1
 225 299 l 2,32,33
 225 316 225 316 227.5 318 c 128,-1,34
 230 320 230 320 232 324 c 0,35,36
 235 330 235 330 248 336 c 0,37,38
 253 338 253 338 256.5 340 c 128,-1,39
 260 342 260 342 274 341.5 c 128,-1,40
 288 341 288 341 295 337 c 0,41,42
 304 333 304 333 312 325 c 0,43,44
 320 318 320 318 321.5 313 c 128,-1,45
 323 308 323 308 322 296 c 0,46,47
 322 284 322 284 317 279 c 128,-1,48
 312 274 312 274 312 272 c 128,-1,49
 312 270 312 270 308.5 266 c 128,-1,50
 305 262 305 262 305 260 c 0,51,52
 304 209 304 209 301 201 c 128,-1,53
 298 193 298 193 296.5 179 c 128,-1,54
 295 165 295 165 294 164 c 0,55,56
 290 159 290 159 288 140 c 0,57,58
 287 132 287 132 284 129.5 c 128,-1,59
 281 127 281 127 279.5 117 c 128,-1,60
 278 107 278 107 276 104.5 c 128,-1,61
 274 102 274 102 271.5 94 c 128,-1,62
 269 86 269 86 267 84 c 128,-1,63
 265 82 265 82 263 74.5 c 128,-1,64
 261 67 261 67 259 65 c 128,-1,65
 257 63 257 63 254.5 57 c 128,-1,66
 252 51 252 51 250 50 c 128,-1,67
 248 49 248 49 246 43 c 0,68,69
 245 37 245 37 236 26.5 c 128,-1,70
 227 16 227 16 221 12 c 0,71,72
 213 8 213 8 204 9 c 0,0,1
531 283 m 0,73,74
 528 284 528 284 526.5 286 c 128,-1,75
 525 288 525 288 520 289.5 c 128,-1,76
 515 291 515 291 514 293.5 c 128,-1,77
 513 296 513 296 510 298 c 2,78,-1
 506 301 l 1,79,-1
 507 320 l 2,80,81
 507 339 507 339 510.5 341.5 c 128,-1,82
 514 344 514 344 514 345.5 c 128,-1,83
 514 347 514 347 520 353 c 128,-1,84
 526 359 526 359 530 359 c 128,-1,85
 534 359 534 359 538 362.5 c 128,-1,86
 542 366 542 366 554 366 c 2,87,-1
 566 366 l 1,88,-1
 576 358 l 2,89,90
 587 349 587 349 591 343.5 c 128,-1,91
 595 338 595 338 595 323 c 128,-1,92
 595 308 595 308 591.5 302.5 c 128,-1,93
 588 297 588 297 587 294.5 c 128,-1,94
 586 292 586 292 578.5 288.5 c 128,-1,95
 571 285 571 285 568 283 c 0,96,97
 566 282 566 282 550.5 281.5 c 128,-1,98
 535 281 535 281 531 283 c 0,73,74
335.5 519 m 128,-1,100
 328 522 328 522 307 522.5 c 128,-1,101
 286 523 286 523 276.5 527 c 128,-1,102
 267 531 267 531 263.5 531 c 128,-1,103
 260 531 260 531 257.5 533.5 c 128,-1,104
 255 536 255 536 250 538.5 c 128,-1,105
 245 541 245 541 239.5 545 c 128,-1,106
 234 549 234 549 234 558 c 0,107,108
 234 565 234 565 234.5 566 c 128,-1,109
 235 567 235 567 238 568 c 0,110,111
 242 569 242 569 244.5 571.5 c 128,-1,112
 247 574 247 574 257.5 574 c 128,-1,113
 268 574 268 574 270 572 c 0,114,115
 276 568 276 568 298 566 c 0,116,117
 313 565 313 565 319 563 c 0,118,119
 335 557 335 557 389.5 557.5 c 128,-1,120
 444 558 444 558 461 564 c 0,121,122
 467 566 467 566 481.5 566 c 128,-1,123
 496 566 496 566 507.5 569.5 c 128,-1,124
 519 573 519 573 531 574 c 128,-1,125
 543 575 543 575 550.5 578.5 c 128,-1,126
 558 582 558 582 567.5 582.5 c 128,-1,127
 577 583 577 583 584.5 586.5 c 128,-1,128
 592 590 592 590 596 590 c 0,129,130
 607 590 607 590 614 595 c 0,131,132
 616 597 616 597 622.5 598 c 128,-1,133
 629 599 629 599 636 602 c 128,-1,134
 643 605 643 605 650.5 607.5 c 128,-1,135
 658 610 658 610 659.5 611.5 c 128,-1,136
 661 613 661 613 667 614 c 128,-1,137
 673 615 673 615 681 619 c 128,-1,138
 689 623 689 623 693.5 624 c 128,-1,139
 698 625 698 625 701 627 c 128,-1,140
 704 629 704 629 712 631.5 c 128,-1,141
 720 634 720 634 724.5 636.5 c 128,-1,142
 729 639 729 639 732.5 640 c 128,-1,143
 736 641 736 641 739.5 643 c 128,-1,144
 743 645 743 645 751 647.5 c 128,-1,145
 759 650 759 650 761.5 652.5 c 128,-1,146
 764 655 764 655 768.5 656 c 128,-1,147
 773 657 773 657 776.5 659.5 c 128,-1,148
 780 662 780 662 788 663 c 0,149,150
 801 664 801 664 805.5 660.5 c 128,-1,151
 810 657 810 657 810 647 c 0,152,153
 810 632 810 632 795 623 c 0,154,155
 787 618 787 618 783.5 615.5 c 128,-1,156
 780 613 780 613 771.5 610 c 128,-1,157
 763 607 763 607 762.5 606 c 128,-1,158
 762 605 762 605 754 603.5 c 128,-1,159
 746 602 746 602 743 599.5 c 128,-1,160
 740 597 740 597 734.5 595 c 128,-1,161
 729 593 729 593 722.5 590 c 128,-1,162
 716 587 716 587 714.5 587 c 128,-1,163
 713 587 713 587 708 584 c 128,-1,164
 703 581 703 581 695 579.5 c 128,-1,165
 687 578 687 578 683.5 575 c 128,-1,166
 680 572 680 572 672 571 c 128,-1,167
 664 570 664 570 657.5 566.5 c 128,-1,168
 651 563 651 563 647 563 c 128,-1,169
 643 563 643 563 639 560 c 128,-1,170
 635 557 635 557 624.5 555.5 c 128,-1,171
 614 554 614 554 608.5 551 c 128,-1,172
 603 548 603 548 599 548 c 0,173,174
 587 548 587 548 576 542 c 0,175,176
 573 540 573 540 562 539.5 c 128,-1,177
 551 539 551 539 542 536 c 128,-1,178
 533 533 533 533 520 532 c 128,-1,179
 507 531 507 531 500 528 c 128,-1,180
 493 525 493 525 476.5 524 c 128,-1,181
 460 523 460 523 446.5 520 c 128,-1,182
 433 517 433 517 388 516.5 c 128,-1,99
 343 516 343 516 335.5 519 c 128,-1,100
EndSplineSet
EndChar

StartChar: G
Encoding: 71 71 9
Width: 1000
GlyphClass: 1
Flags: W
LayerCount: 2
Fore
SplineSet
536 14 m 0,0,1
 534 15 534 15 533 15 c 0,2,3
 527 15 527 15 523 23 c 0,4,5
 521 26 521 26 517 29 c 128,-1,6
 513 32 513 32 507 31 c 0,7,8
 490 28 490 28 478 34 c 0,9,10
 473 36 473 36 464 37 c 128,-1,11
 455 38 455 38 450 40 c 128,-1,12
 445 42 445 42 437.5 43 c 128,-1,13
 430 44 430 44 427.5 46 c 128,-1,14
 425 48 425 48 418.5 49.5 c 128,-1,15
 412 51 412 51 410 52.5 c 128,-1,16
 408 54 408 54 402 55.5 c 128,-1,17
 396 57 396 57 394.5 59 c 128,-1,18
 393 61 393 61 388.5 62.5 c 128,-1,19
 384 64 384 64 383 66 c 128,-1,20
 382 68 382 68 378 69.5 c 128,-1,21
 374 71 374 71 374 72 c 128,-1,22
 374 73 374 73 370.5 74.5 c 128,-1,23
 367 76 367 76 365.5 78 c 128,-1,24
 364 80 364 80 354 89 c 0,25,26
 341 101 341 101 334 111 c 0,27,28
 332 115 332 115 330 117 c 0,29,30
 323 124 323 124 320 130 c 0,31,32
 318 134 318 134 317 135 c 128,-1,33
 316 136 316 136 315.5 139.5 c 128,-1,34
 315 143 315 143 312 146 c 128,-1,35
 309 149 309 149 309 152 c 0,36,37
 309 156 309 156 305 160 c 0,38,39
 303 162 303 162 302 167.5 c 128,-1,40
 301 173 301 173 299 175.5 c 128,-1,41
 297 178 297 178 296 183 c 0,42,43
 294 191 294 191 292 192 c 0,44,45
 291 193 291 193 289 202.5 c 128,-1,46
 287 212 287 212 285 214 c 128,-1,47
 283 216 283 216 283 226 c 0,48,49
 281 242 281 242 279 247 c 0,50,51
 277 250 277 250 277 279 c 128,-1,52
 277 308 277 308 278.5 310.5 c 128,-1,53
 280 313 280 313 282 318.5 c 128,-1,54
 284 324 284 324 286.5 326 c 128,-1,55
 289 328 289 328 289 330 c 0,56,57
 291 335 291 335 301 333 c 0,58,59
 305 333 305 333 307.5 325.5 c 128,-1,60
 310 318 310 318 309.5 308 c 128,-1,61
 309 298 309 298 310 281 c 128,-1,62
 311 264 311 264 312 250 c 0,63,64
 313 233 313 233 316 229 c 0,65,66
 318 228 318 228 318.5 218 c 128,-1,67
 319 208 319 208 321.5 205 c 128,-1,68
 324 202 324 202 325 195 c 128,-1,69
 326 188 326 188 328.5 186 c 128,-1,70
 331 184 331 184 331 181 c 0,71,72
 333 173 333 173 335 172 c 256,73,74
 337 171 337 171 338 166.5 c 128,-1,75
 339 162 339 162 341 159.5 c 128,-1,76
 343 157 343 157 344.5 152.5 c 128,-1,77
 346 148 346 148 348 147 c 256,78,79
 350 146 350 146 357 134 c 0,80,81
 363 125 363 125 378 110.5 c 128,-1,82
 393 96 393 96 400 93 c 0,83,84
 404 92 404 92 407 89.5 c 128,-1,85
 410 87 410 87 412 87 c 0,86,87
 416 87 416 87 420 83 c 0,88,89
 423 81 423 81 430.5 79.5 c 128,-1,90
 438 78 438 78 441.5 76 c 128,-1,91
 445 74 445 74 453.5 73 c 128,-1,92
 462 72 462 72 467 69.5 c 128,-1,93
 472 67 472 67 482.5 66 c 128,-1,94
 493 65 493 65 496 63 c 128,-1,95
 499 61 499 61 502 61 c 0,96,97
 508 61 508 61 513 56 c 0,98,99
 521 50 521 50 528 57 c 256,100,101
 535 64 535 64 551 60 c 0,102,103
 558 59 558 59 558.5 57.5 c 128,-1,104
 559 56 559 56 561.5 53.5 c 128,-1,105
 564 51 564 51 565 48 c 256,106,107
 566 45 566 45 566 39 c 128,-1,108
 566 33 566 33 565 31 c 0,109,110
 564 28 564 28 559 23 c 128,-1,111
 554 18 554 18 550 16 c 256,112,113
 546 14 546 14 545.5 13 c 128,-1,114
 545 12 545 12 541.5 12 c 128,-1,115
 538 12 538 12 536 14 c 0,0,1
541 111 m 0,116,117
 537 113 537 113 534 115 c 0,118,119
 530 117 530 117 528 130 c 0,120,121
 527 140 527 140 522 141 c 0,122,123
 516 142 516 142 511 138 c 0,124,125
 509 136 509 136 504 132.5 c 128,-1,126
 499 129 499 129 492 129 c 128,-1,127
 485 129 485 129 483 133 c 128,-1,128
 481 137 481 137 482.5 142 c 128,-1,129
 484 147 484 147 484.5 149.5 c 128,-1,130
 485 152 485 152 488 155 c 0,131,132
 493 160 493 160 493 168 c 0,133,134
 493 173 493 173 483 173 c 0,135,136
 477 173 477 173 470 179 c 0,137,138
 466 182 466 182 466 187 c 128,-1,139
 466 192 466 192 469 195 c 0,140,141
 476 202 476 202 484 202 c 0,142,143
 496 203 496 203 496 207 c 0,144,145
 496 209 496 209 494 211 c 0,146,147
 491 214 491 214 491 215 c 128,-1,148
 491 216 491 216 488 218.5 c 128,-1,149
 485 221 485 221 484 230 c 0,150,151
 484 237 484 237 484.5 239 c 128,-1,152
 485 241 485 241 491 245 c 0,153,154
 498 249 498 249 501 247 c 0,155,156
 504 244 504 244 516 237 c 0,157,158
 519 235 519 235 521 237 c 128,-1,159
 523 239 523 239 523 246 c 0,160,161
 524 255 524 255 527 256 c 256,162,163
 530 257 530 257 531 259 c 128,-1,164
 532 261 532 261 537.5 260.5 c 128,-1,165
 543 260 543 260 547.5 255.5 c 128,-1,166
 552 251 552 251 552 247 c 0,167,168
 554 236 554 236 558 236 c 0,169,170
 561 236 561 236 562.5 238.5 c 128,-1,171
 564 241 564 241 566.5 242 c 128,-1,172
 569 243 569 243 569.5 245 c 128,-1,173
 570 247 570 247 573 248 c 128,-1,174
 576 249 576 249 579.5 252.5 c 128,-1,175
 583 256 583 256 586 256.5 c 128,-1,176
 589 257 589 257 589 258 c 0,177,178
 590 259 590 259 591.5 258.5 c 128,-1,179
 593 258 593 258 596 256.5 c 128,-1,180
 599 255 599 255 601 253 c 0,181,182
 606 248 606 248 601 242 c 0,183,184
 599 238 599 238 598 234 c 0,185,186
 597 229 597 229 588 219 c 0,187,188
 585 216 585 216 586 212 c 0,189,190
 588 207 588 207 601 204 c 0,191,192
 606 204 606 204 610 198 c 0,193,194
 618 189 618 189 605 179 c 0,195,196
 601 175 601 175 592 175 c 0,197,198
 580 174 580 174 580 169 c 0,199,200
 580 168 580 168 584 163.5 c 128,-1,201
 588 159 588 159 590 159 c 256,202,203
 592 159 592 159 598 148 c 0,204,205
 602 141 602 141 599 134 c 0,206,207
 597 131 597 131 594 126.5 c 128,-1,208
 591 122 591 122 588 122.5 c 128,-1,209
 585 123 585 123 583.5 124.5 c 128,-1,210
 582 126 582 126 578.5 127 c 128,-1,211
 575 128 575 128 570 133.5 c 128,-1,212
 565 139 565 139 563 138 c 0,213,214
 560 137 560 137 558 128 c 0,215,216
 558 124 558 124 556.5 122.5 c 128,-1,217
 555 121 555 121 554 118 c 128,-1,218
 553 115 553 115 551 114.5 c 128,-1,219
 549 114 549 114 547 111 c 256,220,221
 545 108 545 108 541 111 c 0,116,117
541.5 294.5 m 128,-1,223
 539 297 539 297 535.5 297 c 128,-1,224
 532 297 532 297 528 300.5 c 128,-1,225
 524 304 524 304 523.5 312 c 128,-1,226
 523 320 523 320 523.5 323 c 128,-1,227
 524 326 524 326 527.5 330 c 128,-1,228
 531 334 531 334 533.5 334 c 128,-1,229
 536 334 536 334 538 336 c 128,-1,230
 540 338 540 338 546 338.5 c 128,-1,231
 552 339 552 339 554 337 c 128,-1,232
 556 335 556 335 560.5 332.5 c 128,-1,233
 565 330 565 330 565 325 c 0,234,235
 566 321 566 321 565.5 313.5 c 128,-1,236
 565 306 565 306 564 305.5 c 128,-1,237
 563 305 563 305 559.5 302.5 c 128,-1,238
 556 300 556 300 552 298 c 128,-1,239
 548 296 548 296 546 294 c 128,-1,222
 544 292 544 292 541.5 294.5 c 128,-1,223
305.5 371.5 m 128,-1,241
 303 374 303 374 302.5 376.5 c 128,-1,242
 302 379 302 379 300.5 385.5 c 128,-1,243
 299 392 299 392 299 395 c 0,244,245
 303 417 303 417 305 420 c 0,246,247
 307 422 307 422 308.5 428 c 128,-1,248
 310 434 310 434 312 436 c 128,-1,249
 314 438 314 438 314.5 441 c 128,-1,250
 315 444 315 444 317.5 447.5 c 128,-1,251
 320 451 320 451 321.5 454 c 128,-1,252
 323 457 323 457 324 458 c 0,253,254
 335 472 335 472 335 474 c 0,255,256
 335 475 335 475 337.5 476 c 128,-1,257
 340 477 340 477 341.5 480 c 128,-1,258
 343 483 343 483 344 483 c 128,-1,259
 345 483 345 483 346 486 c 0,260,261
 348 489 348 489 363 503.5 c 128,-1,262
 378 518 378 518 386 526 c 0,263,264
 390 529 390 529 393.5 532 c 128,-1,265
 397 535 397 535 400.5 537.5 c 128,-1,266
 404 540 404 540 408.5 543.5 c 128,-1,267
 413 547 413 547 416.5 548.5 c 128,-1,268
 420 550 420 550 420 551 c 128,-1,269
 420 552 420 552 425 555 c 0,270,271
 440 563 440 563 442 564 c 0,272,273
 443 566 443 566 448.5 567.5 c 128,-1,274
 454 569 454 569 456.5 571 c 128,-1,275
 459 573 459 573 465 574 c 128,-1,276
 471 575 471 575 475.5 577.5 c 128,-1,277
 480 580 480 580 486.5 580.5 c 128,-1,278
 493 581 493 581 497.5 583.5 c 128,-1,279
 502 586 502 586 526 587 c 0,280,281
 574 588 574 588 579 584 c 0,282,283
 580 582 580 582 588 580.5 c 128,-1,284
 596 579 596 579 598 577 c 128,-1,285
 600 575 600 575 605 574 c 128,-1,286
 610 573 610 573 614.5 570 c 128,-1,287
 619 567 619 567 620 567 c 128,-1,288
 621 567 621 567 624 564.5 c 128,-1,289
 627 562 627 562 628.5 562 c 128,-1,290
 630 562 630 562 634.5 558 c 128,-1,291
 639 554 639 554 640 554 c 0,292,293
 644 554 644 554 660.5 539 c 128,-1,294
 677 524 677 524 685 513 c 0,295,296
 689 507 689 507 692.5 503.5 c 128,-1,297
 696 500 696 500 696 498.5 c 128,-1,298
 696 497 696 497 698 494.5 c 128,-1,299
 700 492 700 492 702 488.5 c 128,-1,300
 704 485 704 485 705.5 483 c 128,-1,301
 707 481 707 481 709 476.5 c 128,-1,302
 711 472 711 472 712.5 470.5 c 128,-1,303
 714 469 714 469 716 463.5 c 128,-1,304
 718 458 718 458 719 456 c 0,305,306
 722 454 722 454 723 441 c 128,-1,307
 724 428 724 428 722 424 c 0,308,309
 720 421 720 421 713 420 c 2,310,-1
 706 420 l 1,311,-1
 700 427 l 2,312,313
 693 433 693 433 692.5 437.5 c 128,-1,314
 692 442 692 442 689.5 444.5 c 128,-1,315
 687 447 687 447 686 451.5 c 128,-1,316
 685 456 685 456 683 458 c 128,-1,317
 681 460 681 460 679.5 465 c 128,-1,318
 678 470 678 470 676 471 c 128,-1,319
 674 472 674 472 673 475.5 c 128,-1,320
 672 479 672 479 670 479.5 c 128,-1,321
 668 480 668 480 667 482.5 c 128,-1,322
 666 485 666 485 661.5 490.5 c 128,-1,323
 657 496 657 496 655 498 c 128,-1,324
 653 500 653 500 649.5 504 c 128,-1,325
 646 508 646 508 646 508.5 c 128,-1,326
 646 509 646 509 641.5 513 c 128,-1,327
 637 517 637 517 636.5 517 c 128,-1,328
 636 517 636 517 631 521 c 0,329,330
 621 530 621 530 617 531 c 0,331,332
 615 532 615 532 611.5 534.5 c 128,-1,333
 608 537 608 537 605.5 537.5 c 128,-1,334
 603 538 603 538 600 541 c 128,-1,335
 597 544 597 544 593 544.5 c 128,-1,336
 589 545 589 545 586 547.5 c 128,-1,337
 583 550 583 550 578 550 c 0,338,339
 569 552 569 552 554 555 c 0,340,341
 544 557 544 557 533.5 556.5 c 128,-1,342
 523 556 523 556 519 554.5 c 128,-1,343
 515 553 515 553 502.5 551.5 c 128,-1,344
 490 550 490 550 485 547.5 c 128,-1,345
 480 545 480 545 476 544.5 c 128,-1,346
 472 544 472 544 468.5 541.5 c 128,-1,347
 465 539 465 539 460 537.5 c 128,-1,348
 455 536 455 536 453 534 c 128,-1,349
 451 532 451 532 448 531.5 c 128,-1,350
 445 531 445 531 443 528.5 c 128,-1,351
 441 526 441 526 438 525 c 128,-1,352
 435 524 435 524 431.5 521 c 128,-1,353
 428 518 428 518 427 518 c 128,-1,354
 426 518 426 518 424 515.5 c 128,-1,355
 422 513 422 513 419.5 512 c 128,-1,356
 417 511 417 511 416 508.5 c 128,-1,357
 415 506 415 506 413 506 c 0,358,359
 408 506 408 506 390 485 c 0,360,361
 387 483 387 483 380 476 c 0,362,363
 364 460 364 460 364 456 c 0,364,365
 364 455 364 455 361.5 453.5 c 128,-1,366
 359 452 359 452 358 449 c 128,-1,367
 357 446 357 446 356 446 c 128,-1,368
 355 446 355 446 352 442 c 128,-1,369
 349 438 349 438 347 435 c 128,-1,370
 345 432 345 432 345 430 c 128,-1,371
 345 428 345 428 342 425.5 c 128,-1,372
 339 423 339 423 339 421 c 0,373,374
 339 414 339 414 334 410 c 0,375,376
 333 409 333 409 332 403.5 c 128,-1,377
 331 398 331 398 328.5 395.5 c 128,-1,378
 326 393 326 393 326 393 c 1,379,380
 326 385 326 385 321 378 c 0,381,382
 319 375 319 375 319 373 c 0,383,384
 319 369 319 369 312 369 c 0,385,240
 308 369 308 369 305.5 371.5 c 128,-1,241
EndSplineSet
EndChar

StartChar: H
Encoding: 72 72 10
Width: 1000
GlyphClass: 1
Flags: W
LayerCount: 2
Fore
SplineSet
685 16.5 m 128,-1,1
 682 17 682 17 677 26 c 2,2,-1
 672 35 l 1,3,-1
 672 58 l 2,4,5
 672 82 672 82 675 88 c 0,6,7
 679 97 679 97 680 119 c 0,8,9
 682 136 682 136 685 146 c 128,-1,10
 688 156 688 156 689 181 c 128,-1,11
 690 206 690 206 693 211.5 c 128,-1,12
 696 217 696 217 694.5 224 c 128,-1,13
 693 231 693 231 693 250 c 0,14,15
 693 281 693 281 685 284 c 0,16,17
 680 286 680 286 678.5 288 c 128,-1,18
 677 290 677 290 672 292 c 0,19,20
 668 294 668 294 659 303 c 128,-1,21
 650 312 650 312 650 314 c 0,22,23
 650 315 650 315 647 317.5 c 128,-1,24
 644 320 644 320 644.5 332.5 c 128,-1,25
 645 345 645 345 647 346.5 c 128,-1,26
 649 348 649 348 650.5 352.5 c 128,-1,27
 652 357 652 357 661.5 365 c 128,-1,28
 671 373 671 373 676.5 375 c 128,-1,29
 682 377 682 377 687 380 c 128,-1,30
 692 383 692 383 699 382 c 128,-1,31
 706 381 706 381 709 379 c 128,-1,32
 712 377 712 377 720 375 c 128,-1,33
 728 373 728 373 730.5 370.5 c 128,-1,34
 733 368 733 368 734.5 368 c 128,-1,35
 736 368 736 368 738.5 364 c 128,-1,36
 741 360 741 360 744 357 c 0,37,38
 750 352 750 352 748 326 c 0,39,40
 747 312 747 312 744 308.5 c 128,-1,41
 741 305 741 305 740 300 c 128,-1,42
 739 295 739 295 739 236 c 128,-1,43
 739 177 739 177 736 173 c 0,44,45
 731 166 731 166 730 137 c 0,46,47
 729 116 729 116 726 113 c 0,48,49
 721 108 721 108 721 67 c 0,50,51
 720 37 720 37 717 34 c 128,-1,52
 714 31 714 31 712 28 c 0,53,54
 707 17 707 17 695 17 c 0,55,0
 688 16 688 16 685 16.5 c 128,-1,1
293 292 m 0,56,57
 280 293 280 293 276 297 c 0,58,59
 259 311 259 311 259 314 c 0,60,61
 259 316 259 316 257 319 c 0,62,63
 251 324 251 324 251 342 c 0,64,65
 251 364 251 364 255 366 c 0,66,67
 258 367 258 367 260 370.5 c 128,-1,68
 262 374 262 374 265.5 375 c 128,-1,69
 269 376 269 376 273 380 c 128,-1,70
 277 384 277 384 277 391 c 128,-1,71
 277 398 277 398 272.5 402 c 128,-1,72
 268 406 268 406 267 409.5 c 128,-1,73
 266 413 266 413 263.5 416.5 c 128,-1,74
 261 420 261 420 259.5 433 c 128,-1,75
 258 446 258 446 255 451 c 128,-1,76
 252 456 252 456 252 499 c 128,-1,77
 252 542 252 542 254 553 c 0,78,79
 255 563 255 563 257 572 c 0,80,81
 258 581 258 581 260 640 c 128,-1,82
 262 699 262 699 264 702.5 c 128,-1,83
 266 706 266 706 268 712.5 c 128,-1,84
 270 719 270 719 273 722.5 c 128,-1,85
 276 726 276 726 277.5 731.5 c 128,-1,86
 279 737 279 737 284.5 737.5 c 128,-1,87
 290 738 290 738 294 736 c 0,88,89
 299 734 299 734 302 720 c 0,90,91
 303 715 303 715 306 710.5 c 128,-1,92
 309 706 309 706 308 670 c 0,93,94
 307 629 307 629 303 601 c 0,95,96
 301 591 301 591 300 544.5 c 128,-1,97
 299 498 299 498 297.5 496 c 128,-1,98
 296 494 296 494 297.5 490.5 c 128,-1,99
 299 487 299 487 300 452 c 0,100,101
 301 415 301 415 306 409 c 0,102,103
 308 407 308 407 309 397 c 128,-1,104
 310 387 310 387 311.5 385.5 c 128,-1,105
 313 384 313 384 319.5 383 c 128,-1,106
 326 382 326 382 329 380 c 128,-1,107
 332 378 332 378 336 376 c 0,108,109
 342 373 342 373 352 360 c 0,110,111
 357 355 357 355 356 336 c 0,112,113
 355 321 355 321 351.5 317.5 c 128,-1,114
 348 314 348 314 345 308 c 0,115,116
 337 295 337 295 328 294 c 0,117,118
 314 291 314 291 293 292 c 0,56,57
512.5 453 m 128,-1,120
 508 457 508 457 504.5 457 c 128,-1,121
 501 457 501 457 496.5 461 c 128,-1,122
 492 465 492 465 491 465 c 128,-1,123
 490 465 490 465 487.5 470 c 128,-1,124
 485 475 485 475 483.5 475 c 128,-1,125
 482 475 482 475 478 486 c 0,126,127
 477 490 477 490 474 490.5 c 128,-1,128
 471 491 471 491 469.5 497 c 128,-1,129
 468 503 468 503 464 506.5 c 128,-1,130
 460 510 460 510 460 513.5 c 128,-1,131
 460 517 460 517 456.5 519.5 c 128,-1,132
 453 522 453 522 451.5 528 c 128,-1,133
 450 534 450 534 447 537.5 c 128,-1,134
 444 541 444 541 442 546.5 c 128,-1,135
 440 552 440 552 437.5 554.5 c 128,-1,136
 435 557 435 557 433.5 562.5 c 128,-1,137
 432 568 432 568 428.5 572 c 128,-1,138
 425 576 425 576 425 584 c 0,139,140
 425 596 425 596 430 599 c 0,141,142
 433 600 433 600 434.5 603 c 128,-1,143
 436 606 436 606 442 607.5 c 128,-1,144
 448 609 448 609 451 612.5 c 128,-1,145
 454 616 454 616 481.5 616 c 128,-1,146
 509 616 509 616 537.5 617.5 c 128,-1,147
 566 619 566 619 588.5 617.5 c 128,-1,148
 611 616 611 616 623 615.5 c 128,-1,149
 635 615 635 615 641 609 c 2,150,-1
 647 604 l 1,151,-1
 647 592 l 2,152,153
 647 582 647 582 645.5 579 c 128,-1,154
 644 576 644 576 637 568 c 0,155,156
 620 551 620 551 620 547 c 0,157,158
 620 544 620 544 616.5 543 c 128,-1,159
 613 542 613 542 611.5 539 c 128,-1,160
 610 536 610 536 601.5 527 c 128,-1,161
 593 518 593 518 592.5 514 c 128,-1,162
 592 510 592 510 588 506.5 c 128,-1,163
 584 503 584 503 581 499.5 c 128,-1,164
 578 496 578 496 575 491 c 128,-1,165
 572 486 572 486 568.5 483 c 128,-1,166
 565 480 565 480 565 478.5 c 128,-1,167
 565 477 565 477 562 474 c 0,168,169
 550 463 550 463 548 458 c 0,170,171
 543 449 543 449 527 449 c 0,172,119
 517 449 517 449 512.5 453 c 128,-1,120
534 514.5 m 128,-1,174
 536 519 536 519 539.5 522.5 c 128,-1,175
 543 526 543 526 543 527.5 c 128,-1,176
 543 529 543 529 551 537 c 128,-1,177
 559 545 559 545 561.5 550.5 c 128,-1,178
 564 556 564 556 567 557.5 c 128,-1,179
 570 559 570 559 570 563 c 0,180,181
 570 575 570 575 540 574 c 0,182,183
 527 573 527 573 525 572 c 128,-1,184
 523 571 523 571 509 570 c 0,185,186
 484 570 484 570 486 562 c 0,187,188
 486 560 486 560 488 558 c 0,189,190
 491 554 491 554 491 552.5 c 128,-1,191
 491 551 491 551 495.5 545.5 c 128,-1,192
 500 540 500 540 502 535 c 128,-1,193
 504 530 504 530 506 528.5 c 128,-1,194
 508 527 508 527 510.5 520.5 c 128,-1,195
 513 514 513 514 519.5 510 c 128,-1,196
 526 506 526 506 529 508 c 128,-1,173
 532 510 532 510 534 514.5 c 128,-1,174
EndSplineSet
EndChar

StartChar: I
Encoding: 73 73 11
Width: 1000
GlyphClass: 1
Flags: W
LayerCount: 2
Fore
SplineSet
392 11 m 0,0,1
 389 12 389 12 385 16.5 c 128,-1,2
 381 21 381 21 381 25 c 0,3,4
 382 34 382 34 391 38 c 0,5,6
 395 40 395 40 398.5 42 c 128,-1,7
 402 44 402 44 405.5 44 c 128,-1,8
 409 44 409 44 415.5 46.5 c 128,-1,9
 422 49 422 49 434 49.5 c 128,-1,10
 446 50 446 50 451 51 c 0,11,12
 466 56 466 56 534 55 c 0,13,14
 593 55 593 55 595.5 53.5 c 128,-1,15
 598 52 598 52 604 51 c 0,16,17
 615 50 615 50 619 46 c 0,18,19
 621 45 621 45 623 43.5 c 128,-1,20
 625 42 625 42 625 37 c 0,21,22
 625 27 625 27 623 27 c 0,23,24
 622 27 622 27 615 24 c 2,25,-1
 609 20 l 1,26,-1
 573 21 l 2,27,28
 534 21 534 21 532 21 c 0,29,30
 528 22 528 22 511 23 c 128,-1,31
 494 24 494 24 490.5 22.5 c 128,-1,32
 487 21 487 21 465 20 c 0,33,34
 434 19 434 19 429 16 c 0,35,36
 428 15 428 15 418 14 c 128,-1,37
 408 13 408 13 405 12 c 0,38,39
 400 10 400 10 392 11 c 0,0,1
500 67 m 0,40,41
 496 67 496 67 492.5 69 c 128,-1,42
 489 71 489 71 486 72 c 0,43,44
 484 73 484 73 480.5 76.5 c 128,-1,45
 477 80 477 80 477 81 c 256,46,47
 477 82 477 82 475 84 c 0,48,49
 469 91 469 91 472 112 c 0,50,51
 473 121 473 121 474.5 122 c 128,-1,52
 476 123 476 123 478 128 c 0,53,54
 484 139 484 139 497 141 c 0,55,56
 503 142 503 142 505 144 c 128,-1,57
 507 146 507 146 513 146 c 128,-1,58
 519 146 519 146 520 144 c 0,59,60
 521 143 521 143 525.5 141 c 128,-1,61
 530 139 530 139 532 137.5 c 128,-1,62
 534 136 534 136 536.5 135 c 128,-1,63
 539 134 539 134 541 129.5 c 128,-1,64
 543 125 543 125 545 123 c 0,65,66
 548 119 548 119 547.5 106.5 c 128,-1,67
 547 94 547 94 544 92 c 0,68,69
 542 91 542 91 541 87.5 c 128,-1,70
 540 84 540 84 539 84 c 128,-1,71
 538 84 538 84 532 78.5 c 128,-1,72
 526 73 526 73 521.5 72 c 128,-1,73
 517 71 517 71 515 69 c 0,74,75
 510 65 510 65 500 67 c 0,40,41
462 470 m 0,76,77
 457 471 457 471 453.5 473.5 c 128,-1,78
 450 476 450 476 449.5 476 c 128,-1,79
 449 476 449 476 444.5 480.5 c 128,-1,80
 440 485 440 485 439 493 c 0,81,82
 437 512 437 512 442 520 c 0,83,84
 444 523 444 523 450 529 c 128,-1,85
 456 535 456 535 456 536 c 128,-1,86
 456 537 456 537 452.5 539 c 128,-1,87
 449 541 449 541 419 541 c 2,88,-1
 388 541 l 1,89,-1
 384 544 l 2,90,91
 379 547 379 547 378 547 c 0,92,93
 373 547 373 547 375 560 c 0,94,95
 376 563 376 563 379 563.5 c 128,-1,96
 382 564 382 564 385.5 567 c 128,-1,97
 389 570 389 570 394 570 c 0,98,99
 407 570 407 570 427 573 c 0,100,101
 435 575 435 575 438 573 c 128,-1,102
 441 571 441 571 448 572.5 c 128,-1,103
 455 574 455 574 474 574.5 c 128,-1,104
 493 575 493 575 505 576 c 128,-1,105
 517 577 517 577 527.5 577 c 128,-1,106
 538 577 538 577 546 579 c 0,107,108
 559 583 559 583 578 583 c 0,109,110
 591 583 591 583 595 580 c 0,111,112
 600 577 600 577 600 569 c 0,113,114
 600 562 600 562 596 558 c 0,115,116
 591 553 591 553 582 553 c 0,117,118
 578 553 578 553 574 550.5 c 128,-1,119
 570 548 570 548 550.5 547.5 c 128,-1,120
 531 547 531 547 525 546 c 128,-1,121
 519 545 519 545 511 545 c 0,122,123
 500 545 500 545 498 539 c 0,124,125
 496 534 496 534 503 529 c 0,126,127
 507 526 507 526 508 521 c 128,-1,128
 509 516 509 516 511 514 c 0,129,130
 515 508 515 508 511 502 c 0,131,132
 509 500 509 500 508 494.5 c 128,-1,133
 507 489 507 489 505 487 c 128,-1,134
 503 485 503 485 503 484 c 128,-1,135
 503 483 503 483 499.5 481 c 128,-1,136
 496 479 496 479 496 478 c 128,-1,137
 496 477 496 477 493 475.5 c 128,-1,138
 490 474 490 474 488.5 472.5 c 128,-1,139
 487 471 487 471 479 470 c 0,140,141
 469 469 469 469 462 470 c 0,76,77
475.5 587.5 m 128,-1,143
 473 588 473 588 473 589 c 128,-1,144
 473 590 473 590 469.5 591.5 c 128,-1,145
 466 593 466 593 465.5 596 c 128,-1,146
 465 599 465 599 463 602.5 c 128,-1,147
 461 606 461 606 459.5 611 c 128,-1,148
 458 616 458 616 455.5 617 c 128,-1,149
 453 618 453 618 450.5 615 c 128,-1,150
 448 612 448 612 447 612 c 128,-1,151
 446 612 446 612 443 609 c 0,152,153
 439 605 439 605 427 606 c 0,154,155
 420 606 420 606 417 609.5 c 128,-1,156
 414 613 414 613 414.5 617 c 128,-1,157
 415 621 415 621 417 623.5 c 128,-1,158
 419 626 419 626 420 629.5 c 128,-1,159
 421 633 421 633 423 636 c 0,160,161
 427 640 427 640 424 644 c 0,162,163
 422 648 422 648 416.5 649.5 c 128,-1,164
 411 651 411 651 409.5 651 c 128,-1,165
 408 651 408 651 404.5 654.5 c 128,-1,166
 401 658 401 658 401 665 c 2,167,-1
 401 672 l 1,168,-1
 405 676 l 2,169,170
 410 680 410 680 417 680.5 c 128,-1,171
 424 681 424 681 426 683 c 0,172,173
 429 686 429 686 424 691 c 0,174,175
 420 696 420 696 419 699.5 c 128,-1,176
 418 703 418 703 416 705 c 0,177,178
 413 708 413 708 415.5 714.5 c 128,-1,179
 418 721 418 721 424 724 c 0,180,181
 428 727 428 727 435 726.5 c 128,-1,182
 442 726 442 726 444 723 c 0,183,184
 445 722 445 722 450 720 c 0,185,186
 454 719 454 719 455.5 720 c 128,-1,187
 457 721 457 721 457 725 c 0,188,189
 459 734 459 734 464 737 c 0,190,191
 467 740 467 740 473.5 740 c 128,-1,192
 480 740 480 740 484 735.5 c 128,-1,193
 488 731 488 731 489 725.5 c 128,-1,194
 490 720 490 720 491.5 718 c 128,-1,195
 493 716 493 716 495.5 717.5 c 128,-1,196
 498 719 498 719 505 726 c 128,-1,197
 512 733 512 733 513 733 c 128,-1,198
 514 733 514 733 517.5 736 c 128,-1,199
 521 739 521 739 527.5 739 c 128,-1,200
 534 739 534 739 537 736 c 128,-1,201
 540 733 540 733 540 728 c 0,202,203
 540 717 540 717 538 714 c 0,204,205
 536 712 536 712 534.5 708 c 128,-1,206
 533 704 533 704 530.5 701.5 c 128,-1,207
 528 699 528 699 525 695 c 0,208,209
 521 690 521 690 528 688 c 0,210,211
 545 681 545 681 547 677 c 0,212,213
 548 675 548 675 550 673 c 128,-1,214
 552 671 552 671 552.5 668 c 128,-1,215
 553 665 553 665 546 659 c 2,216,-1
 540 652 l 1,217,-1
 531 651 l 2,218,219
 517 650 517 650 517 647 c 0,220,221
 517 646 517 646 526 636 c 0,222,223
 540 623 540 623 540 616 c 0,224,225
 540 611 540 611 536.5 607 c 128,-1,226
 533 603 533 603 531.5 601.5 c 128,-1,227
 530 600 530 600 523.5 600 c 128,-1,228
 517 600 517 600 513 603 c 128,-1,229
 509 606 509 606 508.5 606 c 128,-1,230
 508 606 508 606 504.5 609.5 c 128,-1,231
 501 613 501 613 500 613 c 0,232,233
 495 613 495 613 495 605 c 256,234,235
 495 597 495 597 488 591 c 0,236,237
 482 587 482 587 480 587 c 128,-1,142
 478 587 478 587 475.5 587.5 c 128,-1,143
EndSplineSet
EndChar

StartChar: J
Encoding: 74 74 12
Width: 1000
GlyphClass: 1
Flags: W
LayerCount: 2
Fore
SplineSet
445 242 m 0,0,1
 441 243 441 243 440 245 c 128,-1,2
 439 247 439 247 437.5 248 c 128,-1,3
 436 249 436 249 435 253.5 c 128,-1,4
 434 258 434 258 432 260 c 128,-1,5
 430 262 430 262 430 267 c 0,6,7
 429 272 429 272 425.5 273 c 128,-1,8
 422 274 422 274 419 271 c 0,9,10
 417 268 417 268 415.5 268 c 128,-1,11
 414 268 414 268 412 265 c 128,-1,12
 410 262 410 262 400.5 261.5 c 128,-1,13
 391 261 391 261 388.5 263 c 128,-1,14
 386 265 386 265 385 266 c 0,15,16
 384 266 384 266 384.5 270.5 c 128,-1,17
 385 275 385 275 386 277 c 0,18,19
 388 278 388 278 389.5 283 c 128,-1,20
 391 288 391 288 393 290 c 0,21,22
 401 300 401 300 383 306 c 0,23,24
 370 310 370 310 370 316 c 0,25,26
 370 329 370 329 373 329 c 0,27,28
 375 329 375 329 376.5 330.5 c 128,-1,29
 378 332 378 332 378 333 c 0,30,31
 378 336 378 336 390 336 c 0,32,33
 394 336 394 336 396 337.5 c 128,-1,34
 398 339 398 339 398 342 c 0,35,36
 396 349 396 349 392 351 c 0,37,38
 390 352 390 352 388 359 c 128,-1,39
 386 366 386 366 387 370 c 0,40,41
 388 373 388 373 392.5 377 c 128,-1,42
 397 381 397 381 401 381 c 0,43,44
 403 382 403 382 407 380.5 c 128,-1,45
 411 379 411 379 411 378 c 256,46,47
 411 377 411 377 414.5 375.5 c 128,-1,48
 418 374 418 374 421.5 372.5 c 128,-1,49
 425 371 425 371 426 372.5 c 128,-1,50
 427 374 427 374 428 381 c 0,51,52
 429 387 429 387 433 390 c 128,-1,53
 437 393 437 393 442 394 c 0,54,55
 452 395 452 395 452 391 c 0,56,57
 452 390 452 390 454.5 388.5 c 128,-1,58
 457 387 457 387 458 381 c 0,59,60
 459 371 459 371 462 370 c 0,61,62
 463 370 463 370 468 374 c 128,-1,63
 473 378 473 378 473.5 380 c 128,-1,64
 474 382 474 382 477.5 383 c 128,-1,65
 481 384 481 384 481 385 c 128,-1,66
 481 386 481 386 484 387 c 128,-1,67
 487 388 487 388 489.5 391 c 128,-1,68
 492 394 492 394 496.5 394 c 128,-1,69
 501 394 501 394 502 392 c 0,70,71
 506 388 506 388 507.5 386.5 c 128,-1,72
 509 385 509 385 509 379.5 c 128,-1,73
 509 374 509 374 507 371 c 0,74,75
 503 366 503 366 503 361 c 0,76,77
 503 360 503 360 501.5 359 c 128,-1,78
 500 358 500 358 495.5 352.5 c 128,-1,79
 491 347 491 347 492 346 c 0,80,81
 496 342 496 342 501 342 c 0,82,83
 503 342 503 342 507.5 339 c 128,-1,84
 512 336 512 336 513.5 336 c 128,-1,85
 515 336 515 336 516 333 c 128,-1,86
 517 330 517 330 519 328.5 c 128,-1,87
 521 327 521 327 521.5 324 c 128,-1,88
 522 321 522 321 519.5 319.5 c 128,-1,89
 517 318 517 318 517 316.5 c 128,-1,90
 517 315 517 315 513 311 c 2,91,-1
 510 307 l 1,92,-1
 501 307 l 2,93,94
 486 307 486 307 486 302 c 0,95,96
 486 300 486 300 492 296 c 0,97,98
 504 286 504 286 504 280 c 0,99,100
 504 279 504 279 506 277 c 128,-1,101
 508 275 508 275 508.5 271.5 c 128,-1,102
 509 268 509 268 504.5 263 c 128,-1,103
 500 258 500 258 499 257 c 0,104,105
 499 255 499 255 493 255 c 128,-1,106
 487 255 487 255 485 257 c 128,-1,107
 483 259 483 259 480 260.5 c 128,-1,108
 477 262 477 262 474 265.5 c 128,-1,109
 471 269 471 269 469 269 c 0,110,111
 464 269 464 269 463 259 c 0,112,113
 463 254 463 254 460 251 c 128,-1,114
 457 248 457 248 455 245 c 0,115,116
 452 241 452 241 445 242 c 0,0,1
265 251 m 256,117,118
 262 253 262 253 254.5 254.5 c 128,-1,119
 247 256 247 256 246 257 c 128,-1,120
 245 258 245 258 240 260.5 c 128,-1,121
 235 263 235 263 231 267.5 c 128,-1,122
 227 272 227 272 224.5 274.5 c 128,-1,123
 222 277 222 277 218.5 282.5 c 128,-1,124
 215 288 215 288 215 298 c 128,-1,125
 215 308 215 308 217.5 311.5 c 128,-1,126
 220 315 220 315 220 316 c 0,127,128
 220 322 220 322 226 328 c 0,129,130
 236 340 236 340 244 342 c 0,131,132
 247 343 247 343 250 345.5 c 128,-1,133
 253 348 253 348 268.5 348 c 128,-1,134
 284 348 284 348 287 346 c 128,-1,135
 290 344 290 344 295 342 c 128,-1,136
 300 340 300 340 300 339 c 128,-1,137
 300 338 300 338 304 337 c 0,138,139
 307 336 307 336 311 331.5 c 128,-1,140
 315 327 315 327 315 325 c 256,141,142
 315 323 315 323 318 319.5 c 128,-1,143
 321 316 321 316 321 306.5 c 128,-1,144
 321 297 321 297 318 294 c 128,-1,145
 315 291 315 291 314.5 286.5 c 128,-1,146
 314 282 314 282 311.5 279 c 128,-1,147
 309 276 309 276 309 275.5 c 128,-1,148
 309 275 309 275 305.5 270.5 c 128,-1,149
 302 266 302 266 301.5 264 c 128,-1,150
 301 262 301 262 299 261 c 128,-1,151
 297 260 297 260 293 257.5 c 128,-1,152
 289 255 289 255 284.5 254 c 128,-1,153
 280 253 280 253 275 251 c 0,154,155
 268 249 268 249 265 251 c 256,117,118
603 294 m 0,156,157
 595 294 595 294 593 296 c 128,-1,158
 591 298 591 298 586.5 300 c 128,-1,159
 582 302 582 302 579.5 305.5 c 128,-1,160
 577 309 577 309 573.5 312 c 128,-1,161
 570 315 570 315 570 316.5 c 128,-1,162
 570 318 570 318 568 320.5 c 128,-1,163
 566 323 566 323 566 339.5 c 128,-1,164
 566 356 566 356 568.5 359.5 c 128,-1,165
 571 363 571 363 571 364 c 0,166,167
 571 366 571 366 575.5 370 c 128,-1,168
 580 374 580 374 582 375 c 0,169,170
 585 376 585 376 588 379 c 128,-1,171
 591 382 591 382 592.5 382 c 128,-1,172
 594 382 594 382 596 383 c 0,173,174
 600 388 600 388 595 400 c 0,175,176
 592 405 592 405 591 429 c 0,177,178
 590 454 590 454 587 476 c 0,179,180
 586 483 586 483 585 526 c 0,181,182
 584 597 584 597 585 625 c 0,183,184
 586 647 586 647 587.5 650 c 128,-1,185
 589 653 589 653 589 657.5 c 128,-1,186
 589 662 589 662 585.5 663.5 c 128,-1,187
 582 665 582 665 572 665 c 0,188,189
 559 665 559 665 533 668 c 0,190,191
 520 670 520 670 478 671 c 0,192,193
 427 672 427 672 408 674 c 0,194,195
 395 676 395 676 355.5 676.5 c 128,-1,196
 316 677 316 677 313.5 678.5 c 128,-1,197
 311 680 311 680 305.5 683 c 128,-1,198
 300 686 300 686 299 690 c 0,199,200
 299 697 299 697 305 701 c 0,201,202
 309 704 309 704 309 704.5 c 128,-1,203
 309 705 309 705 315 706.5 c 128,-1,204
 321 708 321 708 378 707 c 0,205,206
 438 706 438 706 474 704 c 0,207,208
 508 701 508 701 544 700 c 0,209,210
 573 699 573 699 576 698 c 0,211,212
 582 695 582 695 626 694 c 0,213,214
 651 693 651 693 655.5 691 c 128,-1,215
 660 689 660 689 675 688 c 0,216,217
 710 686 710 686 714 684 c 0,218,219
 717 682 717 682 731 681 c 128,-1,220
 745 680 745 680 749.5 678 c 128,-1,221
 754 676 754 676 761 675 c 128,-1,222
 768 674 768 674 771 671.5 c 128,-1,223
 774 669 774 669 778 666 c 0,224,225
 789 658 789 658 784 649 c 0,226,227
 780 644 780 644 755 645 c 0,228,229
 737 645 737 645 733 647 c 0,230,231
 725 650 725 650 706 652 c 0,232,233
 692 652 692 652 689 654 c 0,234,235
 682 657 682 657 655 658 c 0,236,237
 646 658 646 658 636 659 c 0,238,239
 623 660 623 660 619 655 c 0,240,241
 616 653 616 653 618 650 c 0,242,243
 622 643 622 643 618 628 c 0,244,245
 615 619 615 619 615.5 572.5 c 128,-1,246
 616 526 616 526 618 521 c 0,247,248
 619 519 619 519 620 480 c 0,249,250
 622 417 622 417 625 410 c 0,251,252
 626 408 626 408 626 397 c 0,253,254
 626 382 626 382 630 382 c 0,255,256
 631 382 631 382 634.5 379 c 128,-1,257
 638 376 638 376 642 375 c 128,-1,258
 646 374 646 374 652 368 c 128,-1,259
 658 362 658 362 660 358 c 128,-1,260
 662 354 662 354 664 350.5 c 128,-1,261
 666 347 666 347 666 337.5 c 128,-1,262
 666 328 666 328 665 325 c 0,263,264
 655 307 655 307 649 302 c 0,265,266
 645 299 645 299 643.5 299 c 128,-1,267
 642 299 642 299 639 297 c 0,268,269
 632 291 632 291 603 294 c 0,156,157
EndSplineSet
EndChar

StartChar: K
Encoding: 75 75 13
Width: 1000
GlyphClass: 1
Flags: W
LayerCount: 2
Fore
SplineSet
650 18 m 128,-1,1
 647 19 647 19 645 21 c 128,-1,2
 643 23 643 23 637 24 c 128,-1,3
 631 25 631 25 628 27.5 c 128,-1,4
 625 30 625 30 619.5 32.5 c 128,-1,5
 614 35 614 35 613.5 36.5 c 128,-1,6
 613 38 613 38 607.5 40 c 128,-1,7
 602 42 602 42 599.5 44 c 128,-1,8
 597 46 597 46 592.5 47.5 c 128,-1,9
 588 49 588 49 586 51.5 c 128,-1,10
 584 54 584 54 580 55 c 128,-1,11
 576 56 576 56 573 59 c 128,-1,12
 570 62 570 62 566.5 62.5 c 128,-1,13
 563 63 563 63 558.5 67.5 c 128,-1,14
 554 72 554 72 552.5 72 c 128,-1,15
 551 72 551 72 549.5 73.5 c 128,-1,16
 548 75 548 75 543.5 77.5 c 128,-1,17
 539 80 539 80 536.5 83 c 128,-1,18
 534 86 534 86 531.5 86 c 128,-1,19
 529 86 529 86 525.5 90 c 128,-1,20
 522 94 522 94 518.5 95.5 c 128,-1,21
 515 97 515 97 514.5 98.5 c 128,-1,22
 514 100 514 100 510 102 c 128,-1,23
 506 104 506 104 504.5 106.5 c 128,-1,24
 503 109 503 109 502 109 c 128,-1,25
 501 109 501 109 497.5 112.5 c 128,-1,26
 494 116 494 116 489.5 118.5 c 128,-1,27
 485 121 485 121 485 122 c 128,-1,28
 485 123 485 123 482 124.5 c 128,-1,29
 479 126 479 126 476 130 c 0,30,31
 467 139 467 139 462 142 c 0,32,33
 458 144 458 144 457 146 c 128,-1,34
 456 148 456 148 453 148.5 c 128,-1,35
 450 149 450 149 448.5 152.5 c 128,-1,36
 447 156 447 156 445 157 c 0,37,38
 443 159 443 159 442 166 c 128,-1,39
 441 173 441 173 442 178 c 0,40,41
 444 184 444 184 445.5 184 c 128,-1,42
 447 184 447 184 452.5 187 c 128,-1,43
 458 190 458 190 459 188.5 c 128,-1,44
 460 187 460 187 464 185 c 0,45,46
 469 183 469 183 481 171 c 0,47,48
 484 168 484 168 485.5 168 c 128,-1,49
 487 168 487 168 489.5 164.5 c 128,-1,50
 492 161 492 161 493.5 161 c 128,-1,51
 495 161 495 161 496.5 158 c 128,-1,52
 498 155 498 155 501.5 153.5 c 128,-1,53
 505 152 505 152 507 149.5 c 128,-1,54
 509 147 509 147 513 146 c 128,-1,55
 517 145 517 145 524.5 137.5 c 128,-1,56
 532 130 532 130 535 129.5 c 128,-1,57
 538 129 538 129 538.5 127 c 128,-1,58
 539 125 539 125 542.5 123.5 c 128,-1,59
 546 122 546 122 549 118.5 c 128,-1,60
 552 115 552 115 555 114 c 128,-1,61
 558 113 558 113 559 111.5 c 128,-1,62
 560 110 560 110 565.5 107 c 128,-1,63
 571 104 571 104 572.5 102 c 128,-1,64
 574 100 574 100 578 99 c 128,-1,65
 582 98 582 98 584 95.5 c 128,-1,66
 586 93 586 93 591 91 c 128,-1,67
 596 89 596 89 598 87 c 128,-1,68
 600 85 600 85 604.5 83.5 c 128,-1,69
 609 82 609 82 612 79.5 c 128,-1,70
 615 77 615 77 619 75.5 c 128,-1,71
 623 74 623 74 625 71.5 c 128,-1,72
 627 69 627 69 631.5 67.5 c 128,-1,73
 636 66 636 66 639 63.5 c 128,-1,74
 642 61 642 61 647 60 c 128,-1,75
 652 59 652 59 656 55.5 c 128,-1,76
 660 52 660 52 663 51.5 c 128,-1,77
 666 51 666 51 667.5 47.5 c 128,-1,78
 669 44 669 44 670 44 c 128,-1,79
 671 44 671 44 673 40.5 c 128,-1,80
 675 37 675 37 677 34 c 0,81,82
 684 29 684 29 676 21 c 0,83,84
 673 17 673 17 663 17 c 128,-1,0
 653 17 653 17 650 18 c 128,-1,1
357 193 m 128,-1,86
 351 197 351 197 349 200.5 c 128,-1,87
 347 204 347 204 345.5 205 c 128,-1,88
 344 206 344 206 342.5 215 c 128,-1,89
 341 224 341 224 339 225.5 c 128,-1,90
 337 227 337 227 337 231.5 c 128,-1,91
 337 236 337 236 339 238 c 0,92,93
 343 242 343 242 343 260 c 0,94,95
 343 271 343 271 339 275 c 0,96,97
 337 278 337 278 335 309 c 0,98,99
 333 332 333 332 331.5 335.5 c 128,-1,100
 330 339 330 339 329 362 c 0,101,102
 327 393 327 393 324 406 c 0,103,104
 322 413 322 413 321 447 c 128,-1,105
 320 481 320 481 321 506 c 0,106,107
 322 533 322 533 324 537 c 128,-1,108
 326 541 326 541 327.5 549 c 128,-1,109
 329 557 329 557 329.5 559 c 128,-1,110
 330 561 330 561 334.5 566.5 c 128,-1,111
 339 572 339 572 341 573 c 0,112,113
 347 577 347 577 355 573 c 0,114,115
 364 568 364 568 361 534 c 0,116,117
 359 521 359 521 358 518 c 0,118,119
 354 508 354 508 354 475.5 c 128,-1,120
 354 443 354 443 358 431 c 0,121,122
 359 426 359 426 360 399.5 c 128,-1,123
 361 373 361 373 363 368 c 0,124,125
 367 357 367 357 368 318 c 0,126,127
 368 287 368 287 369.5 283 c 128,-1,128
 371 279 371 279 380 277.5 c 128,-1,129
 389 276 389 276 399 265 c 0,130,131
 404 260 404 260 404 258 c 128,-1,132
 404 256 404 256 406.5 252.5 c 128,-1,133
 409 249 409 249 409 232.5 c 128,-1,134
 409 216 409 216 406.5 213.5 c 128,-1,135
 404 211 404 211 403 207 c 128,-1,136
 402 203 402 203 400 202.5 c 128,-1,137
 398 202 398 202 396 199 c 128,-1,138
 394 196 394 196 391 195.5 c 128,-1,139
 388 195 388 195 385 192 c 128,-1,140
 382 189 382 189 372.5 189 c 128,-1,85
 363 189 363 189 357 193 c 128,-1,86
553 441 m 0,141,142
 548 444 548 444 546 444 c 0,143,144
 543 444 543 444 531 458 c 0,145,146
 528 462 528 462 528 478 c 2,147,-1
 528 495 l 1,148,-1
 533 502 l 2,149,150
 541 515 541 515 554 520 c 0,151,152
 566 525 566 525 570.5 525 c 128,-1,153
 575 525 575 525 582 522 c 0,154,155
 586 520 586 520 589.5 519 c 128,-1,156
 593 518 593 518 595 515 c 128,-1,157
 597 512 597 512 599.5 509.5 c 128,-1,158
 602 507 602 507 603.5 498.5 c 128,-1,159
 605 490 605 490 603.5 481.5 c 128,-1,160
 602 473 602 473 598.5 468.5 c 128,-1,161
 595 464 595 464 595 463 c 0,162,163
 595 460 595 460 582 448 c 0,164,165
 578 446 578 446 572.5 444 c 128,-1,166
 567 442 567 442 564 440 c 0,167,168
 559 437 559 437 553 441 c 0,141,142
EndSplineSet
EndChar

StartChar: L
Encoding: 76 76 14
Width: 1000
GlyphClass: 1
Flags: W
LayerCount: 2
Fore
SplineSet
293 16.5 m 128,-1,1
 289 18 289 18 282 25.5 c 128,-1,2
 275 33 275 33 274.5 40.5 c 128,-1,3
 274 48 274 48 271.5 53.5 c 128,-1,4
 269 59 269 59 268.5 65 c 128,-1,5
 268 71 268 71 266.5 79.5 c 128,-1,6
 265 88 265 88 267.5 99 c 128,-1,7
 270 110 270 110 272.5 113 c 128,-1,8
 275 116 275 116 275 117 c 0,9,10
 275 119 275 119 280 123.5 c 128,-1,11
 285 128 285 128 287 128 c 256,12,13
 289 128 289 128 293 131.5 c 128,-1,14
 297 135 297 135 302 136 c 0,15,16
 309 137 309 137 310 144 c 0,17,18
 312 148 312 148 314 151 c 128,-1,19
 316 154 316 154 317 160 c 128,-1,20
 318 166 318 166 319 167 c 0,21,22
 323 171 323 171 324 184 c 0,23,24
 325 195 325 195 327 196 c 0,25,26
 330 198 330 198 331 212 c 0,27,28
 332 222 332 222 334.5 227.5 c 128,-1,29
 337 233 337 233 338 244.5 c 128,-1,30
 339 256 339 256 341 259 c 128,-1,31
 343 262 343 262 344.5 273.5 c 128,-1,32
 346 285 346 285 348.5 290.5 c 128,-1,33
 351 296 351 296 352 305 c 128,-1,34
 353 314 353 314 355 316.5 c 128,-1,35
 357 319 357 319 358.5 322.5 c 128,-1,36
 360 326 360 326 362 326 c 128,-1,37
 364 326 364 326 365 329 c 0,38,39
 367 335 367 335 375 333 c 0,40,41
 385 330 385 330 383 296 c 0,42,43
 382 281 382 281 379.5 276.5 c 128,-1,44
 377 272 377 272 375.5 260 c 128,-1,45
 374 248 374 248 372 244.5 c 128,-1,46
 370 241 370 241 369 228 c 0,47,48
 368 212 368 212 366 212 c 256,49,50
 364 212 364 212 362 199 c 0,51,52
 361 190 361 190 358.5 183.5 c 128,-1,53
 356 177 356 177 355 168.5 c 128,-1,54
 354 160 354 160 351.5 155.5 c 128,-1,55
 349 151 349 151 348 146 c 128,-1,56
 347 141 347 141 345 137 c 0,57,58
 341 130 341 130 341 119.5 c 128,-1,59
 341 109 341 109 345 103 c 0,60,61
 347 100 347 100 347 82.5 c 128,-1,62
 347 65 347 65 344.5 62.5 c 128,-1,63
 342 60 342 60 342 55 c 0,64,65
 340 45 340 45 338 42.5 c 128,-1,66
 336 40 336 40 335 37 c 0,67,68
 334 31 334 31 322 21 c 0,69,70
 318 18 318 18 308 16.5 c 128,-1,71
 298 15 298 15 297.5 15 c 128,-1,0
 297 15 297 15 293 16.5 c 128,-1,1
669.5 36 m 128,-1,73
 668 38 668 38 663 40 c 0,74,75
 657 43 657 43 651 50 c 0,76,77
 643 58 643 58 643 59 c 128,-1,78
 643 60 643 60 640 73 c 2,79,-1
 637 86 l 1,80,-1
 639 91 l 2,81,82
 641 96 641 96 642.5 104 c 128,-1,83
 644 112 644 112 646 113.5 c 128,-1,84
 648 115 648 115 648 116.5 c 128,-1,85
 648 118 648 118 653 124 c 128,-1,86
 658 130 658 130 660 130.5 c 128,-1,87
 662 131 662 131 663.5 132.5 c 128,-1,88
 665 134 665 134 670 135.5 c 128,-1,89
 675 137 675 137 677.5 139.5 c 128,-1,90
 680 142 680 142 689 142.5 c 128,-1,91
 698 143 698 143 707 138 c 0,92,93
 723 130 723 130 723 126 c 0,94,95
 723 125 723 125 725.5 120.5 c 128,-1,96
 728 116 728 116 731 106 c 0,97,98
 735 88 735 88 733 83 c 256,99,100
 731 78 731 78 729.5 71.5 c 128,-1,101
 728 65 728 65 725.5 63 c 128,-1,102
 723 61 723 61 722 58 c 0,103,104
 720 53 720 53 713.5 47 c 128,-1,105
 707 41 707 41 703 40 c 128,-1,106
 699 39 699 39 696 36.5 c 128,-1,107
 693 34 693 34 682 34 c 128,-1,72
 671 34 671 34 669.5 36 c 128,-1,73
514.5 229.5 m 128,-1,109
 511 234 511 234 511 236 c 128,-1,110
 511 238 511 238 509 242 c 128,-1,111
 507 246 507 246 506 246 c 128,-1,112
 505 246 505 246 505 249 c 0,113,114
 505 258 505 258 501 261 c 0,115,116
 499 262 499 262 496 260.5 c 128,-1,117
 493 259 493 259 492.5 257 c 128,-1,118
 492 255 492 255 490 254.5 c 128,-1,119
 488 254 488 254 486 250.5 c 128,-1,120
 484 247 484 247 473.5 247 c 128,-1,121
 463 247 463 247 462.5 248.5 c 128,-1,122
 462 250 462 250 459 252 c 128,-1,123
 456 254 456 254 456.5 258.5 c 128,-1,124
 457 263 457 263 459.5 266.5 c 128,-1,125
 462 270 462 270 463 274.5 c 128,-1,126
 464 279 464 279 465 279 c 0,127,128
 467 279 467 279 468.5 282.5 c 128,-1,129
 470 286 470 286 469 288 c 0,130,131
 465 296 465 296 456 299 c 0,132,133
 450 301 450 301 449 302.5 c 128,-1,134
 448 304 448 304 445 305 c 128,-1,135
 442 306 442 306 442 315 c 128,-1,136
 442 324 442 324 445 325.5 c 128,-1,137
 448 327 448 327 449 330 c 256,138,139
 450 333 450 333 460 333 c 0,140,141
 469 333 469 333 470 338 c 0,142,143
 472 342 472 342 465 350 c 0,144,145
 463 353 463 353 462 357.5 c 128,-1,146
 461 362 461 362 458.5 366 c 128,-1,147
 456 370 456 370 458 372 c 128,-1,148
 460 374 460 374 461 376 c 128,-1,149
 462 378 462 378 466 382.5 c 128,-1,150
 470 387 470 387 476.5 386.5 c 128,-1,151
 483 386 483 386 486 383 c 0,152,153
 488 380 488 380 493.5 378.5 c 128,-1,154
 499 377 499 377 500 379 c 0,155,156
 502 380 502 380 502 385 c 0,157,158
 504 396 504 396 506 396 c 0,159,160
 507 396 507 396 509.5 399 c 128,-1,161
 512 402 512 402 519 402 c 128,-1,162
 526 402 526 402 530.5 397 c 128,-1,163
 535 392 535 392 535 387 c 0,164,165
 535 375 535 375 540 375 c 0,166,167
 542 375 542 375 546 378 c 128,-1,168
 550 381 550 381 552 384 c 0,169,170
 553 387 553 387 555 387.5 c 128,-1,171
 557 388 557 388 558.5 391 c 128,-1,172
 560 394 560 394 563 394.5 c 128,-1,173
 566 395 566 395 567.5 398 c 128,-1,174
 569 401 569 401 575.5 401 c 128,-1,175
 582 401 582 401 582.5 397.5 c 128,-1,176
 583 394 583 394 586 394 c 128,-1,177
 589 394 589 394 589 390 c 0,178,179
 591 377 591 377 587 375 c 0,180,181
 586 374 586 374 583.5 368 c 128,-1,182
 581 362 581 362 578.5 360 c 128,-1,183
 576 358 576 358 576 356.5 c 128,-1,184
 576 355 576 355 573 351 c 128,-1,185
 570 347 570 347 571 345 c 0,186,187
 573 340 573 340 580 340 c 0,188,189
 582 340 582 340 585.5 337.5 c 128,-1,190
 589 335 589 335 592.5 334 c 128,-1,191
 596 333 596 333 597 330.5 c 128,-1,192
 598 328 598 328 600 325.5 c 128,-1,193
 602 323 602 323 602.5 319.5 c 128,-1,194
 603 316 603 316 601 315 c 128,-1,195
 599 314 599 314 598.5 311.5 c 128,-1,196
 598 309 598 309 594 305 c 128,-1,197
 590 301 590 301 580.5 300 c 128,-1,198
 571 299 571 299 568.5 296.5 c 128,-1,199
 566 294 566 294 566 293 c 128,-1,200
 566 292 566 292 574 282.5 c 128,-1,201
 582 273 582 273 584 268.5 c 128,-1,202
 586 264 586 264 587 264 c 0,203,204
 589 264 589 264 589.5 261.5 c 128,-1,205
 590 259 590 259 589 255.5 c 128,-1,206
 588 252 588 252 587 252 c 0,207,208
 585 251 585 251 582.5 245.5 c 128,-1,209
 580 240 580 240 577 239 c 0,210,211
 569 238 569 238 563 243 c 0,212,213
 560 246 560 246 557.5 246.5 c 128,-1,214
 555 247 555 247 552 251 c 0,215,216
 550 255 550 255 547.5 255 c 128,-1,217
 545 255 545 255 543 251.5 c 128,-1,218
 541 248 541 248 541 242.5 c 128,-1,219
 541 237 541 237 536 234 c 0,220,221
 533 232 533 232 531 228.5 c 128,-1,222
 529 225 529 225 523.5 225 c 128,-1,108
 518 225 518 225 514.5 229.5 c 128,-1,109
303.5 339 m 128,-1,224
 303 340 303 340 303 349.5 c 128,-1,225
 303 359 303 359 303.5 363 c 128,-1,226
 304 367 304 367 306.5 372 c 128,-1,227
 309 377 309 377 310 388.5 c 128,-1,228
 311 400 311 400 313.5 406.5 c 128,-1,229
 316 413 316 413 316 437 c 0,230,231
 319 522 319 522 314 549 c 0,232,233
 310 566 310 566 310 598 c 0,234,235
 310 624 310 624 311.5 627 c 128,-1,236
 313 630 313 630 315 633.5 c 128,-1,237
 317 637 317 637 322 639 c 0,238,239
 328 642 328 642 336 638 c 0,240,241
 341 636 341 636 343 618 c 0,242,243
 344 610 344 610 345.5 606 c 128,-1,244
 347 602 347 602 348 564 c 128,-1,245
 349 526 349 526 350 511 c 0,246,247
 352 481 352 481 348 415 c 0,248,249
 346 386 346 386 344 383 c 128,-1,250
 342 380 342 380 341 372 c 128,-1,251
 340 364 340 364 337.5 361 c 128,-1,252
 335 358 335 358 335 356 c 128,-1,253
 335 354 335 354 331 348.5 c 128,-1,254
 327 343 327 343 325.5 341 c 128,-1,255
 324 339 324 339 314 338.5 c 128,-1,223
 304 338 304 338 303.5 339 c 128,-1,224
EndSplineSet
EndChar

StartChar: M
Encoding: 77 77 15
Width: 1000
GlyphClass: 1
Flags: W
LayerCount: 2
Fore
SplineSet
318 15 m 0,0,1
 316 15 316 15 311.5 19.5 c 128,-1,2
 307 24 307 24 307 25 c 256,3,4
 307 26 307 26 304.5 30.5 c 128,-1,5
 302 35 302 35 300.5 47 c 128,-1,6
 299 59 299 59 296.5 63.5 c 128,-1,7
 294 68 294 68 292.5 83.5 c 128,-1,8
 291 99 291 99 289 103 c 128,-1,9
 287 107 287 107 285.5 140.5 c 128,-1,10
 284 174 284 174 282 180 c 0,11,12
 279 190 279 190 278.5 266.5 c 128,-1,13
 278 343 278 343 281 352.5 c 128,-1,14
 284 362 284 362 285 391 c 0,15,16
 286 417 286 417 289 431 c 0,17,18
 293 448 293 448 285 456 c 0,19,20
 279 461 279 461 274.5 466 c 128,-1,21
 270 471 270 471 270 480 c 0,22,23
 268 499 268 499 274 506 c 0,24,25
 277 510 277 510 277 530 c 2,26,-1
 277 545 l 1,27,-1
 282 550 l 2,28,29
 290 560 290 560 302 561 c 0,30,31
 321 564 321 564 341 557 c 0,32,33
 348 555 348 555 360 554 c 0,34,35
 383 552 383 552 394 537 c 0,36,37
 401 526 401 526 395 517 c 0,38,39
 392 512 392 512 391 505.5 c 128,-1,40
 390 499 390 499 387.5 496 c 128,-1,41
 385 493 385 493 384 490 c 256,42,43
 383 487 383 487 373 476 c 0,44,45
 369 472 369 472 365.5 468 c 128,-1,46
 362 464 362 464 359 462.5 c 128,-1,47
 356 461 356 461 355 459.5 c 128,-1,48
 354 458 354 458 348 456.5 c 128,-1,49
 342 455 342 455 340.5 453 c 128,-1,50
 339 451 339 451 334 449 c 0,51,52
 328 447 328 447 327 443.5 c 128,-1,53
 326 440 326 440 325 422 c 0,54,55
 324 400 324 400 322 396 c 0,56,57
 319 389 319 389 318 339 c 0,58,59
 317 304 317 304 315 293 c 0,60,61
 312 274 312 274 316 249 c 0,62,63
 317 241 317 241 318 196 c 0,64,65
 319 134 319 134 322 127 c 0,66,67
 326 120 326 120 326 91 c 0,68,69
 326 88 326 88 329 84 c 128,-1,70
 332 80 332 80 333 65.5 c 128,-1,71
 334 51 334 51 336.5 47.5 c 128,-1,72
 339 44 339 44 339.5 37 c 128,-1,73
 340 30 340 30 334.5 22.5 c 128,-1,74
 329 15 329 15 325.5 14.5 c 128,-1,75
 322 14 322 14 321 14 c 128,-1,76
 320 14 320 14 318 15 c 0,0,1
562.5 254.5 m 128,-1,78
 560 255 560 255 558 257 c 128,-1,79
 556 259 556 259 550 260 c 128,-1,80
 544 261 544 261 540 266 c 0,81,82
 530 277 530 277 526 283 c 0,83,84
 524 287 524 287 522 288 c 128,-1,85
 520 289 520 289 520 302 c 128,-1,86
 520 315 520 315 523 319 c 128,-1,87
 526 323 526 323 526 324 c 0,88,89
 526 326 526 326 532 331.5 c 128,-1,90
 538 337 538 337 543 339 c 0,91,92
 549 343 549 343 565 343.5 c 128,-1,93
 581 344 581 344 585.5 347 c 128,-1,94
 590 350 590 350 594.5 351 c 128,-1,95
 599 352 599 352 601.5 354.5 c 128,-1,96
 604 357 604 357 608 359.5 c 128,-1,97
 612 362 612 362 614.5 366.5 c 128,-1,98
 617 371 617 371 618.5 371 c 128,-1,99
 620 371 620 371 621 375 c 0,100,101
 626 386 626 386 633 393 c 0,102,103
 635 395 635 395 636 398 c 128,-1,104
 637 401 637 401 639 404 c 0,105,106
 642 407 642 407 647 416 c 128,-1,107
 652 425 652 425 652 427 c 256,108,109
 652 429 652 429 654 430 c 128,-1,110
 656 431 656 431 658 435.5 c 128,-1,111
 660 440 660 440 662.5 443 c 128,-1,112
 665 446 665 446 665 448 c 128,-1,113
 665 450 665 450 668.5 454 c 128,-1,114
 672 458 672 458 673 462 c 128,-1,115
 674 466 674 466 676.5 469 c 128,-1,116
 679 472 679 472 680 476 c 128,-1,117
 681 480 681 480 683.5 482 c 128,-1,118
 686 484 686 484 687 488.5 c 128,-1,119
 688 493 688 493 690.5 495.5 c 128,-1,120
 693 498 693 498 694 503 c 0,121,122
 695 507 695 507 699.5 512.5 c 128,-1,123
 704 518 704 518 706 518 c 0,124,125
 707 518 707 518 709 521 c 0,126,127
 714 527 714 527 723 524 c 0,128,129
 727 523 727 523 729 514.5 c 128,-1,130
 731 506 731 506 729 495.5 c 128,-1,131
 727 485 727 485 724.5 482 c 128,-1,132
 722 479 722 479 720.5 474.5 c 128,-1,133
 719 470 719 470 718 469 c 0,134,135
 713 466 713 466 713 459 c 0,136,137
 713 458 713 458 710.5 456 c 128,-1,138
 708 454 708 454 706 449 c 128,-1,139
 704 444 704 444 701.5 441 c 128,-1,140
 699 438 699 438 698.5 433.5 c 128,-1,141
 698 429 698 429 695.5 427 c 128,-1,142
 693 425 693 425 691.5 421 c 128,-1,143
 690 417 690 417 687.5 413.5 c 128,-1,144
 685 410 685 410 685 408.5 c 128,-1,145
 685 407 685 407 681 402.5 c 128,-1,146
 677 398 677 398 676 394.5 c 128,-1,147
 675 391 675 391 673.5 390.5 c 128,-1,148
 672 390 672 390 669.5 384.5 c 128,-1,149
 667 379 667 379 665 377.5 c 128,-1,150
 663 376 663 376 661.5 372 c 128,-1,151
 660 368 660 368 659 368 c 128,-1,152
 658 368 658 368 655 363.5 c 128,-1,153
 652 359 652 359 650 356.5 c 128,-1,154
 648 354 648 354 647 351 c 128,-1,155
 646 348 646 348 644 347.5 c 128,-1,156
 642 347 642 347 640.5 344.5 c 128,-1,157
 639 342 639 342 636.5 339 c 128,-1,158
 634 336 634 336 630.5 332 c 128,-1,159
 627 328 627 328 623 326 c 128,-1,160
 619 324 619 324 618 322 c 0,161,162
 616 317 616 317 619 302 c 0,163,164
 622 281 622 281 614 273 c 0,165,166
 611 270 611 270 607.5 266 c 128,-1,167
 604 262 604 262 599 260 c 128,-1,168
 594 258 594 258 592 256 c 128,-1,169
 590 254 590 254 577.5 254 c 128,-1,77
 565 254 565 254 562.5 254.5 c 128,-1,78
EndSplineSet
EndChar

StartChar: N
Encoding: 78 78 16
Width: 1000
GlyphClass: 1
Flags: W
LayerCount: 2
Fore
SplineSet
685 12 m 0,0,1
 672 13 672 13 671 14.5 c 128,-1,2
 670 16 670 16 665.5 17.5 c 128,-1,3
 661 19 661 19 655.5 26 c 128,-1,4
 650 33 650 33 650 34.5 c 128,-1,5
 650 36 650 36 647.5 39.5 c 128,-1,6
 645 43 645 43 645 52 c 128,-1,7
 645 61 645 61 647 63 c 128,-1,8
 649 65 649 65 651 70 c 0,9,10
 654 82 654 82 666 87 c 0,11,12
 671 89 671 89 674 92 c 2,13,-1
 677 95 l 1,14,-1
 677 119 l 2,15,16
 678 215 678 215 680 219 c 0,17,18
 681 222 681 222 681.5 245 c 128,-1,19
 682 268 682 268 682.5 288.5 c 128,-1,20
 683 309 683 309 682 340 c 128,-1,21
 681 371 681 371 679.5 373.5 c 128,-1,22
 678 376 678 376 678 388.5 c 128,-1,23
 678 401 678 401 677 416.5 c 128,-1,24
 676 432 676 432 673.5 436 c 128,-1,25
 671 440 671 440 670 448 c 0,26,27
 668 467 668 467 673 473 c 0,28,29
 676 476 676 476 681 476 c 256,30,31
 686 476 686 476 694 468 c 0,32,33
 699 463 699 463 700 457.5 c 128,-1,34
 701 452 701 452 703 449 c 128,-1,35
 705 446 705 446 706 437 c 128,-1,36
 707 428 707 428 708 425.5 c 128,-1,37
 709 423 709 423 709 418.5 c 128,-1,38
 709 414 709 414 710.5 411.5 c 128,-1,39
 712 409 712 409 713 325 c 0,40,41
 714 319 714 319 712 156 c 0,42,43
 712 135 712 135 710 131.5 c 128,-1,44
 708 128 708 128 707 114 c 0,45,46
 707 99 707 99 708 95 c 128,-1,47
 709 91 709 91 716 84 c 256,48,49
 723 77 723 77 726 73.5 c 128,-1,50
 729 70 729 70 730 68.5 c 128,-1,51
 731 67 731 67 732.5 56 c 128,-1,52
 734 45 734 45 732.5 37.5 c 128,-1,53
 731 30 731 30 726.5 25 c 128,-1,54
 722 20 722 20 717 16 c 0,55,56
 710 11 710 11 685 12 c 0,0,1
302 18 m 0,57,58
 300 18 300 18 296 22 c 128,-1,59
 292 26 292 26 292 27 c 0,60,61
 292 29 292 29 289.5 32.5 c 128,-1,62
 287 36 287 36 286 45 c 0,63,64
 285 62 285 62 282 68 c 0,65,66
 281 70 281 70 280 96.5 c 128,-1,67
 279 123 279 123 278 134 c 0,68,69
 277 146 277 146 277 222 c 128,-1,70
 277 298 277 298 278 309 c 0,71,72
 279 319 279 319 280 337.5 c 128,-1,73
 281 356 281 356 283 359 c 0,74,75
 286 362 286 362 287 385 c 0,76,77
 288 397 288 397 290 400 c 0,78,79
 292 402 292 402 292 406.5 c 128,-1,80
 292 411 292 411 291 412 c 0,81,82
 287 416 287 416 280 420 c 0,83,84
 277 422 277 422 272.5 426.5 c 128,-1,85
 268 431 268 431 267 437 c 0,86,87
 266 442 266 442 266 453.5 c 128,-1,88
 266 465 266 465 267 471 c 256,89,90
 268 477 268 477 269.5 478.5 c 128,-1,91
 271 480 271 480 273 484 c 0,92,93
 276 490 276 490 281 496 c 0,94,95
 288 502 288 502 291.5 503 c 128,-1,96
 295 504 295 504 297.5 506.5 c 128,-1,97
 300 509 300 509 309 510 c 0,98,99
 329 511 329 511 337 506 c 0,100,101
 342 503 342 503 343 503 c 128,-1,102
 344 503 344 503 346.5 500.5 c 128,-1,103
 349 498 349 498 351.5 496.5 c 128,-1,104
 354 495 354 495 354.5 492 c 128,-1,105
 355 489 355 489 358 486.5 c 128,-1,106
 361 484 361 484 361 476 c 0,107,108
 363 451 363 451 359 449 c 0,109,110
 357 448 357 448 355 444 c 0,111,112
 350 431 350 431 342 428 c 0,113,114
 339 427 339 427 337 424 c 128,-1,115
 335 421 335 421 332 421 c 0,116,117
 323 419 323 419 323 411 c 0,118,119
 323 409 323 409 322 393.5 c 128,-1,120
 321 378 321 378 320 376 c 0,121,122
 317 373 317 373 315 351 c 0,123,124
 314 336 314 336 313 332 c 0,125,126
 309 326 309 326 309 219 c 0,127,128
 309 107 309 107 313 97 c 0,129,130
 314 93 314 93 315 73 c 128,-1,131
 316 53 316 53 317 50 c 0,132,133
 319 45 319 45 317 34 c 256,134,135
 315 23 315 23 311 20 c 0,136,137
 308 17 308 17 302 18 c 0,57,58
511.5 511 m 128,-1,139
 508 514 508 514 507.5 517 c 128,-1,140
 507 520 507 520 505 523.5 c 128,-1,141
 503 527 503 527 501.5 531 c 128,-1,142
 500 535 500 535 498 537 c 128,-1,143
 496 539 496 539 493 536 c 0,144,145
 484 527 484 527 472 526 c 0,146,147
 464 525 464 525 460 528 c 128,-1,148
 456 531 456 531 456 536.5 c 128,-1,149
 456 542 456 542 458 543 c 128,-1,150
 460 544 460 544 462 549 c 128,-1,151
 464 554 464 554 465.5 556 c 128,-1,152
 467 558 467 558 467 562 c 0,153,154
 466 567 466 567 456 570 c 0,155,156
 444 574 444 574 443 582 c 0,157,158
 443 594 443 594 446 595 c 0,159,160
 448 596 448 596 449 598 c 128,-1,161
 450 600 450 600 458 600.5 c 128,-1,162
 466 601 466 601 469 604 c 2,163,-1
 471 606 l 1,164,-1
 466 612 l 2,165,166
 461 617 461 617 460.5 620 c 128,-1,167
 460 623 460 623 459 624 c 0,168,169
 454 629 454 629 460 638 c 256,170,171
 466 647 466 647 474 647 c 0,172,173
 485 647 485 647 485 643 c 0,174,175
 485 642 485 642 489 641 c 128,-1,176
 493 640 493 640 495 640 c 0,177,178
 499 641 499 641 501 651 c 0,179,180
 501 654 501 654 504.5 657 c 128,-1,181
 508 660 508 660 515 660 c 128,-1,182
 522 660 522 660 526 656 c 128,-1,183
 530 652 530 652 530.5 647 c 128,-1,184
 531 642 531 642 533 640 c 2,185,-1
 535 638 l 1,186,-1
 539 640 l 2,187,188
 544 642 544 642 548 647 c 128,-1,189
 552 652 552 652 555 653.5 c 128,-1,190
 558 655 558 655 560 657 c 128,-1,191
 562 659 562 659 569 659 c 128,-1,192
 576 659 576 659 579 655.5 c 128,-1,193
 582 652 582 652 582 644.5 c 128,-1,194
 582 637 582 637 579.5 634 c 128,-1,195
 577 631 577 631 577 628.5 c 128,-1,196
 577 626 577 626 571.5 620 c 128,-1,197
 566 614 566 614 566 613 c 0,198,199
 566 610 566 610 573 607 c 0,200,201
 577 606 577 606 580.5 603.5 c 128,-1,202
 584 601 584 601 585 601 c 0,203,204
 587 601 587 601 588.5 599.5 c 128,-1,205
 590 598 590 598 590 597 c 256,206,207
 590 596 590 596 592 594 c 0,208,209
 597 589 597 589 591 580 c 0,210,211
 587 575 587 575 584.5 573.5 c 128,-1,212
 582 572 582 572 574 571 c 0,213,214
 564 571 564 571 562 568 c 2,215,-1
 560 566 l 1,216,-1
 564 562 l 2,217,218
 579 548 579 548 582 538 c 0,219,220
 583 531 583 531 579 530 c 0,221,222
 578 529 578 529 575 525 c 128,-1,223
 572 521 572 521 568 520 c 0,224,225
 560 519 560 519 556 522 c 0,226,227
 554 524 554 524 550.5 525 c 128,-1,228
 547 526 547 526 546 528.5 c 128,-1,229
 545 531 545 531 543 532 c 256,230,231
 541 533 541 533 539 530.5 c 128,-1,232
 537 528 537 528 537 524 c 0,233,234
 537 518 537 518 534 516 c 128,-1,235
 531 514 531 514 529 510.5 c 128,-1,236
 527 507 527 507 521 507.5 c 128,-1,138
 515 508 515 508 511.5 511 c 128,-1,139
EndSplineSet
EndChar

StartChar: O
Encoding: 79 79 17
Width: 1000
GlyphClass: 1
Flags: W
LayerCount: 2
Fore
SplineSet
595 15 m 256,0,1
 594 16 594 16 587 17 c 128,-1,2
 580 18 580 18 576.5 20.5 c 128,-1,3
 573 23 573 23 570.5 24 c 128,-1,4
 568 25 568 25 567 27.5 c 128,-1,5
 566 30 566 30 564.5 31 c 128,-1,6
 563 32 563 32 561 36 c 0,7,8
 557 43 557 43 542 44 c 0,9,10
 529 44 529 44 525.5 46.5 c 128,-1,11
 522 49 522 49 514.5 50 c 128,-1,12
 507 51 507 51 503.5 53.5 c 128,-1,13
 500 56 500 56 495.5 56.5 c 128,-1,14
 491 57 491 57 489 59 c 0,15,16
 485 63 485 63 479 63 c 0,17,18
 477 63 477 63 474 65.5 c 128,-1,19
 471 68 471 68 467.5 69.5 c 128,-1,20
 464 71 464 71 463.5 72 c 128,-1,21
 463 73 463 73 458.5 75 c 128,-1,22
 454 77 454 77 451 79.5 c 128,-1,23
 448 82 448 82 446.5 82 c 128,-1,24
 445 82 445 82 438.5 88 c 128,-1,25
 432 94 432 94 429 95.5 c 128,-1,26
 426 97 426 97 423.5 99.5 c 128,-1,27
 421 102 421 102 420 103.5 c 128,-1,28
 419 105 419 105 417 107 c 128,-1,29
 415 109 415 109 413 110.5 c 128,-1,30
 411 112 411 112 406.5 117 c 128,-1,31
 402 122 402 122 401 122 c 128,-1,32
 400 122 400 122 399 125 c 0,33,34
 396 131 396 131 388 139 c 0,35,36
 384 143 384 143 384 144 c 128,-1,37
 384 145 384 145 381 147 c 128,-1,38
 378 149 378 149 378 151 c 128,-1,39
 378 153 378 153 375.5 156 c 128,-1,40
 373 159 373 159 371.5 162 c 128,-1,41
 370 165 370 165 368 166 c 128,-1,42
 366 167 366 167 365 171 c 128,-1,43
 364 175 364 175 362 177 c 0,44,45
 358 181 358 181 358 185 c 0,46,47
 358 187 358 187 355.5 190 c 128,-1,48
 353 193 353 193 352 197.5 c 128,-1,49
 351 202 351 202 349 204 c 128,-1,50
 347 206 347 206 346.5 211 c 128,-1,51
 346 216 346 216 343.5 218.5 c 128,-1,52
 341 221 341 221 340 231.5 c 128,-1,53
 339 242 339 242 336.5 245.5 c 128,-1,54
 334 249 334 249 333 259.5 c 128,-1,55
 332 270 332 270 330 277 c 0,56,57
 327 292 327 292 327 314 c 2,58,-1
 327 331 l 1,59,-1
 330 333 l 2,60,61
 333 336 333 336 333 337.5 c 128,-1,62
 333 339 333 339 336.5 342.5 c 128,-1,63
 340 346 340 346 343 345.5 c 128,-1,64
 346 345 346 345 347.5 345 c 128,-1,65
 349 345 349 345 349 343.5 c 128,-1,66
 349 342 349 342 352 339 c 0,67,68
 358 332 358 332 358 317 c 0,69,70
 358 310 358 310 359.5 306 c 128,-1,71
 361 302 361 302 362 283 c 0,72,73
 363 261 363 261 366 256 c 0,74,75
 368 255 368 255 369 246.5 c 128,-1,76
 370 238 370 238 372 235 c 0,77,78
 376 230 376 230 376 219 c 0,79,80
 376 218 376 218 378.5 215 c 128,-1,81
 381 212 381 212 382 207.5 c 128,-1,82
 383 203 383 203 385.5 200.5 c 128,-1,83
 388 198 388 198 389 193.5 c 128,-1,84
 390 189 390 189 391.5 188.5 c 128,-1,85
 393 188 393 188 395.5 183 c 128,-1,86
 398 178 398 178 399 177.5 c 128,-1,87
 400 177 400 177 401 174 c 0,88,89
 403 169 403 169 411 161 c 0,90,91
 414 157 414 157 417.5 153 c 128,-1,92
 421 149 421 149 424.5 145.5 c 128,-1,93
 428 142 428 142 428 141.5 c 128,-1,94
 428 141 428 141 433 136 c 128,-1,95
 438 131 438 131 439 131 c 128,-1,96
 440 131 440 131 441 128.5 c 128,-1,97
 442 126 442 126 444.5 125 c 128,-1,98
 447 124 447 124 447.5 122 c 128,-1,99
 448 120 448 120 451.5 118.5 c 128,-1,100
 455 117 455 117 455 116 c 128,-1,101
 455 115 455 115 459 113 c 128,-1,102
 463 111 463 111 466 108.5 c 128,-1,103
 469 106 469 106 470 106 c 128,-1,104
 471 106 471 106 475 102.5 c 128,-1,105
 479 99 479 99 481.5 98.5 c 128,-1,106
 484 98 484 98 486 96 c 128,-1,107
 488 94 488 94 493 92.5 c 128,-1,108
 498 91 498 91 500.5 89 c 128,-1,109
 503 87 503 87 507 86 c 128,-1,110
 511 85 511 85 515 82.5 c 128,-1,111
 519 80 519 80 526.5 79 c 128,-1,112
 534 78 534 78 539 76 c 0,113,114
 543 74 543 74 549 74 c 128,-1,115
 555 74 555 74 558 75 c 0,116,117
 560 76 560 76 563.5 81 c 128,-1,118
 567 86 567 86 570 86.5 c 128,-1,119
 573 87 573 87 575.5 89.5 c 128,-1,120
 578 92 578 92 592 92 c 128,-1,121
 606 92 606 92 608 89.5 c 128,-1,122
 610 87 610 87 613.5 85.5 c 128,-1,123
 617 84 617 84 621 80.5 c 128,-1,124
 625 77 625 77 626.5 75 c 128,-1,125
 628 73 628 73 629.5 69 c 128,-1,126
 631 65 631 65 633 62.5 c 128,-1,127
 635 60 635 60 635 50 c 2,128,-1
 635 40 l 1,129,-1
 631 34 l 2,130,131
 629 30 629 30 623.5 24 c 128,-1,132
 618 18 618 18 617 18 c 256,133,134
 616 18 616 18 608 16 c 0,135,136
 596 14 596 14 595 15 c 256,0,1
590.5 249.5 m 128,-1,138
 587 253 587 253 587 256 c 128,-1,139
 587 259 587 259 584 263 c 0,140,141
 580 267 580 267 583 272 c 0,142,143
 583 274 583 274 580 275 c 0,144,145
 575 278 575 278 571 274 c 0,146,147
 569 272 569 272 567.5 272 c 128,-1,148
 566 272 566 272 563.5 269 c 128,-1,149
 561 266 561 266 552 266 c 128,-1,150
 543 266 543 266 540.5 268.5 c 128,-1,151
 538 271 538 271 537 271 c 128,-1,152
 536 271 536 271 536 275.5 c 128,-1,153
 536 280 536 280 538.5 282.5 c 128,-1,154
 541 285 541 285 541.5 289 c 128,-1,155
 542 293 542 293 544.5 294.5 c 128,-1,156
 547 296 547 296 547 299.5 c 128,-1,157
 547 303 547 303 545 305 c 0,158,159
 539 311 539 311 530 311 c 0,160,161
 529 311 529 311 526 314 c 128,-1,162
 523 317 523 317 523 325 c 128,-1,163
 523 333 523 333 525 333.5 c 128,-1,164
 527 334 527 334 528 336 c 0,165,166
 530 339 530 339 536 339 c 0,167,168
 547 339 547 339 549 343 c 0,169,170
 552 346 552 346 545 353 c 0,171,172
 541 356 541 356 541 359 c 0,173,174
 541 365 541 365 537 367 c 0,175,176
 534 369 534 369 538 373 c 0,177,178
 545 381 545 381 545 383 c 0,179,180
 545 384 545 384 547 385 c 0,181,182
 555 388 555 388 562 382 c 0,183,184
 565 379 565 379 567 379 c 128,-1,185
 569 379 569 379 572.5 377.5 c 128,-1,186
 576 376 576 376 577.5 378.5 c 128,-1,187
 579 381 579 381 580 385 c 0,188,189
 581 392 581 392 585 395 c 256,190,191
 589 398 589 398 595.5 397.5 c 128,-1,192
 602 397 602 397 602.5 396 c 128,-1,193
 603 395 603 395 605.5 392.5 c 128,-1,194
 608 390 608 390 609.5 384 c 128,-1,195
 611 378 611 378 613 376 c 128,-1,196
 615 374 615 374 617.5 376 c 128,-1,197
 620 378 620 378 627 385 c 128,-1,198
 634 392 634 392 635.5 392 c 128,-1,199
 637 392 637 392 640 395 c 128,-1,200
 643 398 643 398 648.5 397.5 c 128,-1,201
 654 397 654 397 655.5 395 c 128,-1,202
 657 393 657 393 659 392.5 c 128,-1,203
 661 392 661 392 661 384.5 c 128,-1,204
 661 377 661 377 658.5 373.5 c 128,-1,205
 656 370 656 370 656 367.5 c 128,-1,206
 656 365 656 365 652 361 c 0,207,208
 644 353 644 353 644 351 c 0,209,210
 644 348 644 348 651 346 c 0,211,212
 656 345 656 345 658 343 c 128,-1,213
 660 341 660 341 664 339.5 c 128,-1,214
 668 338 668 338 668 336.5 c 128,-1,215
 668 335 668 335 670.5 332 c 128,-1,216
 673 329 673 329 673 327 c 0,217,218
 673 322 673 322 665 314 c 0,219,220
 661 311 661 311 653 311 c 0,221,222
 640 311 640 311 638 307 c 0,223,224
 638 305 638 305 646.5 296.5 c 128,-1,225
 655 288 655 288 655.5 285.5 c 128,-1,226
 656 283 656 283 659 279 c 0,227,228
 662 274 662 274 658 270 c 0,229,230
 656 268 656 268 654 264 c 0,231,232
 651 259 651 259 644 259 c 0,233,234
 638 259 638 259 634.5 262 c 128,-1,235
 631 265 631 265 629 265.5 c 128,-1,236
 627 266 627 266 627 267 c 128,-1,237
 627 268 627 268 625 270 c 128,-1,238
 623 272 623 272 622 272 c 0,239,240
 617 272 617 272 616 263 c 0,241,242
 615 257 615 257 609 251.5 c 128,-1,243
 603 246 603 246 598.5 246 c 128,-1,137
 594 246 594 246 590.5 249.5 c 128,-1,138
343 389 m 0,244,245
 340 390 340 390 340 392.5 c 128,-1,246
 340 395 340 395 337 398 c 2,247,-1
 333 401 l 1,248,-1
 333 418 l 2,249,250
 333 435 333 435 335.5 438.5 c 128,-1,251
 338 442 338 442 339.5 449.5 c 128,-1,252
 341 457 341 457 343 460.5 c 128,-1,253
 345 464 345 464 346 469.5 c 128,-1,254
 347 475 347 475 349 476.5 c 128,-1,255
 351 478 351 478 352.5 481.5 c 128,-1,256
 354 485 354 485 356 487 c 128,-1,257
 358 489 358 489 358 491 c 0,258,259
 358 496 358 496 363 500 c 0,260,261
 365 502 365 502 365.5 505 c 128,-1,262
 366 508 366 508 368 509 c 128,-1,263
 370 510 370 510 371.5 514.5 c 128,-1,264
 373 519 373 519 375.5 522 c 128,-1,265
 378 525 378 525 381 529 c 128,-1,266
 384 533 384 533 387.5 536.5 c 128,-1,267
 391 540 391 540 391 541 c 128,-1,268
 391 542 391 542 398 549 c 0,269,270
 407 559 407 559 415 568 c 0,271,272
 422 576 422 576 438 590 c 0,273,274
 443 594 443 594 446 597 c 0,275,276
 458 607 458 607 460 607 c 0,277,278
 461 607 461 607 464 610 c 0,279,280
 472 617 472 617 481 620 c 0,281,282
 484 621 484 621 487 623.5 c 128,-1,283
 490 626 490 626 492 626 c 0,284,285
 498 626 498 626 501 630 c 0,286,287
 502 631 502 631 507.5 632.5 c 128,-1,288
 513 634 513 634 515.5 636 c 128,-1,289
 518 638 518 638 526.5 639 c 128,-1,290
 535 640 535 640 540.5 642 c 128,-1,291
 546 644 546 644 560 645 c 0,292,293
 572 646 572 646 575.5 647 c 128,-1,294
 579 648 579 648 580 654 c 0,295,296
 581 658 581 658 583 659 c 128,-1,297
 585 660 585 660 586.5 664 c 128,-1,298
 588 668 588 668 593 670.5 c 128,-1,299
 598 673 598 673 600.5 675 c 128,-1,300
 603 677 603 677 611.5 677 c 128,-1,301
 620 677 620 677 626.5 674 c 128,-1,302
 633 671 633 671 636 668 c 0,303,304
 649 658 649 658 649 655 c 0,305,306
 649 653 649 653 652 649.5 c 128,-1,307
 655 646 655 646 656.5 641.5 c 128,-1,308
 658 637 658 637 659.5 635 c 128,-1,309
 661 633 661 633 661 624 c 128,-1,310
 661 615 661 615 658.5 611.5 c 128,-1,311
 656 608 656 608 655 603 c 0,312,313
 652 590 652 590 634 581 c 0,314,315
 626 578 626 578 616 578 c 128,-1,316
 606 578 606 578 603.5 580 c 128,-1,317
 601 582 601 582 596 583 c 0,318,319
 591 585 591 585 583 591.5 c 128,-1,320
 575 598 575 598 574 603 c 0,321,322
 573 606 573 606 571 608 c 0,323,324
 570 610 570 610 565.5 611 c 128,-1,325
 561 612 561 612 560 611.5 c 128,-1,326
 559 611 559 611 546.5 610 c 128,-1,327
 534 609 534 609 529.5 606.5 c 128,-1,328
 525 604 525 604 519.5 603 c 128,-1,329
 514 602 514 602 511 599.5 c 128,-1,330
 508 597 508 597 505 596.5 c 128,-1,331
 502 596 502 596 499.5 593.5 c 128,-1,332
 497 591 497 591 493 590 c 128,-1,333
 489 589 489 589 487 587 c 128,-1,334
 485 585 485 585 481 583 c 0,335,336
 471 577 471 577 460 566 c 0,337,338
 450 556 450 556 449 556 c 128,-1,339
 448 556 448 556 447 553.5 c 128,-1,340
 446 551 446 551 445 551 c 128,-1,341
 444 551 444 551 436 543 c 128,-1,342
 428 535 428 535 428 534 c 128,-1,343
 428 533 428 533 425 531 c 128,-1,344
 422 529 422 529 422 528 c 0,345,346
 422 526 422 526 412 517 c 0,347,348
 409 513 409 513 407.5 509.5 c 128,-1,349
 406 506 406 506 405 506 c 128,-1,350
 404 506 404 506 402 502 c 128,-1,351
 400 498 400 498 398 496.5 c 128,-1,352
 396 495 396 495 395 491 c 128,-1,353
 394 487 394 487 391.5 485 c 128,-1,354
 389 483 389 483 389 481.5 c 128,-1,355
 389 480 389 480 386 476.5 c 128,-1,356
 383 473 383 473 382 468.5 c 128,-1,357
 381 464 381 464 379 462.5 c 128,-1,358
 377 461 377 461 375.5 455.5 c 128,-1,359
 374 450 374 450 372 447.5 c 128,-1,360
 370 445 370 445 369 440 c 128,-1,361
 368 435 368 435 366 434 c 0,362,363
 362 429 362 429 362 420 c 0,364,365
 362 416 362 416 359 411.5 c 128,-1,366
 356 407 356 407 355.5 402 c 128,-1,367
 355 397 355 397 353 395.5 c 128,-1,368
 351 394 351 394 350 391 c 0,369,370
 348 387 348 387 343 389 c 0,244,245
EndSplineSet
EndChar

StartChar: P
Encoding: 80 80 18
Width: 1000
GlyphClass: 1
Flags: W
LayerCount: 2
Fore
SplineSet
345.5 22.5 m 128,-1,1
 340 28 340 28 339.5 33 c 128,-1,2
 339 38 339 38 341.5 40.5 c 128,-1,3
 344 43 344 43 345.5 46.5 c 128,-1,4
 347 50 347 50 349.5 52.5 c 128,-1,5
 352 55 352 55 352 56.5 c 128,-1,6
 352 58 352 58 354.5 61 c 128,-1,7
 357 64 357 64 358.5 69.5 c 128,-1,8
 360 75 360 75 361 75 c 0,9,10
 363 76 363 76 365 85 c 0,11,12
 366 90 366 90 368 93 c 128,-1,13
 370 96 370 96 371 100.5 c 128,-1,14
 372 105 372 105 374.5 111 c 128,-1,15
 377 117 377 117 377 120 c 0,16,17
 377 128 377 128 382 137 c 0,18,19
 384 142 384 142 384.5 152 c 128,-1,20
 385 162 385 162 386.5 166.5 c 128,-1,21
 388 171 388 171 389.5 174 c 128,-1,22
 391 177 391 177 391.5 198 c 128,-1,23
 392 219 392 219 394.5 220.5 c 128,-1,24
 397 222 397 222 400 225 c 128,-1,25
 403 228 403 228 407.5 228 c 128,-1,26
 412 228 412 228 415.5 224.5 c 128,-1,27
 419 221 419 221 421 213 c 0,28,29
 424 195 424 195 422 187 c 0,30,31
 421 182 421 182 420.5 165 c 128,-1,32
 420 148 420 148 418 147 c 0,33,34
 415 143 415 143 414 130 c 0,35,36
 413 123 413 123 410.5 120 c 128,-1,37
 408 117 408 117 408 116 c 0,38,39
 408 102 408 102 404 97 c 0,40,41
 402 94 402 94 401.5 88 c 128,-1,42
 401 82 401 82 398.5 79 c 128,-1,43
 396 76 396 76 394.5 70.5 c 128,-1,44
 393 65 393 65 391.5 63.5 c 128,-1,45
 390 62 390 62 388.5 57 c 128,-1,46
 387 52 387 52 385.5 50 c 128,-1,47
 384 48 384 48 382 44 c 128,-1,48
 380 40 380 40 377.5 37 c 128,-1,49
 375 34 375 34 375 33 c 128,-1,50
 375 32 375 32 370.5 27 c 128,-1,51
 366 22 366 22 365 22 c 128,-1,52
 364 22 364 22 362 20 c 128,-1,53
 360 18 360 18 355.5 17.5 c 128,-1,0
 351 17 351 17 345.5 22.5 c 128,-1,1
399 265 m 0,54,55
 397 266 397 266 385 277.5 c 128,-1,56
 373 289 373 289 371.5 292.5 c 128,-1,57
 370 296 370 296 368 298.5 c 128,-1,58
 366 301 366 301 366 311 c 128,-1,59
 366 321 366 321 368 323.5 c 128,-1,60
 370 326 370 326 371 329.5 c 128,-1,61
 372 333 372 333 376 336.5 c 128,-1,62
 380 340 380 340 383.5 343 c 128,-1,63
 387 346 387 346 390 346 c 0,64,65
 398 346 398 346 406 352 c 0,66,67
 410 355 410 355 410.5 362 c 128,-1,68
 411 369 411 369 411 379 c 128,-1,69
 411 389 411 389 413.5 393 c 128,-1,70
 416 397 416 397 418 411 c 0,71,72
 422 442 422 442 420 453 c 0,73,74
 418 458 418 458 417 470 c 128,-1,75
 416 482 416 482 414 485 c 0,76,77
 410 493 410 493 415 506 c 0,78,79
 419 513 419 513 424 515 c 0,80,81
 431 517 431 517 437 512 c 0,82,83
 445 505 445 505 446 488 c 0,84,85
 447 473 447 473 451 470 c 0,86,87
 452 468 452 468 452 440 c 2,88,-1
 452 411 l 1,89,-1
 450 407 l 2,90,91
 447 403 447 403 446 393 c 128,-1,92
 445 383 445 383 443 379 c 128,-1,93
 441 375 441 375 440 369 c 128,-1,94
 439 363 439 363 437 360 c 0,95,96
 433 356 433 356 433 348 c 0,97,98
 433 337 433 337 437 334 c 0,99,100
 439 332 439 332 440.5 327.5 c 128,-1,101
 442 323 442 323 443.5 321 c 128,-1,102
 445 319 445 319 445.5 311.5 c 128,-1,103
 446 304 446 304 443 301.5 c 128,-1,104
 440 299 440 299 439.5 294.5 c 128,-1,105
 439 290 439 290 438 289 c 0,106,107
 434 285 434 285 427 275 c 0,108,109
 425 272 425 272 424.5 272 c 128,-1,110
 424 272 424 272 419 269 c 0,111,112
 410 263 410 263 399 265 c 0,54,55
585 343 m 0,113,114
 581 344 581 344 578 347 c 128,-1,115
 575 350 575 350 574 354 c 128,-1,116
 573 358 573 358 570.5 361.5 c 128,-1,117
 568 365 568 365 569 366 c 0,118,119
 571 370 571 370 567 373 c 0,120,121
 562 376 562 376 558 372 c 0,122,123
 555 370 555 370 554 370 c 128,-1,124
 553 370 553 370 550 366 c 0,125,126
 546 362 546 362 536 362 c 0,127,128
 530 363 530 363 527.5 365.5 c 128,-1,129
 525 368 525 368 524 368 c 128,-1,130
 523 368 523 368 522.5 370.5 c 128,-1,131
 522 373 522 373 522.5 375.5 c 128,-1,132
 523 378 523 378 524 379 c 0,133,134
 526 380 526 380 527.5 384.5 c 128,-1,135
 529 389 529 389 530 391 c 0,136,137
 535 394 535 394 533 399 c 0,138,139
 532 404 532 404 521 407 c 0,140,141
 515 409 515 409 512 411.5 c 128,-1,142
 509 414 509 414 509 421.5 c 128,-1,143
 509 429 509 429 511.5 430 c 128,-1,144
 514 431 514 431 516 433.5 c 128,-1,145
 518 436 518 436 526 436.5 c 128,-1,146
 534 437 534 437 535.5 439.5 c 128,-1,147
 537 442 537 442 535 445 c 128,-1,148
 533 448 533 448 530.5 450 c 128,-1,149
 528 452 528 452 527 457 c 128,-1,150
 526 462 526 462 524 464 c 0,151,152
 520 468 520 468 524 470 c 0,153,154
 525 471 525 471 529 476 c 0,155,156
 533 482 533 482 540 482 c 0,157,158
 544 482 544 482 547.5 479.5 c 128,-1,159
 551 477 551 477 554.5 476 c 128,-1,160
 558 475 558 475 560 473.5 c 128,-1,161
 562 472 562 472 564 475 c 128,-1,162
 566 478 566 478 566.5 483 c 128,-1,163
 567 488 567 488 571 492 c 128,-1,164
 575 496 575 496 582 495.5 c 128,-1,165
 589 495 589 495 592 491 c 128,-1,166
 595 487 595 487 596 481 c 128,-1,167
 597 475 597 475 599 473 c 0,168,169
 601 472 601 472 602 472.5 c 128,-1,170
 603 473 603 473 613 483 c 0,171,172
 621 490 621 490 622.5 490 c 128,-1,173
 624 490 624 490 626.5 492 c 128,-1,174
 629 494 629 494 635 494 c 128,-1,175
 641 494 641 494 642 492.5 c 128,-1,176
 643 491 643 491 645 490 c 128,-1,177
 647 489 647 489 647 481 c 128,-1,178
 647 473 647 473 645.5 471 c 128,-1,179
 644 469 644 469 643 464.5 c 128,-1,180
 642 460 642 460 639.5 459 c 128,-1,181
 637 458 637 458 635.5 455 c 128,-1,182
 634 452 634 452 632 451 c 0,183,184
 627 446 627 446 638 443 c 0,185,186
 644 442 644 442 646 440 c 128,-1,187
 648 438 648 438 650.5 437 c 128,-1,188
 653 436 653 436 657 429 c 2,189,-1
 661 422 l 1,190,-1
 658 420 l 2,191,192
 656 418 656 418 656 417 c 128,-1,193
 656 416 656 416 651.5 411.5 c 128,-1,194
 647 407 647 407 641 408 c 0,195,196
 630 408 630 408 627 405 c 2,197,-1
 624 403 l 1,198,-1
 631 396 l 2,199,200
 642 385 642 385 642 381 c 0,201,202
 642 380 642 380 645 376 c 0,203,204
 649 371 649 371 645 368 c 0,205,206
 642 366 642 366 640 361 c 2,207,-1
 637 356 l 1,208,-1
 631 356 l 2,209,210
 624 356 624 356 620.5 359 c 128,-1,211
 617 362 617 362 615.5 362 c 128,-1,212
 614 362 614 362 613 365 c 0,213,214
 611 368 611 368 608 368 c 0,215,216
 603 369 603 369 602 360 c 0,217,218
 602 354 602 354 596 349 c 0,219,220
 590 343 590 343 585 343 c 0,113,114
405 563 m 0,221,222
 399 563 399 563 397 565 c 0,223,224
 394 566 394 566 388.5 572 c 128,-1,225
 383 578 383 578 383 579 c 128,-1,226
 383 580 383 580 381 582.5 c 128,-1,227
 379 585 379 585 379 601 c 128,-1,228
 379 617 379 617 381 620 c 128,-1,229
 383 623 383 623 383 624 c 128,-1,230
 383 625 383 625 389 631 c 128,-1,231
 395 637 395 637 400 638.5 c 128,-1,232
 405 640 405 640 407 642 c 128,-1,233
 409 644 409 644 416 644.5 c 128,-1,234
 423 645 423 645 427.5 642.5 c 128,-1,235
 432 640 432 640 436.5 638.5 c 128,-1,236
 441 637 441 637 446.5 632 c 128,-1,237
 452 627 452 627 453 622 c 0,238,239
 455 618 455 618 457.5 614.5 c 128,-1,240
 460 611 460 611 459.5 599 c 128,-1,241
 459 587 459 587 457.5 585 c 128,-1,242
 456 583 456 583 454 579.5 c 128,-1,243
 452 576 452 576 445 570 c 128,-1,244
 438 564 438 564 429 563 c 0,245,246
 416 561 416 561 405 563 c 0,221,222
EndSplineSet
EndChar

StartChar: Q
Encoding: 81 81 19
Width: 1000
GlyphClass: 1
Flags: W
LayerCount: 2
Fore
SplineSet
750 10 m 0,0,1
 747 12 747 12 730.5 27.5 c 128,-1,2
 714 43 714 43 710 47 c 0,3,4
 707 51 707 51 706 53.5 c 128,-1,5
 705 56 705 56 696 65 c 2,6,-1
 686 74 l 1,7,-1
 682 73 l 2,8,9
 677 71 677 71 672 67 c 128,-1,10
 667 63 667 63 662 61 c 128,-1,11
 657 59 657 59 656.5 58 c 128,-1,12
 656 57 656 57 651 54 c 128,-1,13
 646 51 646 51 644 46 c 0,14,15
 639 34 639 34 623 27 c 0,16,17
 619 24 619 24 619 23 c 256,18,19
 619 22 619 22 606.5 20.5 c 128,-1,20
 594 19 594 19 582 20 c 128,-1,21
 570 21 570 21 564 25 c 0,22,23
 550 34 550 34 547 44 c 0,24,25
 545 51 545 51 544 54 c 0,26,27
 540 59 540 59 544 66 c 0,28,29
 546 70 546 70 547 74 c 0,30,31
 549 83 549 83 560 92 c 0,32,33
 566 97 566 97 578 103 c 0,34,35
 586 107 586 107 597.5 107 c 128,-1,36
 609 107 609 107 612.5 105 c 128,-1,37
 616 103 616 103 621.5 100.5 c 128,-1,38
 627 98 627 98 633.5 95 c 128,-1,39
 640 92 640 92 645 93 c 0,40,41
 649 94 649 94 654 98.5 c 128,-1,42
 659 103 659 103 659 105 c 0,43,44
 659 111 659 111 651 117 c 0,45,46
 648 120 648 120 638 133 c 0,47,48
 635 137 635 137 629 143 c 128,-1,49
 623 149 623 149 620.5 152 c 128,-1,50
 618 155 618 155 614 159 c 0,51,52
 604 170 604 170 602.5 173 c 128,-1,53
 601 176 601 176 601 181 c 0,54,55
 601 188 601 188 605 192 c 0,56,57
 614 199 614 199 622 197 c 0,58,59
 627 196 627 196 627 195 c 128,-1,60
 627 194 627 194 631 192 c 128,-1,61
 635 190 635 190 636 188 c 0,62,63
 637 185 637 185 658 166 c 0,64,65
 664 161 664 161 665.5 157.5 c 128,-1,66
 667 154 667 154 669 151.5 c 128,-1,67
 671 149 671 149 677 142.5 c 128,-1,68
 683 136 683 136 688 135 c 0,69,70
 695 134 695 134 701 141 c 0,71,72
 705 146 705 146 708.5 149.5 c 128,-1,73
 712 153 712 153 714 157 c 128,-1,74
 716 161 716 161 717.5 161.5 c 128,-1,75
 719 162 719 162 721.5 167.5 c 128,-1,76
 724 173 724 173 726 175.5 c 128,-1,77
 728 178 728 178 730 183 c 0,78,79
 734 191 734 191 742 204 c 0,80,81
 744 207 744 207 744 208.5 c 128,-1,82
 744 210 744 210 747.5 215 c 128,-1,83
 751 220 751 220 751.5 224.5 c 128,-1,84
 752 229 752 229 756 235 c 0,85,86
 760 244 760 244 760 252 c 128,-1,87
 760 260 760 260 754 263 c 0,88,89
 751 265 751 265 750.5 266.5 c 128,-1,90
 750 268 750 268 748 269 c 128,-1,91
 746 270 746 270 744.5 274.5 c 128,-1,92
 743 279 743 279 740 282 c 128,-1,93
 737 285 737 285 737.5 295.5 c 128,-1,94
 738 306 738 306 742 313 c 0,95,96
 752 326 752 326 763 331 c 0,97,98
 771 335 771 335 779.5 335 c 128,-1,99
 788 335 788 335 790 333 c 128,-1,100
 792 331 792 331 796.5 330 c 128,-1,101
 801 329 801 329 808.5 322 c 128,-1,102
 816 315 816 315 817 311.5 c 128,-1,103
 818 308 818 308 821 304 c 128,-1,104
 824 300 824 300 824 288.5 c 128,-1,105
 824 277 824 277 820 272 c 128,-1,106
 816 267 816 267 809 261 c 128,-1,107
 802 255 802 255 800.5 249 c 128,-1,108
 799 243 799 243 797 240.5 c 128,-1,109
 795 238 795 238 794 231.5 c 128,-1,110
 793 225 793 225 790 221 c 128,-1,111
 787 217 787 217 785.5 211 c 128,-1,112
 784 205 784 205 782.5 203.5 c 128,-1,113
 781 202 781 202 778.5 196 c 128,-1,114
 776 190 776 190 774 187.5 c 128,-1,115
 772 185 772 185 772 183.5 c 128,-1,116
 772 182 772 182 768 176 c 128,-1,117
 764 170 764 170 764 169 c 0,118,119
 764 167 764 167 758.5 157.5 c 128,-1,120
 753 148 753 148 752 147 c 0,121,122
 750 146 750 146 748.5 142.5 c 128,-1,123
 747 139 747 139 743 134 c 256,124,125
 739 129 739 129 736 125 c 256,126,127
 733 121 733 121 725 114 c 128,-1,128
 717 107 717 107 717 101.5 c 128,-1,129
 717 96 717 96 721.5 91.5 c 128,-1,130
 726 87 726 87 730 81 c 0,131,132
 742 67 742 67 744 67 c 0,133,134
 746 66 746 66 747.5 63.5 c 128,-1,135
 749 61 749 61 752 59 c 0,136,137
 773 38 773 38 773 34 c 0,138,139
 773 33 773 33 775 30.5 c 128,-1,140
 777 28 777 28 777 25 c 0,141,142
 777 16 777 16 768 10 c 0,143,144
 760 4 760 4 750 10 c 0,0,1
500 264 m 0,145,146
 496 264 496 264 493.5 266.5 c 128,-1,147
 491 269 491 269 490 269 c 128,-1,148
 489 269 489 269 487.5 275 c 128,-1,149
 486 281 486 281 483.5 283.5 c 128,-1,150
 481 286 481 286 480 289 c 128,-1,151
 479 292 479 292 477 294.5 c 128,-1,152
 475 297 475 297 472.5 296 c 128,-1,153
 470 295 470 295 462 288 c 0,154,155
 457 284 457 284 445 284 c 0,156,157
 436 284 436 284 432 287 c 128,-1,158
 428 290 428 290 428 295 c 128,-1,159
 428 300 428 300 430.5 302 c 128,-1,160
 433 304 433 304 434 308.5 c 128,-1,161
 435 313 435 313 438 315 c 0,162,163
 443 321 443 321 436 328 c 0,164,165
 432 331 432 331 426 332 c 128,-1,166
 420 333 420 333 418.5 334.5 c 128,-1,167
 417 336 417 336 415 338 c 0,168,169
 411 342 411 342 413 352 c 0,170,171
 413 356 413 356 416.5 357 c 128,-1,172
 420 358 420 358 421.5 360 c 128,-1,173
 423 362 423 362 431 363 c 0,174,175
 450 364 450 364 438 378 c 0,176,177
 434 382 434 382 433.5 386.5 c 128,-1,178
 433 391 433 391 430 392 c 0,179,180
 427 396 427 396 429 398 c 0,181,182
 430 398 430 398 431 401 c 256,183,184
 432 404 432 404 437.5 408 c 128,-1,185
 443 412 443 412 446 412 c 0,186,187
 459 412 459 412 460 408 c 0,188,189
 462 406 462 406 468 404 c 128,-1,190
 474 402 474 402 475.5 403.5 c 128,-1,191
 477 405 477 405 480 416 c 0,192,193
 480 419 480 419 484.5 422 c 128,-1,194
 489 425 489 425 497 425 c 128,-1,195
 505 425 505 425 506.5 422.5 c 128,-1,196
 508 420 508 420 510 419 c 128,-1,197
 512 418 512 418 514 411 c 0,198,199
 516 400 516 400 519 400 c 0,200,201
 521 400 521 400 526 404 c 128,-1,202
 531 408 531 408 532 410 c 256,203,204
 533 412 533 412 536 413 c 128,-1,205
 539 414 539 414 540.5 416.5 c 128,-1,206
 542 419 542 419 544 419 c 128,-1,207
 546 419 546 419 548 422 c 128,-1,208
 550 425 550 425 558 425 c 128,-1,209
 566 425 566 425 567.5 423 c 128,-1,210
 569 421 569 421 571 420 c 128,-1,211
 573 419 573 419 573 410.5 c 128,-1,212
 573 402 573 402 571 400 c 128,-1,213
 569 398 569 398 567.5 393.5 c 128,-1,214
 566 389 566 389 560 384 c 0,215,216
 551 376 551 376 555 373 c 0,217,218
 558 371 558 371 562.5 370 c 128,-1,219
 567 369 567 369 569.5 367 c 128,-1,220
 572 365 572 365 576 363.5 c 128,-1,221
 580 362 580 362 581 359.5 c 128,-1,222
 582 357 582 357 584 356 c 0,223,224
 589 352 589 352 584 347 c 0,225,226
 583 345 583 345 583 343 c 128,-1,227
 583 341 583 341 577.5 337 c 128,-1,228
 572 333 572 333 555 332 c 0,229,230
 553 332 553 332 549 330 c 128,-1,231
 545 328 545 328 546.5 325.5 c 128,-1,232
 548 323 548 323 551 321 c 0,233,234
 555 319 555 319 561 313 c 128,-1,235
 567 307 567 307 568 305 c 0,236,237
 569 301 569 301 570.5 300.5 c 128,-1,238
 572 300 572 300 573 295.5 c 128,-1,239
 574 291 574 291 569 287 c 128,-1,240
 564 283 564 283 562 280 c 128,-1,241
 560 277 560 277 553.5 277 c 128,-1,242
 547 277 547 277 542.5 280.5 c 128,-1,243
 538 284 538 284 537 284 c 128,-1,244
 536 284 536 284 532.5 287.5 c 128,-1,245
 529 291 529 291 528 291 c 0,246,247
 525 291 525 291 523 288.5 c 128,-1,248
 521 286 521 286 521 283 c 0,249,250
 521 276 521 276 516 274 c 0,251,252
 512 272 512 272 512 268.5 c 128,-1,253
 512 265 512 265 510 265 c 0,254,255
 505 263 505 263 500 264 c 0,145,146
EndSplineSet
EndChar

StartChar: R
Encoding: 82 82 20
Width: 1000
GlyphClass: 1
Flags: W
LayerCount: 2
Fore
SplineSet
632 16 m 0,0,1
 624 20 624 20 621 26 c 0,2,3
 618 30 618 30 606 43 c 0,4,5
 587 62 587 62 587 64 c 0,6,7
 587 65 587 65 584.5 66 c 128,-1,8
 582 67 582 67 581.5 68.5 c 128,-1,9
 581 70 581 70 578 73 c 0,10,11
 570 82 570 82 569 85 c 0,12,13
 567 88 567 88 558 98 c 0,14,15
 527 131 527 131 521 136 c 0,16,17
 520 137 520 137 518 139 c 0,18,19
 501 157 501 157 499 157 c 0,20,21
 498 157 498 157 496 160 c 128,-1,22
 494 163 494 163 491.5 164 c 128,-1,23
 489 165 489 165 488.5 167 c 128,-1,24
 488 169 488 169 484 171 c 128,-1,25
 480 173 480 173 478.5 175 c 128,-1,26
 477 177 477 177 475.5 177 c 128,-1,27
 474 177 474 177 470.5 180 c 128,-1,28
 467 183 467 183 466 183 c 128,-1,29
 465 183 465 183 463 186 c 128,-1,30
 461 189 461 189 456.5 190 c 128,-1,31
 452 191 452 191 449.5 193.5 c 128,-1,32
 447 196 447 196 443.5 196.5 c 128,-1,33
 440 197 440 197 438 200 c 0,34,35
 431 206 431 206 421 202 c 0,36,37
 417 200 417 200 416.5 199 c 128,-1,38
 416 198 416 198 411 198 c 128,-1,39
 406 198 406 198 404.5 199.5 c 128,-1,40
 403 201 403 201 398.5 202.5 c 128,-1,41
 394 204 394 204 392 206 c 0,42,43
 381 217 381 217 380 220 c 0,44,45
 380 223 380 223 377 225.5 c 128,-1,46
 374 228 374 228 374 244 c 2,47,-1
 374 261 l 1,48,-1
 377 264 l 2,49,50
 380 267 380 267 380 268 c 0,51,52
 380 270 380 270 384 274 c 128,-1,53
 388 278 388 278 390 278 c 0,54,55
 393 279 393 279 397 281 c 0,56,57
 407 286 407 286 412 283 c 256,58,59
 417 280 417 280 423 278 c 0,60,61
 427 277 427 277 428 275 c 128,-1,62
 429 273 429 273 432 272 c 128,-1,63
 435 271 435 271 436 268 c 128,-1,64
 437 265 437 265 439 264 c 128,-1,65
 441 263 441 263 441.5 259.5 c 128,-1,66
 442 256 442 256 445 252.5 c 128,-1,67
 448 249 448 249 449 241 c 0,68,69
 450 229 450 229 457 226 c 0,70,71
 460 225 460 225 461 223.5 c 128,-1,72
 462 222 462 222 465.5 220.5 c 128,-1,73
 469 219 469 219 471.5 216.5 c 128,-1,74
 474 214 474 214 478 213 c 128,-1,75
 482 212 482 212 482 211 c 128,-1,76
 482 210 482 210 486 207.5 c 128,-1,77
 490 205 490 205 491 203.5 c 128,-1,78
 492 202 492 202 496 200.5 c 128,-1,79
 500 199 500 199 500.5 197.5 c 128,-1,80
 501 196 501 196 504 195 c 0,81,82
 508 192 508 192 538 163 c 128,-1,83
 568 134 568 134 575 126 c 0,84,85
 578 121 578 121 582 117 c 0,86,87
 599 101 599 101 599 99 c 128,-1,88
 599 97 599 97 609 88 c 0,89,90
 610 87 610 87 613.5 82.5 c 128,-1,91
 617 78 617 78 628 67 c 0,92,93
 645 49 645 49 645 47 c 0,94,95
 645 46 645 46 647 45 c 0,96,97
 652 40 652 40 652 29 c 0,98,99
 652 19 652 19 646 16 c 0,100,101
 644 15 644 15 639 15 c 128,-1,102
 634 15 634 15 632 16 c 0,0,1
404 323 m 0,103,104
 401 325 401 325 399.5 329 c 128,-1,105
 398 333 398 333 396 333.5 c 128,-1,106
 394 334 394 334 394 373 c 0,107,108
 394 448 394 448 390 459 c 0,109,110
 388 463 388 463 387 490.5 c 128,-1,111
 386 518 386 518 385.5 519 c 128,-1,112
 385 520 385 520 384 527 c 0,113,114
 383 539 383 539 379 548 c 0,115,116
 377 552 377 552 373 554 c 0,117,118
 368 556 368 556 362 561.5 c 128,-1,119
 356 567 356 567 354 572 c 0,120,121
 352 576 352 576 350 578.5 c 128,-1,122
 348 581 348 581 348 590 c 128,-1,123
 348 599 348 599 349.5 601 c 128,-1,124
 351 603 351 603 353 608 c 0,125,126
 359 620 359 620 368 625 c 0,127,128
 380 632 380 632 403 630 c 0,129,130
 416 629 416 629 419 626.5 c 128,-1,131
 422 624 422 624 425 623.5 c 128,-1,132
 428 623 428 623 431 618 c 0,133,134
 440 607 440 607 441 604 c 128,-1,135
 442 601 442 601 442 590 c 0,136,137
 441 580 441 580 438 576.5 c 128,-1,138
 435 573 435 573 435 571.5 c 128,-1,139
 435 570 435 570 433 568 c 128,-1,140
 431 566 431 566 429.5 564 c 128,-1,141
 428 562 428 562 425 561 c 0,142,143
 420 559 420 559 416 553 c 0,144,145
 415 550 415 550 415.5 541 c 128,-1,146
 416 532 416 532 417 520 c 0,147,148
 418 487 418 487 420 483 c 0,149,150
 421 481 421 481 422.5 443 c 128,-1,151
 424 405 424 405 426 400 c 0,152,153
 427 395 427 395 427.5 384 c 128,-1,154
 428 373 428 373 427 369 c 0,155,156
 425 365 425 365 424 354 c 0,157,158
 422 334 422 334 417 328 c 0,159,160
 410 319 410 319 404 323 c 0,103,104
EndSplineSet
EndChar

StartChar: S
Encoding: 83 83 21
Width: 1000
GlyphClass: 1
Flags: W
LayerCount: 2
Fore
SplineSet
424.5 15.5 m 128,-1,1
 417 16 417 16 414.5 17.5 c 128,-1,2
 412 19 412 19 407.5 20 c 128,-1,3
 403 21 403 21 397.5 23 c 128,-1,4
 392 25 392 25 391 25 c 128,-1,5
 390 25 390 25 388.5 26.5 c 128,-1,6
 387 28 387 28 383.5 29.5 c 128,-1,7
 380 31 380 31 379.5 32 c 128,-1,8
 379 33 379 33 375.5 34 c 128,-1,9
 372 35 372 35 371 36.5 c 128,-1,10
 370 38 370 38 366.5 39.5 c 128,-1,11
 363 41 363 41 362.5 41.5 c 128,-1,12
 362 42 362 42 360 43 c 0,13,14
 356 45 356 45 351 50 c 0,15,16
 349 52 349 52 345 55 c 128,-1,17
 341 58 341 58 338 61 c 128,-1,18
 335 64 335 64 334 64 c 128,-1,19
 333 64 333 64 333 65 c 128,-1,20
 333 66 333 66 330.5 70 c 128,-1,21
 328 74 328 74 328 79 c 128,-1,22
 328 84 328 84 330.5 87 c 128,-1,23
 333 90 333 90 335 89.5 c 128,-1,24
 337 89 337 89 338.5 88 c 128,-1,25
 340 87 340 87 343.5 85.5 c 128,-1,26
 347 84 347 84 349 82.5 c 128,-1,27
 351 81 351 81 352.5 80.5 c 128,-1,28
 354 80 354 80 354 79 c 256,29,30
 354 78 354 78 363 71 c 128,-1,31
 372 64 372 64 376 62 c 0,32,33
 379 60 379 60 381 58 c 128,-1,34
 383 56 383 56 384 56 c 128,-1,35
 385 56 385 56 388 54 c 128,-1,36
 391 52 391 52 391.5 52 c 128,-1,37
 392 52 392 52 395 50.5 c 128,-1,38
 398 49 398 49 402.5 47.5 c 128,-1,39
 407 46 407 46 408 45 c 0,40,41
 411 43 411 43 419 42 c 0,42,43
 423 41 423 41 429.5 39.5 c 128,-1,44
 436 38 436 38 449 38 c 0,45,46
 477 39 477 39 480 42 c 0,47,48
 482 43 482 43 482.5 47.5 c 128,-1,49
 483 52 483 52 484.5 54 c 128,-1,50
 486 56 486 56 487 61.5 c 128,-1,51
 488 67 488 67 490 69.5 c 128,-1,52
 492 72 492 72 492 73 c 0,53,54
 492 77 492 77 501 83 c 0,55,56
 504 85 504 85 513 85 c 128,-1,57
 522 85 522 85 527 82 c 0,58,59
 540 75 540 75 546 56 c 0,60,61
 549 45 549 45 545 37 c 0,62,63
 544 34 544 34 543 30 c 128,-1,64
 542 26 542 26 541 26 c 128,-1,65
 540 26 540 26 537 23 c 0,66,67
 532 19 532 19 527 16 c 0,68,69
 525 15 525 15 517 15 c 128,-1,70
 509 15 509 15 505 15 c 0,71,72
 500 16 500 16 497.5 18 c 128,-1,73
 495 20 495 20 486 20 c 128,-1,74
 477 20 477 20 473 18 c 2,75,-1
 469 16 l 1,76,-1
 451 15 l 2,77,0
 432 15 432 15 424.5 15.5 c 128,-1,1
507 103 m 256,78,79
 506 104 506 104 504 106 c 0,80,81
 497 113 497 113 497 120 c 0,82,83
 495 125 495 125 490 123 c 0,84,85
 490 122 490 122 487.5 121 c 128,-1,86
 485 120 485 120 484 119 c 0,87,88
 483 116 483 116 476 116 c 0,89,90
 470 116 470 116 466 119 c 0,91,92
 464 121 464 121 464 124 c 128,-1,93
 464 127 464 127 466 129.5 c 128,-1,94
 468 132 468 132 468.5 135 c 128,-1,95
 469 138 469 138 470 138 c 0,96,97
 476 141 476 141 468 147 c 0,98,99
 466 149 466 149 462 150 c 0,100,101
 452 152 452 152 454 163 c 0,102,103
 454 166 454 166 456.5 167 c 128,-1,104
 459 168 459 168 460 169.5 c 128,-1,105
 461 171 461 171 466 171.5 c 128,-1,106
 471 172 471 172 473 173 c 0,107,108
 475 176 475 176 470 181 c 0,109,110
 468 184 468 184 466.5 189 c 128,-1,111
 465 194 465 194 466 196.5 c 128,-1,112
 467 199 467 199 470.5 202 c 128,-1,113
 474 205 474 205 477 205 c 0,114,115
 481 205 481 205 485 202 c 0,116,117
 487 201 487 201 490.5 199.5 c 128,-1,118
 494 198 494 198 495 200 c 128,-1,119
 496 202 496 202 496.5 206 c 128,-1,120
 497 210 497 210 499.5 212.5 c 128,-1,121
 502 215 502 215 507 215 c 128,-1,122
 512 215 512 215 513.5 213 c 128,-1,123
 515 211 515 211 516.5 210.5 c 128,-1,124
 518 210 518 210 519 204 c 0,125,126
 519 197 519 197 522 197 c 0,127,128
 523 196 523 196 524 198 c 0,129,130
 525 199 525 199 527.5 200.5 c 128,-1,131
 530 202 530 202 530.5 203.5 c 128,-1,132
 531 205 531 205 532.5 205.5 c 128,-1,133
 534 206 534 206 535.5 208 c 128,-1,134
 537 210 537 210 538 210 c 128,-1,135
 539 210 539 210 541 212 c 128,-1,136
 543 214 543 214 548 214 c 128,-1,137
 553 214 553 214 553 212 c 128,-1,138
 553 210 553 210 554 209 c 0,139,140
 557 209 557 209 557 203 c 0,141,142
 557 199 557 199 555 198 c 0,143,144
 552 196 552 196 552 192 c 0,145,146
 552 190 552 190 550 187 c 0,147,148
 543 181 543 181 543 180 c 0,149,150
 543 177 543 177 549 176 c 0,151,152
 551 176 551 176 556.5 173 c 128,-1,153
 562 170 562 170 562 169.5 c 128,-1,154
 562 169 562 169 564 167 c 0,155,156
 567 163 567 163 563 157 c 256,157,158
 559 151 559 151 550 150 c 0,159,160
 543 150 543 150 541 148 c 2,161,-1
 539 146 l 1,162,-1
 541 144 l 2,163,164
 550 137 550 137 553 132 c 0,165,166
 554 130 554 130 555.5 129 c 128,-1,167
 557 128 557 128 557 125 c 0,168,169
 557 120 557 120 551 114 c 0,170,171
 548 112 548 112 544 112 c 128,-1,172
 540 112 540 112 536.5 114.5 c 128,-1,173
 533 117 533 117 532.5 117 c 128,-1,174
 532 117 532 117 530 119 c 0,175,176
 527 123 527 123 525 120.5 c 128,-1,177
 523 118 523 118 523 109 c 0,178,179
 523 108 523 108 521 107.5 c 128,-1,180
 519 107 519 107 517 105 c 128,-1,181
 515 103 515 103 511.5 102.5 c 128,-1,182
 508 102 508 102 507 103 c 256,78,79
507 272 m 0,183,184
 506 273 506 273 506 273.5 c 128,-1,185
 506 274 506 274 504.5 275 c 128,-1,186
 503 276 503 276 502 279.5 c 128,-1,187
 501 283 501 283 499 284.5 c 128,-1,188
 497 286 497 286 497 288 c 0,189,190
 497 292 497 292 495 293 c 0,191,192
 491 295 491 295 489 291 c 0,193,194
 488 290 488 290 487 290 c 128,-1,195
 486 290 486 290 484.5 287.5 c 128,-1,196
 483 285 483 285 476 285 c 128,-1,197
 469 285 469 285 466.5 287.5 c 128,-1,198
 464 290 464 290 464 293 c 128,-1,199
 464 296 464 296 465 296 c 0,200,201
 467 296 467 296 468 302 c 0,202,203
 469 304 469 304 470 306 c 0,204,205
 474 310 474 310 470 314 c 0,206,207
 465 318 465 318 461 319 c 0,208,209
 459 319 459 319 457 321 c 0,210,211
 452 325 452 325 454 332 c 0,212,213
 454 335 454 335 457 335.5 c 128,-1,214
 460 336 460 336 461 337.5 c 128,-1,215
 462 339 462 339 465 339 c 0,216,217
 472 339 472 339 473 342 c 0,218,219
 475 345 475 345 471 349 c 0,220,221
 468 352 468 352 467.5 354.5 c 128,-1,222
 467 357 467 357 465 358 c 0,223,224
 463 362 463 362 466 365 c 0,225,226
 467 367 467 367 470.5 370.5 c 128,-1,227
 474 374 474 374 476 374 c 0,228,229
 482 374 482 374 485 371 c 0,230,231
 487 369 487 369 490 368 c 2,232,-1
 494 367 l 1,233,-1
 495 370 l 2,234,235
 497 372 497 372 497 375 c 128,-1,236
 497 378 497 378 499.5 380.5 c 128,-1,237
 502 383 502 383 505 383 c 0,238,239
 512 383 512 383 515 380 c 256,240,241
 518 377 518 377 518 373 c 0,242,243
 519 366 519 366 522 366 c 128,-1,244
 525 366 525 366 529 370 c 0,245,246
 536 378 536 378 537.5 378 c 128,-1,247
 539 378 539 378 540.5 380 c 128,-1,248
 542 382 542 382 545 383 c 0,249,250
 553 384 553 384 553 381 c 0,251,252
 553 380 553 380 554 379 c 0,253,254
 557 378 557 378 557 372 c 0,255,256
 557 367 557 367 555 365.5 c 128,-1,257
 553 364 553 364 552.5 360.5 c 128,-1,258
 552 357 552 357 550.5 356 c 128,-1,259
 549 355 549 355 548 353.5 c 128,-1,260
 547 352 547 352 545 350.5 c 128,-1,261
 543 349 543 349 544 347 c 128,-1,262
 545 345 545 345 549 344.5 c 128,-1,263
 553 344 553 344 556 341.5 c 128,-1,264
 559 339 559 339 560 339 c 128,-1,265
 561 339 561 339 561 338.5 c 128,-1,266
 561 338 561 338 563 335 c 0,267,268
 568 330 568 330 565 328 c 0,269,270
 564 327 564 327 562.5 325 c 128,-1,271
 561 323 561 323 559 320.5 c 128,-1,272
 557 318 557 318 550 318 c 0,273,274
 541 318 541 318 539 315 c 0,275,276
 538 314 538 314 541 312 c 0,277,278
 549 306 549 306 552 300 c 0,279,280
 553 298 553 298 554.5 296.5 c 128,-1,281
 556 295 556 295 556 292 c 128,-1,282
 556 289 556 289 551.5 284.5 c 128,-1,283
 547 280 547 280 544 280 c 128,-1,284
 541 280 541 280 539 282 c 128,-1,285
 537 284 537 284 534.5 285 c 128,-1,286
 532 286 532 286 531 288 c 0,287,288
 529 292 529 292 525 289 c 0,289,290
 523 288 523 288 523 285 c 0,291,292
 523 279 523 279 520 278 c 0,293,294
 517 276 517 276 516.5 273.5 c 128,-1,295
 516 271 516 271 514 271 c 0,296,297
 509 270 509 270 507 272 c 0,183,184
654.5 411.5 m 128,-1,299
 653 413 653 413 651 414 c 0,300,301
 648 415 648 415 641 421 c 0,302,303
 638 423 638 423 635.5 424 c 128,-1,304
 633 425 633 425 633 425.5 c 128,-1,305
 633 426 633 426 629.5 428 c 128,-1,306
 626 430 626 430 626 430.5 c 128,-1,307
 626 431 626 431 623 433 c 128,-1,308
 620 435 620 435 618.5 436 c 128,-1,309
 617 437 617 437 613.5 438 c 128,-1,310
 610 439 610 439 607.5 440.5 c 128,-1,311
 605 442 605 442 600.5 443 c 128,-1,312
 596 444 596 444 596 445 c 0,313,314
 595 447 595 447 585 448 c 0,315,316
 579 449 579 449 575.5 450.5 c 128,-1,317
 572 452 572 452 556 452 c 128,-1,318
 540 452 540 452 534 450 c 128,-1,319
 528 448 528 448 526 447.5 c 128,-1,320
 524 447 524 447 523 445 c 128,-1,321
 522 443 522 443 520.5 441.5 c 128,-1,322
 519 440 519 440 519 438 c 0,323,324
 519 435 519 435 514.5 430 c 128,-1,325
 510 425 510 425 505 422 c 0,326,327
 496 418 496 418 481 419 c 2,328,-1
 475 420 l 1,329,-1
 470 425 l 2,330,331
 464 431 464 431 463 434 c 128,-1,332
 462 437 462 437 460.5 439 c 128,-1,333
 459 441 459 441 459 450 c 128,-1,334
 459 459 459 459 460.5 461 c 128,-1,335
 462 463 462 463 463 466.5 c 128,-1,336
 464 470 464 470 464.5 470 c 128,-1,337
 465 470 465 470 466 472 c 0,338,339
 469 478 469 478 475 480 c 0,340,341
 478 481 478 481 479 482.5 c 128,-1,342
 480 484 480 484 488.5 484 c 128,-1,343
 497 484 497 484 499 482 c 128,-1,344
 501 480 501 480 504.5 479.5 c 128,-1,345
 508 479 508 479 509 477 c 0,346,347
 513 471 513 471 520 471 c 0,348,349
 523 471 523 471 525 473 c 0,350,351
 533 476 533 476 566 475 c 0,352,353
 587 474 587 474 589 472.5 c 128,-1,354
 591 471 591 471 596.5 470 c 128,-1,355
 602 469 602 469 603 468 c 0,356,357
 608 465 608 465 612 465 c 0,358,359
 614 465 614 465 615.5 463.5 c 128,-1,360
 617 462 617 462 621 460.5 c 128,-1,361
 625 459 625 459 625 458 c 0,362,363
 627 456 627 456 637 451 c 0,364,365
 641 449 641 449 642.5 447.5 c 128,-1,366
 644 446 644 446 646 445.5 c 128,-1,367
 648 445 648 445 648.5 444 c 128,-1,368
 649 443 649 443 652.5 441.5 c 128,-1,369
 656 440 656 440 661.5 434 c 128,-1,370
 667 428 667 428 668.5 425 c 128,-1,371
 670 422 670 422 671.5 421.5 c 128,-1,372
 673 421 673 421 670.5 417.5 c 128,-1,373
 668 414 668 414 667.5 412 c 128,-1,374
 667 410 667 410 661.5 410 c 128,-1,298
 656 410 656 410 654.5 411.5 c 128,-1,299
480 508 m 128,-1,376
 476 511 476 511 475 511 c 128,-1,377
 474 511 474 511 471.5 513 c 128,-1,378
 469 515 469 515 466 519 c 0,379,380
 464 521 464 521 463 524.5 c 128,-1,381
 462 528 462 528 460.5 529 c 128,-1,382
 459 530 459 530 458 533 c 128,-1,383
 457 536 457 536 456 537 c 128,-1,384
 455 538 455 538 453 541.5 c 128,-1,385
 451 545 451 545 450.5 545 c 128,-1,386
 450 545 450 545 448.5 549 c 128,-1,387
 447 553 447 553 446 554.5 c 128,-1,388
 445 556 445 556 443.5 558.5 c 128,-1,389
 442 561 442 561 441 562.5 c 128,-1,390
 440 564 440 564 439 567.5 c 128,-1,391
 438 571 438 571 436.5 573 c 128,-1,392
 435 575 435 575 435 581.5 c 128,-1,393
 435 588 435 588 437 589.5 c 128,-1,394
 439 591 439 591 439.5 592.5 c 128,-1,395
 440 594 440 594 442.5 595 c 128,-1,396
 445 596 445 596 447 597.5 c 128,-1,397
 449 599 449 599 463.5 599 c 128,-1,398
 478 599 478 599 483 600 c 0,399,400
 506 603 506 603 525 600 c 0,401,402
 534 599 534 599 540.5 599 c 128,-1,403
 547 599 547 599 550 597 c 2,404,-1
 552 594 l 1,405,-1
 552 586 l 1,406,-1
 552 579 l 1,407,-1
 549 575 l 2,408,409
 545 571 545 571 542.5 567.5 c 128,-1,410
 540 564 540 564 539 563 c 128,-1,411
 538 562 538 562 538 561 c 128,-1,412
 538 560 538 560 535 557 c 0,413,414
 528 549 528 549 524 543 c 0,415,416
 522 540 522 540 521 539 c 0,417,418
 516 533 516 533 514 529 c 0,419,420
 512 526 512 526 511 525.5 c 128,-1,421
 510 525 510 525 509 523 c 128,-1,422
 508 521 508 521 506 519 c 128,-1,423
 504 517 504 517 502 513.5 c 128,-1,424
 500 510 500 510 496.5 507.5 c 128,-1,425
 493 505 493 505 488.5 505 c 128,-1,375
 484 505 484 505 480 508 c 128,-1,376
493 544 m 128,-1,427
 495 547 495 547 496.5 549.5 c 128,-1,428
 498 552 498 552 500.5 555 c 128,-1,429
 503 558 503 558 503 559 c 128,-1,430
 503 560 503 560 504 560.5 c 128,-1,431
 505 561 505 561 506 563 c 128,-1,432
 507 565 507 565 509 567 c 0,433,434
 512 570 512 570 508 574 c 0,435,436
 507 576 507 576 496.5 575 c 128,-1,437
 486 574 486 574 477.5 573.5 c 128,-1,438
 469 573 469 573 468 572 c 0,439,440
 466 569 466 569 469 567 c 0,441,442
 471 564 471 564 471 563 c 128,-1,443
 471 562 471 562 472.5 560.5 c 128,-1,444
 474 559 474 559 475 556 c 128,-1,445
 476 553 476 553 477.5 552 c 128,-1,446
 479 551 479 551 480.5 546.5 c 128,-1,447
 482 542 482 542 485 540.5 c 128,-1,448
 488 539 488 539 489.5 540 c 128,-1,426
 491 541 491 541 493 544 c 128,-1,427
EndSplineSet
EndChar

StartChar: T
Encoding: 84 84 22
Width: 1000
GlyphClass: 1
Flags: W
LayerCount: 2
Fore
SplineSet
415 17 m 0,0,1
 409 20 409 20 410 32 c 0,2,3
 410 39 410 39 412 40.5 c 128,-1,4
 414 42 414 42 415.5 46 c 128,-1,5
 417 50 417 50 419.5 53.5 c 128,-1,6
 422 57 422 57 423 61 c 128,-1,7
 424 65 424 65 426 66.5 c 128,-1,8
 428 68 428 68 429 71.5 c 128,-1,9
 430 75 430 75 432.5 77.5 c 128,-1,10
 435 80 435 80 436 84 c 128,-1,11
 437 88 437 88 439.5 91 c 128,-1,12
 442 94 442 94 442.5 98.5 c 128,-1,13
 443 103 443 103 445.5 105.5 c 128,-1,14
 448 108 448 108 449 115 c 128,-1,15
 450 122 450 122 452 125 c 128,-1,16
 454 128 454 128 455 136.5 c 128,-1,17
 456 145 456 145 458 147 c 0,18,19
 461 151 461 151 462 165 c 0,20,21
 463 176 463 176 465 180 c 128,-1,22
 467 184 467 184 467 207 c 128,-1,23
 467 230 467 230 466.5 239 c 128,-1,24
 466 248 466 248 467 256.5 c 128,-1,25
 468 265 468 265 472 269.5 c 128,-1,26
 476 274 476 274 477.5 274 c 128,-1,27
 479 274 479 274 481 276 c 128,-1,28
 483 278 483 278 485 275.5 c 128,-1,29
 487 273 487 273 488.5 272.5 c 128,-1,30
 490 272 490 272 491.5 265.5 c 128,-1,31
 493 259 493 259 495 257 c 0,32,33
 498 253 498 253 498 193 c 0,34,35
 497 167 497 167 495 164 c 0,36,37
 492 161 492 161 491 146 c 0,38,39
 490 137 490 137 488 134.5 c 128,-1,40
 486 132 486 132 485 123.5 c 128,-1,41
 484 115 484 115 481.5 113 c 128,-1,42
 479 111 479 111 478 104.5 c 128,-1,43
 477 98 477 98 474.5 94.5 c 128,-1,44
 472 91 472 91 471.5 87 c 128,-1,45
 471 83 471 83 468.5 80 c 128,-1,46
 466 77 466 77 465 72.5 c 128,-1,47
 464 68 464 68 462 66 c 128,-1,48
 460 64 460 64 458.5 59.5 c 128,-1,49
 457 55 457 55 455 53.5 c 128,-1,50
 453 52 453 52 452 47 c 128,-1,51
 451 42 451 42 450 42 c 128,-1,52
 449 42 449 42 447 37 c 0,53,54
 444 30 444 30 437 24 c 0,55,56
 436 23 436 23 433 20 c 0,57,58
 424 12 424 12 415 17 c 0,0,1
440 219 m 128,-1,60
 438 220 438 220 438 222.5 c 128,-1,61
 438 225 438 225 436 224 c 0,62,63
 431 222 431 222 429 227 c 0,64,65
 428 230 428 230 426 231 c 128,-1,66
 424 232 424 232 423 239.5 c 128,-1,67
 422 247 422 247 419 250 c 2,68,-1
 417 252 l 1,69,-1
 417 277 l 2,70,71
 417 302 417 302 419 304 c 128,-1,72
 421 306 421 306 422.5 320 c 128,-1,73
 424 334 424 334 424 338.5 c 128,-1,74
 424 343 424 343 426 346 c 128,-1,75
 428 349 428 349 429 360 c 0,76,77
 430 377 430 377 432 377 c 0,78,79
 435 377 435 377 436 394 c 0,80,81
 437 405 437 405 439 408 c 128,-1,82
 441 411 441 411 442 420.5 c 128,-1,83
 443 430 443 430 446 435.5 c 128,-1,84
 449 441 449 441 449 444.5 c 128,-1,85
 449 448 449 448 451 450 c 0,86,87
 455 454 455 454 455 458 c 0,88,89
 455 461 455 461 457.5 464 c 128,-1,90
 460 467 460 467 461 470.5 c 128,-1,91
 462 474 462 474 466 478 c 128,-1,92
 470 482 470 482 477 482 c 128,-1,93
 484 482 484 482 487 481 c 128,-1,94
 490 480 490 480 490 474 c 0,95,96
 492 460 492 460 488 456 c 0,97,98
 486 454 486 454 485 449 c 128,-1,99
 484 444 484 444 482 442 c 128,-1,100
 480 440 480 440 478.5 433 c 128,-1,101
 477 426 477 426 475 424 c 128,-1,102
 473 422 473 422 472 411 c 0,103,104
 470 395 470 395 469 395 c 0,105,106
 467 395 467 395 465 379 c 0,107,108
 464 370 464 370 461.5 365 c 128,-1,109
 459 360 459 360 459 355 c 0,110,111
 459 336 459 336 456 333 c 0,112,113
 453 329 453 329 451 303 c 0,114,115
 451 291 451 291 450 289 c 0,116,117
 446 281 446 281 445 247 c 0,118,119
 444 219 444 219 443 218.5 c 128,-1,59
 442 218 442 218 440 219 c 128,-1,60
243 459 m 0,120,121
 238 460 238 460 235 462.5 c 128,-1,122
 232 465 232 465 231 465 c 0,123,124
 229 465 229 465 217 477 c 0,125,126
 215 480 215 480 214 484 c 128,-1,127
 213 488 213 488 211 489.5 c 128,-1,128
 209 491 209 491 209 496 c 128,-1,129
 209 501 209 501 211 503.5 c 128,-1,130
 213 506 213 506 213.5 509.5 c 128,-1,131
 214 513 214 513 217.5 518 c 128,-1,132
 221 523 221 523 221 524.5 c 128,-1,133
 221 526 221 526 225.5 528 c 128,-1,134
 230 530 230 530 232 532 c 128,-1,135
 234 534 234 534 247 534 c 2,136,-1
 259 534 l 1,137,-1
 267 529 l 2,138,139
 274 525 274 525 279 519 c 128,-1,140
 284 513 284 513 284.5 509.5 c 128,-1,141
 285 506 285 506 286.5 504 c 128,-1,142
 288 502 288 502 288 497 c 128,-1,143
 288 492 288 492 286 490 c 0,144,145
 285 489 285 489 283.5 484 c 128,-1,146
 282 479 282 479 275 472 c 0,147,148
 265 462 265 462 260 459.5 c 128,-1,149
 255 457 255 457 243 459 c 0,120,121
738.5 462 m 128,-1,151
 735 465 735 465 734 465 c 0,152,153
 732 465 732 465 727 469 c 128,-1,154
 722 473 722 473 721 474 c 0,155,156
 720 476 720 476 718 478 c 128,-1,157
 716 480 716 480 714.5 485 c 128,-1,158
 713 490 713 490 711.5 491 c 128,-1,159
 710 492 710 492 710 498.5 c 128,-1,160
 710 505 710 505 714 512 c 0,161,162
 721 525 721 525 729 530 c 0,163,164
 736 533 736 533 747 534 c 0,165,166
 768 536 768 536 774 531 c 0,167,168
 777 530 777 530 780 528 c 0,169,170
 789 521 789 521 791 513 c 0,171,172
 791 509 791 509 791 500 c 128,-1,173
 791 491 791 491 790 486 c 256,174,175
 789 481 789 481 782 474.5 c 128,-1,176
 775 468 775 468 771 466 c 0,177,178
 757 459 757 459 749 459 c 0,179,150
 742 459 742 459 738.5 462 c 128,-1,151
480 520.5 m 128,-1,181
 478 523 478 523 477 523 c 128,-1,182
 476 523 476 523 475 527 c 128,-1,183
 474 531 474 531 472 533.5 c 128,-1,184
 470 536 470 536 469 540 c 0,185,186
 468 546 468 546 465 548 c 0,187,188
 463 549 463 549 460 546 c 128,-1,189
 457 543 457 543 455.5 543 c 128,-1,190
 454 543 454 543 451.5 540.5 c 128,-1,191
 449 538 449 538 443 537 c 0,192,193
 431 536 431 536 426 541 c 0,194,195
 423 544 423 544 423.5 548.5 c 128,-1,196
 424 553 424 553 425.5 553.5 c 128,-1,197
 427 554 427 554 428.5 559.5 c 128,-1,198
 430 565 430 565 433 567 c 0,199,200
 435 569 435 569 434.5 572 c 128,-1,201
 434 575 434 575 430.5 578 c 128,-1,202
 427 581 427 581 422 582 c 0,203,204
 416 583 416 583 413 586 c 128,-1,205
 410 589 410 589 410 596 c 128,-1,206
 410 603 410 603 411 604 c 0,207,208
 419 611 419 611 426 611 c 0,209,210
 438 611 438 611 438 616 c 0,211,212
 438 617 438 617 434.5 621.5 c 128,-1,213
 431 626 431 626 429 630 c 128,-1,214
 427 634 427 634 425.5 635 c 128,-1,215
 424 636 424 636 424 639.5 c 128,-1,216
 424 643 424 643 426 646 c 0,217,218
 431 655 431 655 438.5 657 c 128,-1,219
 446 659 446 659 452 654 c 0,220,221
 455 652 455 652 459 651 c 0,222,223
 465 650 465 650 467 658 c 0,224,225
 470 671 470 671 483 671 c 0,226,227
 490 671 490 671 491.5 669 c 128,-1,228
 493 667 493 667 495 664.5 c 128,-1,229
 497 662 497 662 498 656.5 c 128,-1,230
 499 651 499 651 501 649 c 2,231,-1
 503 647 l 1,232,-1
 508 651 l 2,233,234
 513 656 513 656 517 659.5 c 128,-1,235
 521 663 521 663 524 664.5 c 128,-1,236
 527 666 527 666 528 668 c 128,-1,237
 529 670 529 670 535.5 669.5 c 128,-1,238
 542 669 542 669 545.5 666 c 128,-1,239
 549 663 549 663 549 655 c 128,-1,240
 549 647 549 647 547 644.5 c 128,-1,241
 545 642 545 642 543.5 639 c 128,-1,242
 542 636 542 636 539.5 633 c 128,-1,243
 537 630 537 630 534 626 c 2,244,-1
 531 623 l 1,245,-1
 534 621 l 2,246,247
 537 618 537 618 540 618 c 0,248,249
 547 616 547 616 554 610.5 c 128,-1,250
 561 605 561 605 561 600 c 0,251,252
 561 592 561 592 552 586 c 0,253,254
 548 583 548 583 539.5 582.5 c 128,-1,255
 531 582 531 582 528 580 c 2,256,-1
 525 578 l 1,257,-1
 534 570 l 2,258,259
 542 562 542 562 543.5 558.5 c 128,-1,260
 545 555 545 555 547 552 c 0,261,262
 552 546 552 546 543 537 c 2,263,-1
 538 531 l 1,264,-1
 532 531 l 2,265,266
 525 531 525 531 521 534 c 128,-1,267
 517 537 517 537 514 541 c 0,268,269
 505 549 505 549 504 534 c 0,270,271
 503 529 503 529 497.5 523.5 c 128,-1,272
 492 518 492 518 487 518 c 128,-1,180
 482 518 482 518 480 520.5 c 128,-1,181
EndSplineSet
EndChar

StartChar: U
Encoding: 85 85 23
Width: 1000
GlyphClass: 1
Flags: W
LayerCount: 2
Fore
SplineSet
489.5 297 m 128,-1,1
 486 300 486 300 483 300.5 c 128,-1,2
 480 301 480 301 478.5 303 c 128,-1,3
 477 305 477 305 475 306 c 128,-1,4
 473 307 473 307 472 310 c 128,-1,5
 471 313 471 313 469.5 314 c 128,-1,6
 468 315 468 315 466.5 319 c 128,-1,7
 465 323 465 323 463 325.5 c 128,-1,8
 461 328 461 328 459.5 332 c 128,-1,9
 458 336 458 336 456 338 c 128,-1,10
 454 340 454 340 453 342.5 c 128,-1,11
 452 345 452 345 450 347.5 c 128,-1,12
 448 350 448 350 447 353 c 0,13,14
 445 361 445 361 437 371 c 0,15,16
 435 373 435 373 433.5 379.5 c 128,-1,17
 432 386 432 386 429.5 389 c 128,-1,18
 427 392 427 392 427.5 397.5 c 128,-1,19
 428 403 428 403 431 405.5 c 128,-1,20
 434 408 434 408 434 409 c 0,21,22
 434 412 434 412 440 414 c 0,23,24
 444 415 444 415 446 417 c 2,25,-1
 448 420 l 1,26,-1
 475 420 l 2,27,28
 501 420 501 420 520.5 421 c 128,-1,29
 540 422 540 422 544 421.5 c 128,-1,30
 548 421 548 421 561.5 420 c 128,-1,31
 575 419 575 419 576.5 418 c 128,-1,32
 578 417 578 417 582 415 c 2,33,-1
 586 414 l 1,34,-1
 586 403 l 2,35,36
 586 393 586 393 583 391 c 0,37,38
 574 381 574 381 574 380 c 256,39,40
 574 379 574 379 570.5 374.5 c 128,-1,41
 567 370 567 370 567 369 c 0,42,43
 567 367 567 367 554 355 c 0,44,45
 548 348 548 348 546.5 344.5 c 128,-1,46
 545 341 545 341 544 341 c 128,-1,47
 543 341 543 341 541.5 336.5 c 128,-1,48
 540 332 540 332 538 331 c 128,-1,49
 536 330 536 330 534.5 327.5 c 128,-1,50
 533 325 533 325 530.5 322 c 128,-1,51
 528 319 528 319 527 316.5 c 128,-1,52
 526 314 526 314 525 313.5 c 128,-1,53
 524 313 524 313 521.5 309 c 128,-1,54
 519 305 519 305 518.5 305 c 128,-1,55
 518 305 518 305 512 299 c 2,56,-1
 507 294 l 1,57,-1
 500 294 l 2,58,0
 493 294 493 294 489.5 297 c 128,-1,1
505.5 344 m 128,-1,60
 507 347 507 347 509.5 349 c 128,-1,61
 512 351 512 351 512 352.5 c 128,-1,62
 512 354 512 354 515 358 c 0,63,64
 526 370 526 370 526 372 c 0,65,66
 526 373 526 373 528.5 375 c 128,-1,67
 531 377 531 377 531 382 c 2,68,-1
 532 387 l 1,69,-1
 528 389 l 2,70,71
 524 391 524 391 517.5 390 c 128,-1,72
 511 389 511 389 509 389.5 c 128,-1,73
 507 390 507 390 503 388 c 128,-1,74
 499 386 499 386 486 385.5 c 128,-1,75
 473 385 473 385 472 384 c 0,76,77
 468 379 468 379 473 375 c 0,78,79
 476 373 476 373 476 371 c 128,-1,80
 476 369 476 369 479 365.5 c 128,-1,81
 482 362 482 362 483 358.5 c 128,-1,82
 484 355 484 355 485.5 353.5 c 128,-1,83
 487 352 487 352 488.5 348 c 128,-1,84
 490 344 490 344 495 340.5 c 128,-1,85
 500 337 500 337 502 339 c 128,-1,59
 504 341 504 341 505.5 344 c 128,-1,60
214 340 m 0,86,87
 207 343 207 343 205 349 c 0,88,89
 204 353 204 353 202 356 c 128,-1,90
 200 359 200 359 199 363.5 c 128,-1,91
 198 368 198 368 196 369.5 c 128,-1,92
 194 371 194 371 190.5 368 c 128,-1,93
 187 365 187 365 186 364.5 c 128,-1,94
 185 364 185 364 180.5 361.5 c 128,-1,95
 176 359 176 359 169 359 c 0,96,97
 160 359 160 359 156.5 362 c 128,-1,98
 153 365 153 365 154 371 c 0,99,100
 155 374 155 374 156.5 376 c 128,-1,101
 158 378 158 378 160 382.5 c 128,-1,102
 162 387 162 387 164 389 c 128,-1,103
 166 391 166 391 165 394 c 0,104,105
 164 400 164 400 154 403 c 0,106,107
 147 405 147 405 144 408 c 128,-1,108
 141 411 141 411 141 417 c 0,109,110
 141 428 141 428 144 428 c 0,111,112
 145 428 145 428 147 430.5 c 128,-1,113
 149 433 149 433 157 433 c 0,114,115
 166 434 166 434 167 437 c 128,-1,116
 168 440 168 440 163 447 c 0,117,118
 160 451 160 451 160 453 c 128,-1,119
 160 455 160 455 158 457 c 0,120,121
 154 460 154 460 156 466 c 128,-1,122
 158 472 158 472 163 476 c 256,123,124
 168 480 168 480 172 480 c 0,125,126
 178 479 178 479 184 475 c 0,127,128
 186 473 186 473 190 472.5 c 128,-1,129
 194 472 194 472 195.5 474 c 128,-1,130
 197 476 197 476 198 480 c 0,131,132
 200 493 200 493 214 493 c 0,133,134
 221 493 221 493 224.5 489 c 128,-1,135
 228 485 228 485 228.5 480.5 c 128,-1,136
 229 476 229 476 231 473 c 2,137,-1
 233 471 l 1,138,-1
 236 472 l 2,139,140
 240 474 240 474 246 480 c 128,-1,141
 252 486 252 486 253 486 c 128,-1,142
 254 486 254 486 258 489 c 128,-1,143
 262 492 262 492 267.5 492 c 128,-1,144
 273 492 273 492 276.5 488 c 128,-1,145
 280 484 280 484 280 476.5 c 128,-1,146
 280 469 280 469 277.5 465.5 c 128,-1,147
 275 462 275 462 275 460 c 128,-1,148
 275 458 275 458 272 455 c 0,149,150
 262 448 262 448 264 444 c 0,151,152
 265 442 265 442 281 434 c 0,153,154
 287 432 287 432 287 430.5 c 128,-1,155
 287 429 287 429 288 427 c 0,156,157
 295 421 295 421 290 417 c 0,158,159
 289 415 289 415 289 413.5 c 128,-1,160
 289 412 289 412 284.5 408.5 c 128,-1,161
 280 405 280 405 273 405 c 0,162,163
 261 405 261 405 259 401 c 0,164,165
 258 399 258 399 261 395 c 0,166,167
 273 385 273 385 275 378 c 0,168,169
 276 376 276 376 278 375 c 0,170,171
 280 373 280 373 280 369 c 128,-1,172
 280 365 280 365 277.5 363.5 c 128,-1,173
 275 362 275 362 273 358 c 128,-1,174
 271 354 271 354 267 353 c 0,175,176
 255 351 255 351 244 362 c 0,177,178
 241 366 241 366 240 366 c 0,179,180
 236 366 236 366 235 357 c 0,181,182
 234 352 234 352 231 348.5 c 128,-1,183
 228 345 228 345 226.5 342.5 c 128,-1,184
 225 340 225 340 220 340 c 128,-1,185
 215 340 215 340 214 340 c 0,86,87
776 340.5 m 128,-1,187
 774 341 774 341 772.5 344 c 128,-1,188
 771 347 771 347 769 348 c 0,189,190
 766 349 766 349 765 358 c 256,191,192
 764 367 764 367 760 367 c 0,193,194
 759 367 759 367 755.5 363 c 128,-1,195
 752 359 752 359 747.5 356 c 128,-1,196
 743 353 743 353 738 353 c 0,197,198
 728 353 728 353 728 356 c 0,199,200
 728 358 728 358 724 361 c 0,201,202
 719 367 719 367 723 372 c 0,203,204
 725 375 725 375 725.5 378.5 c 128,-1,205
 726 382 726 382 734.5 391 c 128,-1,206
 743 400 743 400 742 401 c 0,207,208
 738 405 738 405 728 405 c 0,209,210
 722 405 722 405 717 409 c 128,-1,211
 712 413 712 413 712 414 c 128,-1,212
 712 415 712 415 710 417 c 0,213,214
 704 422 704 422 711 427 c 0,215,216
 713 429 713 429 714 430.5 c 128,-1,217
 715 432 715 432 717 433 c 128,-1,218
 719 434 719 434 722 436.5 c 128,-1,219
 725 439 725 439 730 440 c 0,220,221
 738 442 738 442 738 445 c 0,222,223
 738 447 738 447 730 455 c 0,224,225
 727 458 727 458 726 462 c 128,-1,226
 725 466 725 466 723 468 c 0,227,228
 720 471 720 471 720 482 c 0,229,230
 721 485 721 485 724 488.5 c 128,-1,231
 727 492 727 492 734 492 c 128,-1,232
 741 492 741 492 743.5 489 c 128,-1,233
 746 486 746 486 747 486 c 0,234,235
 749 486 749 486 759 475 c 0,236,237
 765 469 765 469 767 469 c 0,238,239
 772 469 772 469 772 480 c 0,240,241
 772 484 772 484 776 488 c 128,-1,242
 780 492 780 492 786.5 492.5 c 128,-1,243
 793 493 793 493 797 489 c 128,-1,244
 801 485 801 485 802 481 c 0,245,246
 803 473 803 473 810 473 c 0,247,248
 814 473 814 473 816.5 475.5 c 128,-1,249
 819 478 819 478 824 479 c 0,250,251
 832 480 832 480 838 476 c 0,252,253
 841 473 841 473 841.5 473 c 128,-1,254
 842 473 842 473 844 471 c 0,255,256
 851 464 851 464 837 447 c 0,257,258
 832 439 832 439 833.5 436.5 c 128,-1,259
 835 434 835 434 844 433 c 0,260,261
 849 433 849 433 852 431 c 128,-1,262
 855 429 855 429 857 429 c 0,263,264
 860 429 860 429 859 417 c 0,265,266
 859 405 859 405 848 403 c 0,267,268
 840 402 840 402 835 395 c 0,269,270
 833 392 833 392 837 389 c 0,271,272
 839 387 839 387 840 383.5 c 128,-1,273
 841 380 841 380 844 377 c 0,274,275
 848 373 848 373 846 364 c 0,276,277
 845 361 845 361 842 359 c 0,278,279
 838 358 838 358 828 358.5 c 128,-1,280
 818 359 818 359 817.5 360.5 c 128,-1,281
 817 362 817 362 815 363.5 c 128,-1,282
 813 365 813 365 810 368 c 128,-1,283
 807 371 807 371 806 371 c 0,284,285
 802 371 802 371 801 362 c 0,286,287
 799 357 799 357 797 354.5 c 128,-1,288
 795 352 795 352 794 348.5 c 128,-1,289
 793 345 793 345 790 342.5 c 128,-1,290
 787 340 787 340 782.5 340 c 128,-1,186
 778 340 778 340 776 340.5 c 128,-1,187
357 420 m 0,291,292
 357 424 357 424 347 424 c 0,293,294
 340 424 340 424 332 435 c 0,295,296
 329 438 329 438 330 449 c 0,297,298
 330 458 330 458 331 460.5 c 128,-1,299
 332 463 332 463 342 473 c 2,300,-1
 348 480 l 1,301,-1
 347 504 l 2,302,303
 347 528 347 528 345.5 534 c 128,-1,304
 344 540 344 540 342.5 570 c 128,-1,305
 341 600 341 600 342 606 c 128,-1,306
 343 612 343 612 346.5 615 c 128,-1,307
 350 618 350 618 357 617.5 c 128,-1,308
 364 617 364 617 365 615 c 128,-1,309
 366 613 366 613 368.5 610 c 128,-1,310
 371 607 371 607 372 594 c 128,-1,311
 373 581 373 581 375 575.5 c 128,-1,312
 377 570 377 570 377.5 528.5 c 128,-1,313
 378 487 378 487 378.5 484 c 128,-1,314
 379 481 379 481 382 479 c 0,315,316
 386 477 386 477 394 468 c 0,317,318
 398 465 398 465 397.5 457 c 128,-1,319
 397 449 397 449 394.5 445.5 c 128,-1,320
 392 442 392 442 392 440 c 0,321,322
 392 435 392 435 382 429 c 0,323,324
 379 427 379 427 378 426 c 128,-1,325
 377 425 377 425 372 424 c 128,-1,326
 367 423 367 423 362 421 c 128,-1,327
 357 419 357 419 357 420 c 0,291,292
641.5 419.5 m 128,-1,329
 640 420 640 420 636.5 421.5 c 128,-1,330
 633 423 633 423 628 424 c 256,331,332
 623 425 623 425 614 433 c 0,333,334
 610 437 610 437 609 440.5 c 128,-1,335
 608 444 608 444 605.5 447 c 128,-1,336
 603 450 603 450 603 457 c 128,-1,337
 603 464 603 464 604.5 465 c 128,-1,338
 606 466 606 466 608 470 c 0,339,340
 613 479 613 479 618 479 c 0,341,342
 619 479 619 479 621 481 c 128,-1,343
 623 483 623 483 623 518 c 0,344,345
 623 563 623 563 626 574 c 0,346,347
 628 580 628 580 628 594 c 2,348,-1
 629 608 l 1,349,-1
 633 612 l 2,350,351
 646 626 646 626 656 612 c 0,352,353
 658 609 658 609 657.5 579 c 128,-1,354
 657 549 657 549 656 538 c 128,-1,355
 655 527 655 527 654.5 514 c 128,-1,356
 654 501 654 501 652 495 c 0,357,358
 650 482 650 482 658 474 c 0,359,360
 662 469 662 469 667 464 c 2,361,-1
 671 458 l 1,362,-1
 670 448 l 1,363,-1
 670 437 l 1,364,-1
 664 431 l 2,365,366
 658 425 658 425 654.5 424 c 128,-1,367
 651 423 651 423 647 421 c 128,-1,328
 643 419 643 419 641.5 419.5 c 128,-1,329
EndSplineSet
EndChar

StartChar: space
Encoding: 32 32 24
Width: 1000
LayerCount: 2
Fore
SplineSet
-323 579 m 25,0,-1
 529 417 l 1053,1,-1
EndSplineSet
EndChar
